<svg width="62" height="62" viewBox="0 0 62 62" fill="none" xmlns="http://www.w3.org/2000/svg">
<g filter="url(#filter0_d)">
<circle cx="31" cy="27" r="27" fill="#FBBA08"/>
</g>
<path d="M31 11C29.0415 11 27.1632 11.778 25.7783 13.1629C24.3934 14.5478 23.6154 16.4261 23.6154 18.3846C23.6154 22.4634 30.0388 32.5914 30.0388 38.0769H31.9612C31.9612 32.6098 38.3846 22.1311 38.3846 18.3846C38.3846 16.4261 37.6066 14.5478 36.2217 13.1629C34.8368 11.778 32.9585 11 31 11V11ZM31 14.6923C31.9793 14.6923 32.9184 15.0813 33.6109 15.7738C34.3033 16.4662 34.6923 17.4054 34.6923 18.3846C34.6923 19.3639 34.3033 20.303 33.6109 20.9955C32.9184 21.6879 31.9793 22.0769 31 22.0769C30.0207 22.0769 29.0816 21.6879 28.3891 20.9955C27.6967 20.303 27.3077 19.3639 27.3077 18.3846C27.3077 17.4054 27.6967 16.4662 28.3891 15.7738C29.0816 15.0813 30.0207 14.6923 31 14.6923V14.6923ZM23.4234 32.2689C23.3971 32.2811 23.3712 32.2943 23.3458 32.3083C21.0751 32.7071 19.1502 33.2535 17.6929 34.0006C16.9631 34.3735 16.3342 34.8154 15.8468 35.3458C15.3582 35.8775 15 36.568 15 37.3458C15 38.5126 15.7729 39.4246 16.6923 40.0769C17.6117 40.7292 18.7723 41.2277 20.1926 41.6535C23.0295 42.5052 26.8215 43 31 43C35.1785 43 38.9705 42.5052 41.8074 41.6535C43.2265 41.2277 44.3883 40.7305 45.3077 40.0769C46.2271 39.4246 47 38.5126 47 37.3458C47 36.5655 46.6431 35.8394 46.1532 35.3077C45.6634 34.776 45.0406 34.3735 44.3071 33.9994C42.8425 33.2523 40.8991 32.7058 38.6148 32.3071C38.4542 32.276 38.289 32.2772 38.1288 32.3106C37.9687 32.3441 37.8168 32.4092 37.6821 32.502C37.5474 32.5948 37.4326 32.7136 37.3443 32.8514C37.256 32.9891 37.1961 33.1431 37.1681 33.3042C37.14 33.4654 37.1444 33.6306 37.1809 33.79C37.2174 33.9495 37.2853 34.1001 37.3807 34.233C37.4761 34.3659 37.5971 34.4785 37.7365 34.5641C37.8759 34.6497 38.0309 34.7067 38.1926 34.7317C40.3132 35.1009 42.0757 35.624 43.192 36.1926C43.7508 36.4757 44.1434 36.7797 44.3465 37C44.5495 37.2203 44.5385 37.3077 44.5385 37.3458C44.5385 37.4037 44.4597 37.6695 43.8849 38.0769C43.3102 38.4843 42.3305 38.9311 41.0763 39.3077C38.5692 40.0597 34.9778 40.5385 31 40.5385C27.0222 40.5385 23.4308 40.0597 20.9225 39.3077C19.6695 38.9311 18.6898 38.4843 18.1163 38.0769C17.5403 37.6695 17.4615 37.4037 17.4615 37.3458C17.4615 37.3089 17.4529 37.2191 17.6535 37C17.8554 36.7809 18.2529 36.4757 18.808 36.1926C19.9157 35.6252 21.6609 35.1022 23.7692 34.7305C23.9332 34.7106 24.0916 34.6582 24.2351 34.5763C24.3787 34.4945 24.5044 34.3849 24.6051 34.2539C24.7058 34.1229 24.7793 33.9731 24.8214 33.8134C24.8635 33.6536 24.8734 33.4871 24.8504 33.3235C24.8274 33.1599 24.7721 33.0025 24.6875 32.8606C24.603 32.7186 24.4911 32.5949 24.3582 32.4967C24.2253 32.3985 24.0742 32.3278 23.9137 32.2887C23.7532 32.2496 23.5865 32.2429 23.4234 32.2689V32.2689Z" fill="white"/>
<defs>
<filter id="filter0_d" x="0" y="0" width="62" height="62" filterUnits="userSpaceOnUse" color-interpolation-filters="sRGB">
<feFlood flood-opacity="0" result="BackgroundImageFix"/>
<feColorMatrix in="SourceAlpha" type="matrix" values="0 0 0 0 0 0 0 0 0 0 0 0 0 0 0 0 0 0 127 0"/>
<feOffset dy="4"/>
<feGaussianBlur stdDeviation="2"/>
<feColorMatrix type="matrix" values="0 0 0 0 0 0 0 0 0 0 0 0 0 0 0 0 0 0 0.25 0"/>
<feBlend mode="normal" in2="BackgroundImageFix" result="effect1_dropShadow"/>
<feBlend mode="normal" in="SourceGraphic" in2="effect1_dropShadow" result="shape"/>
</filter>
</defs>
</svg>
