<svg width="62" height="62" viewBox="0 0 62 62" fill="none" xmlns="http://www.w3.org/2000/svg">
<g filter="url(#filter0_d)">
<circle cx="31" cy="27" r="27" fill="#FBBA08"/>
</g>
<path d="M42.2188 40H26.5938C26.3822 40 26.1991 39.9196 26.0444 39.7588C25.8898 39.598 25.8125 39.4076 25.8125 39.1875C25.8125 38.9674 25.8898 38.777 26.0444 38.6162C26.1991 38.4554 26.3822 38.375 26.5938 38.375H41.4375V22.9375C41.4375 22.7174 41.5148 22.527 41.6694 22.3662C41.8241 22.2054 42.0072 22.125 42.2188 22.125C42.4303 22.125 42.6134 22.2054 42.7681 22.3662C42.9227 22.527 43 22.7174 43 22.9375V39.1875C43 39.4076 42.9227 39.598 42.7681 39.7588C42.6134 39.9196 42.4303 40 42.2188 40ZM41.4375 19.6875C41.4375 19.4674 41.3602 19.277 41.2056 19.1162C41.0509 18.9554 40.8678 18.875 40.6562 18.875C40.4447 18.875 40.2616 18.9554 40.1069 19.1162C39.9523 19.277 39.875 19.4674 39.875 19.6875V20.5H38.3125V18.0625C38.3125 17.8424 38.2352 17.652 38.0806 17.4912C37.9259 17.3304 37.7428 17.25 37.5312 17.25C37.3197 17.25 37.1366 17.3304 36.9819 17.4912C36.8273 17.652 36.75 17.8424 36.75 18.0625V20.5H35.1875V19.6875C35.1875 19.4674 35.1102 19.277 34.9556 19.1162C34.8009 18.9554 34.6178 18.875 34.4062 18.875C34.1947 18.875 34.0116 18.9554 33.8569 19.1162C33.7023 19.277 33.625 19.4674 33.625 19.6875V20.5H32.0625V18.0625C32.0625 17.8424 31.9852 17.652 31.8306 17.4912C31.6759 17.3304 31.4928 17.25 31.2812 17.25C31.0697 17.25 30.8866 17.3304 30.7319 17.4912C30.5773 17.652 30.5 17.8424 30.5 18.0625V20.5H28.9375V19.6875C28.9375 19.4674 28.8602 19.277 28.7056 19.1162C28.5509 18.9554 28.3678 18.875 28.1562 18.875C27.9447 18.875 27.7616 18.9554 27.6069 19.1162C27.4523 19.277 27.375 19.4674 27.375 19.6875V20.5H25.8125V18.0625C25.8125 17.8424 25.7352 17.652 25.5806 17.4912C25.4259 17.3304 25.2428 17.25 25.0312 17.25C24.8197 17.25 24.6366 17.3304 24.4819 17.4912C24.3273 17.652 24.25 17.8424 24.25 18.0625V20.5H21.9062C21.6947 20.5 21.5116 20.5804 21.3569 20.7412C21.2023 20.902 21.125 21.0924 21.125 21.3125C21.125 21.5326 21.2023 21.723 21.3569 21.8838C21.5116 22.0446 21.6947 22.125 21.9062 22.125H24.25V23.75H23.4688C23.2572 23.75 23.0741 23.8304 22.9194 23.9912C22.7648 24.152 22.6875 24.3424 22.6875 24.5625C22.6875 24.7826 22.7648 24.973 22.9194 25.1338C23.0741 25.2946 23.2572 25.375 23.4688 25.375H24.25V27H21.9062C21.6947 27 21.5116 27.0804 21.3569 27.2412C21.2023 27.402 21.125 27.5924 21.125 27.8125C21.125 28.0326 21.2023 28.223 21.3569 28.3838C21.5116 28.5446 21.6947 28.625 21.9062 28.625H24.25V30.25H23.4688C23.2572 30.25 23.0741 30.3304 22.9194 30.4912C22.7648 30.652 22.6875 30.8424 22.6875 31.0625C22.6875 31.2826 22.7648 31.473 22.9194 31.6338C23.0741 31.7946 23.2572 31.875 23.4688 31.875H24.25V33.5H21.9062C21.6947 33.5 21.5116 33.5804 21.3569 33.7412C21.2023 33.902 21.125 34.0924 21.125 34.3125C21.125 34.5326 21.2023 34.723 21.3569 34.8838C21.5116 35.0446 21.6947 35.125 21.9062 35.125H24.25V36.75H23.4688C23.2572 36.75 23.0741 36.8304 22.9194 36.9912C22.7648 37.152 22.6875 37.3424 22.6875 37.5625C22.6875 37.7826 22.7648 37.973 22.9194 38.1338C23.0741 38.2946 23.2572 38.375 23.4688 38.375H24.25V40H19.5625C19.1393 40 18.7731 39.8434 18.4639 39.5303C18.1546 39.2171 18 38.832 18 38.375V15.625C18 15.1849 18.1546 14.804 18.4639 14.4824C18.7731 14.1608 19.1393 14 19.5625 14H41.4375C41.8607 14 42.2269 14.1608 42.5361 14.4824C42.8454 14.804 43 15.1849 43 15.625V20.5H41.4375V19.6875Z" fill="white"/>
<defs>
<filter id="filter0_d" x="0" y="0" width="62" height="62" filterUnits="userSpaceOnUse" color-interpolation-filters="sRGB">
<feFlood flood-opacity="0" result="BackgroundImageFix"/>
<feColorMatrix in="SourceAlpha" type="matrix" values="0 0 0 0 0 0 0 0 0 0 0 0 0 0 0 0 0 0 127 0"/>
<feOffset dy="4"/>
<feGaussianBlur stdDeviation="2"/>
<feColorMatrix type="matrix" values="0 0 0 0 0 0 0 0 0 0 0 0 0 0 0 0 0 0 0.25 0"/>
<feBlend mode="normal" in2="BackgroundImageFix" result="effect1_dropShadow"/>
<feBlend mode="normal" in="SourceGraphic" in2="effect1_dropShadow" result="shape"/>
</filter>
</defs>
</svg>
