<svg width="62" height="62" viewBox="0 0 62 62" fill="none" xmlns="http://www.w3.org/2000/svg">
<g filter="url(#filter0_d)">
<circle cx="31" cy="27" r="27" fill="#FBBA08"/>
</g>
<path d="M23.9333 40.3333H17.6667V28.3333H20.3333L23.9333 40.3333ZM41.6667 23H33.6667V17.6667C33.6667 16.6058 33.2452 15.5884 32.4951 14.8382C31.745 14.0881 30.7275 13.6667 29.6667 13.6667H28.3333V19L24.4667 23.8333C23.5175 25.0198 23.0003 26.4939 23 28.0133V29.6667L25.8 39H36.916C38.1053 38.9998 39.2604 38.6021 40.1978 37.8701C41.1351 37.1381 41.8009 36.1138 42.0893 34.96L44.252 26.3133C44.3502 25.9203 44.3576 25.5101 44.2737 25.1138C44.1897 24.7175 44.0165 24.3456 43.7673 24.0262C43.5181 23.7068 43.1994 23.4484 42.8355 23.2706C42.4715 23.0928 42.0718 23.0003 41.6667 23Z" fill="white"/>
<defs>
<filter id="filter0_d" x="0" y="0" width="62" height="62" filterUnits="userSpaceOnUse" color-interpolation-filters="sRGB">
<feFlood flood-opacity="0" result="BackgroundImageFix"/>
<feColorMatrix in="SourceAlpha" type="matrix" values="0 0 0 0 0 0 0 0 0 0 0 0 0 0 0 0 0 0 127 0"/>
<feOffset dy="4"/>
<feGaussianBlur stdDeviation="2"/>
<feColorMatrix type="matrix" values="0 0 0 0 0 0 0 0 0 0 0 0 0 0 0 0 0 0 0.25 0"/>
<feBlend mode="normal" in2="BackgroundImageFix" result="effect1_dropShadow"/>
<feBlend mode="normal" in="SourceGraphic" in2="effect1_dropShadow" result="shape"/>
</filter>
</defs>
</svg>
