<svg width="62" height="62" viewBox="0 0 62 62" fill="none" xmlns="http://www.w3.org/2000/svg">
<g filter="url(#filter0_d)">
<circle cx="31" cy="27" r="27" fill="#FBBA08"/>
</g>
<path d="M47 30.4667C47 31.2667 45.4 31.8 43.5333 32.0667C42.3333 29.8 39.9333 28.0667 37.1333 26.8667C37.4 26.4667 37.6667 26.2 37.9333 25.8H39C43.1333 25.6667 47 28.2 47 30.4667ZM24.0667 25.6667H23C18.8667 25.6667 15 28.2 15 30.4667C15 31.2667 16.6 31.8 18.4667 32.0667C19.6667 29.8 22.0667 28.0667 24.8667 26.8667L24.0667 25.6667ZM31 27C33.9333 27 36.3333 24.6 36.3333 21.6667C36.3333 18.7333 33.9333 16.3333 31 16.3333C28.0667 16.3333 25.6667 18.7333 25.6667 21.6667C25.6667 24.6 28.0667 27 31 27ZM31 28.3333C25.5333 28.3333 20.3333 31.8 20.3333 35C20.3333 37.6667 31 37.6667 31 37.6667C31 37.6667 41.6667 37.6667 41.6667 35C41.6667 31.8 36.4667 28.3333 31 28.3333ZM38.6 24.3333H39C41.2667 24.3333 43 22.6 43 20.3333C43 18.0667 41.2667 16.3333 39 16.3333C38.3333 16.3333 37.8 16.4667 37.2667 16.7333C38.3333 18.0667 39 19.8 39 21.6667C39 22.6 38.8667 23.5333 38.6 24.3333ZM23 24.3333H23.4C23.1333 23.5333 23 22.6 23 21.6667C23 19.8 23.6667 18.0667 24.7333 16.7333C24.2 16.4667 23.6667 16.3333 23 16.3333C20.7333 16.3333 19 18.0667 19 20.3333C19 22.6 20.7333 24.3333 23 24.3333Z" fill="white"/>
<defs>
<filter id="filter0_d" x="0" y="0" width="62" height="62" filterUnits="userSpaceOnUse" color-interpolation-filters="sRGB">
<feFlood flood-opacity="0" result="BackgroundImageFix"/>
<feColorMatrix in="SourceAlpha" type="matrix" values="0 0 0 0 0 0 0 0 0 0 0 0 0 0 0 0 0 0 127 0"/>
<feOffset dy="4"/>
<feGaussianBlur stdDeviation="2"/>
<feColorMatrix type="matrix" values="0 0 0 0 0 0 0 0 0 0 0 0 0 0 0 0 0 0 0.25 0"/>
<feBlend mode="normal" in2="BackgroundImageFix" result="effect1_dropShadow"/>
<feBlend mode="normal" in="SourceGraphic" in2="effect1_dropShadow" result="shape"/>
</filter>
</defs>
</svg>
