<svg width="380" height="263" viewBox="0 0 380 263" fill="none" xmlns="http://www.w3.org/2000/svg">
<g clip-path="url(#clip0)">
<path d="M242.034 111.671C249.435 111.901 256.811 112.411 264.153 114.017C262.801 115.776 261.189 116.158 259.196 116.031C253.319 115.664 247.441 115.463 241.564 115.208C240.869 115.174 240.168 115.208 239.458 115.208C239.394 116.242 240.158 116.589 240.604 117.114C241.755 118.481 242.73 119.818 241.265 121.582C241.003 121.903 240.875 122.314 240.908 122.728C241.476 125.623 239.571 125.962 237.45 126.28C234.31 126.77 231.186 127.353 228.061 127.921C225.445 128.411 224.187 127.015 224.97 124.438C225.234 123.778 225.554 123.142 225.925 122.537C223.844 122.576 223.844 122.576 223.814 125.099C219.989 123.252 218.882 119.377 216.899 116.207C216.478 115.526 216.654 114.292 215.199 114.772C214.073 115.149 213.421 115.688 213.407 117.011C213.407 119.661 214.876 121.42 216.703 123.002C216.938 123.203 217.149 123.424 217.506 123.762L215.855 124.438C213.603 124.497 212.128 123.326 210.958 120.656C210.541 119.676 210.61 118.285 209.038 118.206C208.705 118.206 208.293 118.304 208.22 118.608C207.926 119.833 209.077 120.401 209.518 121.302C210.194 122.684 211.967 123.443 211.82 125.3C209.023 126.417 207.706 124.619 206.432 122.63C206.016 121.988 205.717 120.857 204.414 121.734C202.979 122.713 204.307 123.247 204.679 123.816C205.297 124.678 205.994 125.482 206.76 126.216C207.25 126.706 207.686 127.196 207.02 127.823C206.53 128.254 206.731 129.023 205.433 129.072C202.553 129.17 199.752 130.238 196.828 130.542C195.131 130.699 193.435 130.232 192.057 129.229C191.396 128.793 192.273 127.921 191.631 127.196C190.622 126.045 189.603 124.747 189.148 123.301C188.232 120.426 186.772 120.915 184.828 122.321C186.371 124.002 187.767 125.751 188.58 127.931C189.001 129.028 189.045 129.616 187.698 129.734C184.446 130.018 182.619 131.983 181.556 134.912C181.326 135.549 181.243 136.441 180.361 136.612C177.375 137.242 174.357 137.712 171.32 138.018C173.313 137.249 174.665 135.75 176.105 134.388C176.531 133.981 177.462 133.741 177.021 132.918C176.712 132.33 175.978 132.223 175.302 132.174C172.672 131.987 170.091 132.448 167.509 132.81C165.095 133.144 162.705 133.629 160.03 134.099C160.594 132.776 161.877 132.752 162.651 132.105C163.224 131.615 163.831 131.096 163.376 130.263C162.92 129.43 162.279 129.881 161.671 130.111C155.975 132.276 150.235 134.354 144.598 136.666C143.358 137.156 142.731 136.862 141.698 135.603C141.811 138.229 142.364 140.306 141.056 142.305C139.959 143.99 137.51 145.411 135.669 144.436C131.795 142.369 127.832 142.423 123.792 143.481C121.872 143.971 121.681 143.099 121.921 141.639C122.205 139.87 122.337 138.043 122.9 136.362C123.39 134.893 122.959 134.158 121.671 133.785C118.771 132.953 116.538 130.469 113.046 130.846C111.768 130.988 110.338 129.175 108.638 130.542C108.3 130.817 107.458 130.322 107.565 129.891C108.055 127.813 106.439 127.975 105.332 127.657C101.296 126.5 97.2163 125.849 93.014 126.608C91.9414 126.804 90.5651 126.966 90.281 125.741C89.997 124.516 91.4222 124.159 92.3675 123.821C95.4776 122.718 98.6465 123.306 101.928 123.659C100.493 121.881 98.4995 121.778 96.6139 121.44C95.1739 121.18 93.6752 121.082 92.2451 120.886C91.5888 120.798 90.8345 120.607 90.7757 119.862C90.6876 119.034 91.3439 118.579 92.0932 118.343C94.307 117.662 96.5012 118.206 98.6122 118.686C101.115 119.158 103.416 120.38 105.21 122.189C105.606 122.606 105.871 122.993 106.61 122.557C112.488 119.127 119.1 117.991 125.545 116.281C128.219 115.575 130.864 114.767 133.524 114.003C133.847 113.679 134.213 113.401 134.611 113.175C135.798 112.983 136.923 112.517 137.897 111.813C139.308 110.784 139.328 110.701 137.78 109.295C137.241 112.675 137.241 112.675 134.508 112.945C134.126 112.822 133.935 112.484 133.636 112.004C133.597 111.886 133.499 112.146 133.548 112.185C134.077 112.602 133.974 113.082 133.548 113.542C132.358 113.797 131.76 112.949 131.153 112.195C126.868 106.85 121.358 102.926 116.019 98.7371C114.697 97.6935 113.408 97.7572 111.9 98.0806C98.8277 100.829 89.326 108.937 80.9997 118.735C77.0178 123.419 73.6824 128.534 72.6 134.775C72.2715 136.463 72.3623 138.206 72.8645 139.851C73.4424 141.644 74.3338 143.192 73.3543 145.293C72.6441 146.851 74.4416 147.405 75.666 147.797C78.6341 148.747 81.6365 149.615 84.6045 150.736C81.994 151.853 79.4227 152.779 77.0815 154.21C76.435 154.612 75.8032 154.362 75.2154 154.117C74.0106 153.627 72.8253 153.083 71.6548 152.51C66.6786 150.06 66.3504 149.325 67.1733 143.75C67.7357 139.877 68.8404 136.102 70.4548 132.536C75.5779 121.268 82.4593 111.142 90.2468 101.534C94.6891 96.0523 100.346 92.765 106.899 91.0993C114.045 89.2817 119.634 85.7495 123.655 79.5031C125.922 75.9855 129.248 73.3988 132.622 70.9149C133.328 70.3752 134.134 69.9829 134.994 69.7616C135.854 69.5402 136.75 69.4943 137.628 69.6264C141.585 70.0625 145.582 70.0869 149.843 71.1354C148.927 69.8273 147.551 70.0576 146.762 69.1267C148.844 67.025 149.574 64.6195 147.776 61.587C153.894 62.4492 159.281 60.7051 164.625 58.6965C167.882 57.4766 169.855 58.2066 171.579 61.2146C173.303 64.2227 175.39 66.8878 178.505 68.5633C179.514 68.7495 180.298 69.4354 181.238 69.7832C181.938 70.1773 182.757 70.306 183.545 70.1457C186.642 68.8361 189.86 67.8367 193.154 67.1622C189.875 67.7763 186.673 68.7455 183.604 70.0527C183.267 70.1683 182.91 70.2133 182.555 70.1846C182.2 70.1559 181.855 70.0543 181.542 69.8861C180.645 69.3717 179.485 69.1953 179.093 68.0048C176.477 65.6875 173.759 63.4584 172.236 59.7988C173.857 59.8282 175.214 59.4215 176.032 58.0841C176.766 56.806 177.157 55.3596 177.168 53.8855C177.329 49.9221 176.531 46.1008 175.346 42.3628C174.91 40.9763 175.121 40.3247 176.595 39.9132C178.4 39.3836 180.121 38.6018 181.708 37.591L168.851 40.1974C168.195 40.8049 167.314 40.7412 166.53 40.9714C165.846 41.0334 165.17 41.1547 164.507 41.334C165.335 41.0792 166.211 41.1184 167.039 40.844C167.867 40.5697 168.665 40.7608 169.488 40.6334C173.495 48.1193 171.712 53.6063 164.101 57.2414C159.997 59.275 155.454 60.2613 150.877 60.1123C145.979 59.9115 141.115 59.544 136.232 59.3481C134.968 59.2942 134.405 58.8581 134.082 57.6236C132.151 50.0485 130.709 42.3574 129.762 34.5977C129.307 30.9919 130.154 27.44 131.584 24.1135C136.869 11.8216 147.218 5.46743 159.051 0.896541C162.808 1.22968 166.569 1.08271 170.316 1.1317C171.256 1.82248 172.348 1.56282 173.387 1.62161C174.092 1.89596 174.783 2.28299 175.561 1.98415C175.899 1.89106 175.414 1.62161 175.561 1.91556C175.63 2.04294 175.561 2.05763 175.41 2.09193C174.646 2.2438 174.048 1.73919 173.357 1.60202C172.451 1.49913 171.486 1.86657 170.644 1.26887C168.195 0.930835 165.707 1.23458 163.243 1.08761C162.651 1.05331 161.774 1.57752 161.524 0.460519C180.268 -2.10663 194.261 5.69769 205.115 20.4147C205.712 21.2279 206.035 21.8844 205.085 22.6732C203.969 23.5893 203.841 25.1227 202.871 26.2936C198.37 20.4784 192.934 23.4472 187.664 24.7406C186.165 25.2305 184.813 26.2103 183.138 26.1663C182.159 26.0879 181.365 26.6072 180.498 26.8962C179.939 27.1849 179.353 27.421 178.75 27.6017C177.885 27.6552 177.045 27.9156 176.301 28.3611C175.6 28.9407 174.753 29.3139 173.852 29.4389C172.808 29.672 171.817 30.1009 170.933 30.7028C172.402 30.5755 173.504 30.1639 174.66 30.1198C175.875 29.8014 177.143 29.7916 178.338 29.385C178.762 29.1786 179.224 29.0618 179.695 29.042C181.321 29.1841 182.913 28.5227 184.544 28.8657C187.081 28.1651 188.281 29.2086 188.364 31.7611C188.392 32.2458 188.459 32.7275 188.565 33.2014C189.163 36.2389 189.167 36.2389 186.043 36.6896C185.279 37.2236 185.298 37.9193 185.636 38.6835C187.36 44.2538 186.439 44.876 194.452 45.2435C197.44 45.3806 200.398 45.9538 203.4 45.8167C203.73 45.778 204.064 45.8134 204.379 45.9201C204.693 46.0269 204.98 46.2024 205.217 46.4339C205.415 47.2625 205.397 48.1279 205.164 48.9472C203.964 54.8262 203.484 60.8717 200.873 66.6674C203.523 67.2944 206.398 67.7795 209.028 69.0434C209.219 69.1147 209.423 69.1446 209.627 69.1311C209.83 69.1176 210.028 69.061 210.208 68.965C214.685 66.0795 219.255 67.897 223.721 68.8181C229.315 69.9743 234.58 72.2475 239.884 74.3247C240.535 74.6181 241.243 74.7616 241.957 74.7446C242.671 74.7277 243.372 74.5507 244.008 74.2267C260.595 66.6723 277.2 59.1603 293.823 51.6907C294.543 51.3674 295.293 51.0685 295.988 50.7599C296.135 51.0685 296.292 51.2498 296.253 51.3478C294.196 56.0215 293.446 60.8521 293.172 66.0011C293.035 68.4996 294 69.7293 294.862 71.4293C295.009 71.7184 295.195 71.9878 295.322 72.2867C299.441 81.8694 302.669 83.7261 313.214 88.3754C312.655 89.3944 311.544 89.267 310.691 89.5169C286.81 96.5978 262.925 103.666 239.037 110.72C238.653 110.86 238.278 111.024 237.915 111.21C236.196 112.381 234.766 111.362 233.448 110.47C232.344 109.647 230.996 109.216 229.618 109.246C226.787 109.309 224.97 107.59 223.555 105.326C221.899 102.686 221.596 99.663 221.16 96.6794C221.086 96.1895 221.116 95.6996 221.018 95.2097C220.92 94.7198 220.685 94.2299 220.131 94.176C219.46 94.0927 219.098 94.563 218.848 95.1068C218.574 95.7089 218.515 96.3869 218.682 97.0273C220.117 102.784 223.379 107.036 228.35 110.431C231.288 112.435 234.144 110.985 236.96 111.685C238.626 112.109 240.371 112.104 242.034 111.671Z" fill="#3A3A3A"/>
<path d="M135.463 224.38C136.257 226.648 137.912 227.256 140.126 226.83C147.463 225.321 154.8 223.812 162.136 222.303C163.851 221.95 164.909 219.741 166.094 219.853C167.441 219.971 168.734 220.931 170.399 220.564C176.365 219.251 182.369 218.114 188.335 216.831C189.447 216.595 190.025 216.566 190.583 217.81C191.264 219.314 192.777 219.672 194.354 219.368C196.828 218.878 199.306 218.389 201.76 217.806C203.42 217.418 204.953 216.527 205.457 214.9C206.011 213.142 207.226 212.877 208.675 212.603C211.075 212.152 213.465 211.623 215.855 211.133C219.166 210.418 220.753 208.512 220.783 205.151C220.817 202.946 220.827 200.742 220.827 198.542C220.827 197.533 220.729 196.406 222.188 196.494C223.648 196.582 222.889 197.739 222.908 198.395C222.962 200.516 222.845 202.638 222.864 204.764C222.894 207.909 224.265 209.257 227.272 208.683C230.931 207.988 234.57 207.101 238.204 206.263C241.716 205.455 245.34 204.901 248.925 204.264C251.164 203.867 252.907 202.736 253.696 200.551C254.186 199.194 255.106 198.684 256.39 198.478C257.594 198.282 258.789 197.989 259.994 197.812C261.101 197.65 262.218 196.69 263.286 198.136C264.353 199.581 264.853 200.815 263.736 202.765C251.864 223.513 235.383 238.989 212.383 246.304C186.101 254.662 161.892 249.145 139.631 233.566C137.765 232.258 136.066 230.71 134.244 229.363C133.127 228.544 132.681 227.893 133.999 226.835C134.335 226.533 134.609 226.168 134.804 225.76C134.999 225.352 135.111 224.91 135.135 224.459C135.243 224.086 135.346 224.081 135.463 224.38Z" fill="#3A3A3A"/>
<path d="M202.71 175.242C201.995 173.282 200.491 172.763 198.605 173.121C195.667 173.684 192.689 174.262 189.75 174.928C186.699 175.624 185.078 177.701 185.043 180.891C184.99 186.848 184.97 192.805 184.936 198.763C184.936 199.253 184.906 199.742 184.936 200.232C184.965 200.869 184.808 201.457 184.108 201.482C183.128 201.521 183.51 200.683 183.51 200.223C183.51 197.038 183.51 193.854 183.54 190.674C183.54 187.406 183.608 184.144 183.589 180.876C183.589 177.936 182.183 176.687 179.239 177.192C176.115 177.726 173.014 178.441 169.934 179.122C168.322 179.475 167.485 181.023 166.285 181.738C165.384 182.272 163.944 180.303 162.264 180.66C154.785 182.277 147.277 183.752 139.807 185.412C137.78 185.863 136.443 187.333 135.977 189.449C135.87 189.724 135.742 189.733 135.595 189.484C134.645 187.137 132.838 186.745 130.59 187.215C121.428 189.139 112.259 191.053 103.084 192.957C99.3663 193.731 97.848 195.583 97.8186 199.414C97.8186 200.85 97.8186 202.285 97.8186 203.931C89.1593 195.186 77.2479 195.015 66.7079 203.255C64.6285 204.921 62.7469 206.819 61.0999 208.914C59.8607 206.435 58.7098 204.142 57.5784 201.844C56.109 198.846 54.6397 195.843 53.1704 192.844C52.7687 192.026 52.1908 191.34 53.6601 190.831C57.9212 189.361 61.335 186.637 64.1953 182.733C65.8507 187.789 68.8482 191.291 73.6774 193.021C78.394 194.687 83.1399 194.491 87.881 193.055C95.185 190.966 101.368 186.074 105.082 179.445C105.312 179.049 105.542 178.652 106.062 177.736C106.062 180.298 106.022 182.287 106.062 184.276C106.125 187.024 107.663 188.323 110.357 187.789C115.872 186.698 121.375 185.555 126.867 184.359C129.611 183.819 132.204 182.686 134.465 181.04C136.725 179.393 138.599 177.272 139.954 174.825C140.601 175.315 140.317 175.898 140.322 176.378C140.366 180.17 141.791 181.278 145.592 180.499C156.264 178.274 166.936 176.016 177.628 173.865C180.435 173.302 182.34 171.95 183.398 169.24C184.754 165.772 186.287 162.382 187.948 158.462L192.263 166.972C193.732 169.912 194.57 170.299 197.675 169.647C206.569 167.795 215.454 165.875 224.368 164.116C230.945 162.823 236.191 159.658 239.81 153.94C239.946 153.748 240.1 153.569 240.271 153.406C240.325 153.357 240.423 153.353 240.501 153.323C240.77 160.265 241.123 160.535 248.176 159.158C250.013 158.8 251.859 158.457 253.681 158.026C256.806 157.282 258.388 155.293 258.442 152.108C258.481 149.82 258.486 147.537 258.471 145.249C258.471 144.294 258.471 143.349 259.789 143.456C260.979 143.554 260.499 144.539 260.509 145.147C260.553 147.351 260.464 149.556 260.509 151.76C260.538 154.803 262.076 156.17 264.995 155.68C268.041 155.136 271.073 154.479 274.08 153.754C275.049 153.568 275.944 153.11 276.662 152.433C277.379 151.757 277.889 150.889 278.131 149.933C278.67 149.575 278.792 150.134 279.061 150.359C279.958 152.02 281.461 152.167 283.068 151.868C285.468 151.421 287.859 150.931 290.243 150.398C291.414 150.134 292.202 150.286 292.726 151.555C293.216 152.706 292.991 153.098 291.771 153.279C287.871 153.811 284.202 155.436 281.187 157.968C277.798 160.809 275.667 164.336 275.569 168.907C275.501 172.126 276.906 173.317 280.134 172.89C284.209 172.322 284.101 172.322 284.052 176.32C284.052 177.873 283.171 178 282.127 178.216C279.747 178.706 277.23 178.813 275.27 180.954C273.419 177.481 271.627 174.12 269.839 170.759C268.771 168.751 267.713 166.732 266.645 164.719C263.599 158.977 263.418 158.938 257.158 160.54C254.866 161.127 253.593 162.617 252.687 164.65C248.915 173.121 245.115 181.576 241.035 190.694C240.971 189.332 240.898 188.602 240.903 187.877C240.942 181.758 241.006 175.629 241.045 169.525C241.045 165.811 239.639 164.625 236.069 165.365C233.434 165.904 230.803 166.428 228.178 166.997C224.843 167.722 223.28 169.608 223.246 172.969C223.222 174.683 223.246 176.398 223.202 178.108C223.173 178.995 223.628 180.293 222.031 180.259C220.435 180.224 221.209 178.96 221.169 178.24C221.086 176.535 221.223 174.811 221.169 173.106C221.101 170.25 219.769 168.961 216.992 169.402C213.7 169.892 210.434 170.646 207.196 171.43C206.36 171.641 205.591 172.063 204.964 172.656C204.337 173.248 203.873 173.992 203.616 174.816C203.356 175.066 203.258 175.585 202.71 175.242Z" fill="#3A3A3A"/>
<path d="M356.623 67.8725C349.844 67.2014 345.358 70.763 340.901 74.3443C337.277 77.2495 333.785 80.3212 329.666 82.565C320.36 87.6307 309.869 84.3385 303.32 76.8233C309.785 79.5766 315.996 81.2325 322.476 78.342C326.433 76.5685 329.465 73.727 332.134 70.2388C331.096 69.6803 330.332 70.0478 329.592 70.2045C328.068 70.5133 326.505 70.586 324.959 70.4201C320.982 70.0331 320.423 68.8328 322.613 65.6385C325.88 60.8815 330.493 57.9175 335.714 55.7864C339.094 54.4048 342.522 53.1507 346.367 51.676C343.056 50.1279 340.059 50.5345 337.11 51.1028C329.656 52.5383 323.215 56.1097 317.367 60.8325C315.482 62.3561 313.645 63.9385 311.456 65.7757C311.309 60.0388 313.361 55.2377 314.884 49.9613C307.763 51.7495 302.419 55.7227 297.742 60.8864C299.025 54.3509 301.978 48.8345 307.253 44.7193C313.082 40.1533 319.894 38.1446 327.099 37.1599C331.589 36.5857 336.132 36.5626 340.627 37.0913C336.454 38.2279 332.301 39.3792 328.657 41.8827C325.013 44.3861 322.118 47.4971 320.36 51.6172C320.85 52.1071 321.227 51.6172 321.535 51.3037C328.652 44.5576 337.355 43.519 346.587 44.1901C351.568 44.5576 356.442 45.5276 361.281 46.5613C368.402 48.0752 374.74 47.2423 379.829 40.9665C380.13 42.5757 379.903 44.2392 379.182 45.7089C375.999 53.3368 370.087 57.1483 361.986 57.7558C356.78 58.1429 351.534 57.2169 346.347 58.187C340.724 59.2792 335.487 61.8341 331.164 65.5944C334.015 65.0555 336.689 63.8798 339.554 63.4388C342.453 62.9196 345.426 62.9779 348.302 63.6103C351.211 64.3011 354.061 65.1584 356.623 67.8725Z" fill="#FFC81A"/>
<path d="M210.497 261.614C222.982 258.243 233.625 251.673 242.906 242.791C254.622 231.582 261.792 217.806 265.622 202.187C265.95 200.859 266.347 200.389 267.743 200.227C270.481 199.87 273.179 199.179 275.883 198.576C276.588 198.42 277.568 198.292 277.886 197.802C279.683 195.029 282.088 196.22 284.464 196.47C286.09 196.646 286.296 197.077 285.718 198.542C281.733 208.64 276.168 218.039 269.232 226.389C254.582 244.06 236.255 256.014 213.931 261.663C213.152 261.863 212.334 261.922 211.531 262.05C211.041 262.255 210.532 262.505 210.497 261.614Z" fill="#3A3A3A"/>
<path d="M103.735 168.466C103.676 181.439 90.7071 192.114 78.0855 189.582C72.3648 188.43 68.6817 184.389 68.0009 178.5C66.3895 164.572 79.9662 152.045 93.7045 154.788C100.096 156.062 103.77 161.069 103.735 168.466Z" fill="#FFC81A"/>
<path d="M170.159 216.429C170.159 205.651 170.159 195.113 170.13 184.585C170.13 183.414 170.619 183.002 171.628 182.811C173.553 182.448 175.493 182.145 177.373 181.625C178.921 181.199 179.284 181.601 179.259 183.174C179.137 190.361 179.181 197.543 179.058 204.73C179.029 206.42 179.435 206.949 181.071 206.293C181.699 206.121 182.337 205.986 182.981 205.891C185.004 205.347 187.879 205.817 188.859 204.235C189.838 202.653 189.241 200.129 189.265 198.013C189.329 192.301 189.393 186.583 189.368 180.866C189.368 179.578 189.696 178.946 191.033 178.75C192.976 178.517 194.898 178.128 196.779 177.589C198.552 177.03 198.63 177.765 198.6 179.181C198.458 186.529 198.414 193.878 198.272 201.227C198.243 202.618 198.356 203.456 200.07 202.819C201.48 202.295 201.902 202.956 201.838 204.367C201.72 206.895 201.686 209.433 201.764 211.961C201.809 213.328 201.275 213.876 199.991 213.999C199.183 214.106 198.382 214.27 197.596 214.489C195.755 214.94 193.84 215.763 194.32 212.363C194.526 210.932 193.188 211.652 192.547 211.784C185.063 213.308 177.574 214.881 170.159 216.429Z" fill="#FFC81A"/>
<path d="M133.832 161.372C137.564 163.709 138.519 166.213 137.305 170.622C135.904 175.732 132.451 178.862 127.406 180.082C122.268 181.322 117.043 182.199 111.885 183.36C110.524 183.668 110.386 183.218 110.416 182.086C110.509 171.974 110.592 161.862 110.607 151.755C110.607 150.575 111.097 150.212 112.076 150.011C116.94 149.032 121.788 147.939 126.667 147.072C130.178 146.43 133.71 148.091 135.321 150.854C137.177 154.029 136.727 157.35 133.832 161.372Z" fill="#FFC81A"/>
<path d="M356.456 116.286L340.181 134.594C339.854 135.064 339.463 135.486 339.02 135.848C338.114 136.411 336.983 136.906 336.023 136.475C335.229 136.122 335.685 135.005 335.69 134.217C335.739 124.668 335.861 115.11 335.846 105.566C335.846 103.964 336.238 103.225 337.884 103.034C339.579 102.807 341.256 102.455 342.899 101.98C344.52 101.53 345.206 101.745 345.147 103.7C345 108.168 345.098 112.646 345.098 117.643C346.641 115.923 347.915 114.507 349.183 113.082C353.346 108.379 357.513 103.675 361.682 98.9722C362.088 98.463 362.586 98.0357 363.152 97.7131C365.316 96.6696 366.056 97.1546 366.032 99.5111C365.938 109.138 365.787 118.77 365.806 128.416C365.806 130.194 365.272 130.866 363.583 131.052C361.808 131.298 360.052 131.665 358.327 132.149C356.765 132.566 356.402 132.061 356.437 130.508C356.52 125.942 356.456 121.391 356.456 116.286Z" fill="#FFC81A"/>
<path d="M102.07 230.553C102.07 222.538 102.07 214.636 102.07 206.729C102.07 204.117 102.192 201.506 102.114 198.89C102.08 197.655 102.54 197.161 103.686 196.93C112.297 195.167 120.904 193.37 129.507 191.541C130.756 191.277 131.212 191.502 131.192 192.918C131.062 202.866 130.988 212.818 130.972 222.773C130.972 224.243 130.507 224.801 129.081 224.948C127.656 225.095 126.373 225.497 125.016 225.767C121.779 226.408 121.779 226.403 121.798 222.989C121.837 216.38 121.798 209.761 121.965 203.167C122.009 201.251 121.416 200.977 119.731 201.428C117.532 202.011 115.284 202.408 113.036 202.809C111.606 203.054 111.077 203.667 111.077 205.21C111.131 212.387 110.984 219.564 111.033 226.766C111.033 228.295 110.543 228.931 109.074 229.167C106.723 229.563 104.352 230.097 102.07 230.553Z" fill="#FFC81A"/>
<path d="M245.232 138.812C245.232 133.913 245.296 129.014 245.193 124.115C245.164 122.645 245.683 122.106 247.035 121.9C248.969 121.629 250.886 121.243 252.775 120.744C254.142 120.362 254.489 120.69 254.43 122.052C254.308 124.903 254.372 127.76 254.24 130.611C254.176 132.046 254.607 132.507 256.037 132.174C258.486 131.605 260.964 131.086 263.447 130.65C264.78 130.42 265.103 129.724 265.088 128.465C265.049 125.614 265.206 122.758 265.176 119.906C265.176 118.662 265.406 117.996 266.822 117.814C268.75 117.509 270.661 117.103 272.547 116.599C273.708 116.33 274.316 116.428 274.296 117.937C274.169 127.965 274.12 137.994 274.09 148.022C274.09 149.218 273.747 149.742 272.498 149.923C270.569 150.232 268.658 150.644 266.773 151.158C265.357 151.52 264.735 151.319 264.814 149.61C264.98 146.357 264.868 143.089 264.946 139.811C264.975 138.567 264.78 138.067 263.34 138.435C260.822 139.086 258.256 139.566 255.689 139.998C254.465 140.208 254.097 140.772 254.117 141.957C254.161 145.215 254.014 148.478 254.117 151.755C254.161 153.225 253.75 153.965 252.231 154.181C250.294 154.432 248.376 154.815 246.491 155.327C245.022 155.748 244.87 155.195 244.88 153.95C244.929 148.894 244.88 143.843 244.88 138.763L245.232 138.812Z" fill="#FFC81A"/>
<path d="M216.708 173.503C216.708 176.932 216.767 180.2 216.708 183.453C216.673 184.957 216.806 185.711 218.667 185.172C221.023 184.527 223.418 184.036 225.837 183.703C227.199 183.492 227.566 182.88 227.547 181.596C227.493 178.657 227.615 175.717 227.547 172.778C227.547 171.568 227.904 171.029 229.148 170.872C230.85 170.686 232.531 170.34 234.168 169.838C236.196 169.177 236.774 169.583 236.73 171.822C236.519 181.454 236.465 191.086 236.461 200.727C236.461 202.236 236.03 202.961 234.541 203.093C232.131 203.304 229.285 205.239 227.586 203.926C226.464 203.054 227.346 199.64 227.253 197.366C227.174 195.431 228.198 192.825 226.915 191.747C225.632 190.669 223.251 192.119 221.361 192.477C216.531 193.374 216.536 193.408 216.487 198.327C216.487 200.37 216.355 202.412 216.463 204.45C216.551 206.175 216.198 207.17 214.195 207.312C212.41 207.491 210.649 207.857 208.94 208.404C207.471 208.84 207.314 208.228 207.329 206.993C207.436 196.956 207.508 186.917 207.544 176.873C207.544 175.766 207.853 175.291 208.959 175.095C211.511 174.625 214.034 174.051 216.708 173.503Z" fill="#FFC81A"/>
<path d="M0 206.591C0 200.223 0 193.942 0 187.666C0.024489 183.507 0.181218 179.338 0.151832 175.183C0.151832 173.787 0.519166 173.052 1.95422 172.895C2.93378 172.792 3.87415 172.538 4.83412 172.351C9.24213 171.504 9.24213 171.504 9.19805 176.094C9.19805 178.622 9.19805 181.15 9.19805 183.678C13.6355 183.619 17.0345 180.925 17.9259 176.746C18.1399 175.705 18.2807 174.651 18.3471 173.591C18.6557 169.456 18.641 169.456 22.7551 168.579C27.8341 167.496 27.7509 167.491 27.457 172.699C27.1827 177.642 25.5861 181.954 21.8539 185.29C20.9038 186.142 20.8744 186.686 21.6433 187.661C24.1706 190.958 26.6146 194.324 29.0684 197.685C30.6945 199.909 30.5377 200.321 27.9615 200.786C25.3853 201.251 22.3682 203.03 20.1887 201.952C18.1463 200.948 17.1031 197.91 15.6289 195.764C14.9437 194.853 14.314 193.9 13.7432 192.913C13.033 191.546 12.1857 191.252 10.6233 191.6C8.82092 192.007 9.10989 193.148 9.1001 194.324C9.07071 197.263 8.98255 200.203 9.04132 203.142C9.06581 204.362 8.62501 204.906 7.45934 205.102C4.99575 205.558 2.53216 206.087 0 206.591Z" fill="#FFC81A"/>
<path d="M60.5759 222.489C60.6836 209.712 74.0595 199.022 86.5342 201.79C90.8051 202.741 93.5233 205.406 94.7135 209.629C94.9976 210.643 94.8017 211.138 93.734 211.314C92.3675 211.535 91.001 211.804 89.6639 212.137C87.7635 212.627 86.2354 212.955 84.7269 210.854C83.1057 208.615 80.3189 209.114 77.9043 209.732C72.3306 211.152 68.7356 217.247 70.009 222.91C70.7829 226.34 73.364 228.432 76.8904 228.241C80.8087 228.03 83.9531 226.32 85.6428 222.612C86.1767 221.436 86.8232 220.872 88.0917 220.72C89.7888 220.51 91.465 220.156 93.1021 219.662C94.8164 219.172 95.1053 219.633 94.6547 221.24C92.4948 229 87.0925 233.341 79.6724 235.555C77.7153 236.142 75.6756 236.407 73.6334 236.339C65.3414 236.025 60.5024 230.891 60.5759 222.489Z" fill="#FFC81A"/>
<path d="M35.5334 182.649C35.5334 177.838 35.6265 173.018 35.4845 168.207C35.4257 166.306 36.1114 165.757 37.8844 165.434C42.0573 164.728 46.2106 163.837 50.3346 162.891C60.8648 160.486 64.93 168.608 62.7848 176.29C61.1097 182.311 57.025 185.966 51.0301 187.514C50.3982 187.676 49.7566 187.803 49.1199 187.936C44.2564 188.964 44.085 188.969 44.2221 194.006C44.3103 196.72 43.5658 198.14 40.7594 198.175C40.3526 198.206 39.9494 198.273 39.5545 198.376C35.1465 199.238 35.1808 199.238 35.1955 194.652C35.1955 190.65 35.1955 186.652 35.1955 182.654L35.5334 182.649Z" fill="#FFC81A"/>
<path d="M292.178 112.611C292.178 115.468 292.232 118.147 292.178 120.827C292.144 122.121 292.423 122.571 293.819 122.214C295.921 121.627 298.066 121.207 300.235 120.96C308.007 120.264 312.587 125.785 310.549 133.33C308.992 139.116 305.113 142.751 299.451 144.245C294.504 145.548 289.43 146.352 284.43 147.454C283.225 147.723 282.906 147.508 282.926 146.249C283.078 136.142 283.166 126.04 283.259 115.938C283.259 115.051 283.357 114.341 284.434 114.145C287.011 113.66 289.513 113.17 292.178 112.611Z" fill="#FFC81A"/>
<path d="M210.483 146.136C210.483 141.32 210.531 136.504 210.453 131.694C210.429 130.17 210.664 129.278 212.456 129.141C214.162 129.006 215.843 128.657 217.462 128.102C219.343 127.456 219.475 128.308 219.421 129.793C219.328 131.914 219.421 134.04 219.333 136.162C219.274 137.416 219.651 137.71 220.866 137.377C222.59 136.887 224.353 136.563 226.111 136.235C234.927 134.604 240.413 140.958 237.509 149.492C235.711 154.783 231.901 158.056 226.616 159.423C221.811 160.667 216.899 161.48 212.055 162.563C210.414 162.925 210.149 162.308 210.179 160.824C210.262 155.925 210.208 151.025 210.208 146.126L210.483 146.136Z" fill="#FFC81A"/>
<path d="M140.077 206.082C140.077 201.104 140.111 196.127 140.077 191.149C140.077 189.876 140.434 189.278 141.767 189.013C147.913 187.803 154.045 186.5 160.158 185.187C161.441 184.913 161.99 185.025 162.004 186.608C162.068 192.355 162.132 192.355 156.435 193.589C154.525 194.001 152.615 194.412 150.71 194.838C149.059 195.206 148.31 196.842 148.908 198.988C149.397 200.688 150.529 199.429 151.258 199.316C153.835 198.919 156.391 198.4 158.919 197.783C160.354 197.435 160.878 197.553 160.878 199.253C160.848 204.999 160.922 204.999 155.343 206.111C153.751 206.43 152.169 206.871 150.558 207.067C149.255 207.223 148.795 207.713 148.765 209.07C148.668 213.308 148.609 213.318 152.747 212.5C155.377 211.971 158.027 211.486 160.628 210.824C161.926 210.496 162.097 210.893 162.166 212.074C162.406 217.992 162.44 218.006 156.744 219.231C151.885 220.275 147.002 221.191 142.168 222.318C140.131 222.808 139.788 222.176 139.842 220.275C139.974 215.547 139.886 210.814 139.886 206.067L140.077 206.082Z" fill="#FFC81A"/>
<path d="M153.889 153.632C157.346 152.921 160.623 152.314 163.87 151.55C165.139 151.251 165.565 151.373 165.604 152.819C165.771 158.698 165.82 158.673 160.114 159.932C159.242 160.123 158.365 160.3 157.488 160.491C153.409 161.358 153.467 161.358 153.604 165.605C153.644 166.884 154.011 167.075 155.177 166.825C158.424 166.076 161.705 165.453 164.972 164.714C166.29 164.41 167.01 164.336 167.005 166.183C167.005 171.822 167.093 171.827 161.554 173.008C156.617 174.056 151.67 175.056 146.748 176.168C145.141 176.535 144.646 176.202 144.671 174.468C144.813 164.67 144.862 154.871 144.882 145.102C144.882 143.76 145.136 143.143 146.645 142.849C152.801 141.683 158.928 140.36 165.056 139.028C166.368 138.743 166.858 138.871 166.868 140.429C166.917 146.308 166.98 146.308 161.274 147.425C160.079 147.665 158.889 147.939 157.699 148.199C153.428 149.11 153.433 149.11 153.889 153.632Z" fill="#FFC81A"/>
<path d="M268.272 196.004C267.434 196.279 267.062 195.446 266.802 194.691C266.117 192.693 264.946 192.31 262.918 192.889C259.937 193.72 256.906 194.36 253.843 194.804C252.241 195.049 251.276 195.715 250.904 197.21C250.346 199.414 248.945 200.379 246.711 200.517C245.507 200.595 244.331 201.085 243.121 201.227C242.441 201.31 241.628 202.011 241.074 201.33C240.521 200.649 241.192 199.929 241.476 199.292C243.214 195.338 244.997 191.414 246.765 187.475C249.895 180.489 253.108 173.542 256.071 166.497C256.874 164.606 258.246 164.327 259.847 164.047C261.532 163.768 261.552 165.306 262.027 166.198C266.539 174.589 271.014 183.002 275.452 191.438C276.828 194.04 276.696 194.285 273.811 194.868L268.272 196.004Z" fill="#FFC81A"/>
<path d="M288.357 177.598C288.409 176.565 288.409 175.53 288.357 174.497C288.088 172.097 288.357 170.132 291.414 170.064C291.495 170.048 291.573 170.018 291.644 169.975C292.302 169.742 292.878 169.323 293.301 168.767C293.725 168.212 293.978 167.546 294.029 166.85C294.107 165.909 293.75 164.998 292.8 164.665C291.399 164.175 289.68 164.302 288.931 165.404C287.011 168.241 283.92 167.57 281.354 168.432C280.095 168.853 279.811 168.231 279.968 167.065C280.126 165.849 280.524 164.676 281.139 163.615C281.753 162.554 282.572 161.625 283.548 160.883C285.221 159.505 287.149 158.471 289.223 157.841C291.297 157.212 293.474 156.998 295.631 157.213C301.582 157.762 304.334 163.998 300.93 169.383C299.951 170.916 299.461 171.553 301.503 172.64C304.226 174.11 305.005 177.995 303.712 181.905C301.679 188.058 296.664 190.527 290.895 191.919C288.671 192.453 286.408 192.678 284.126 192.012C283.097 191.752 282.14 191.261 281.33 190.576C280.519 189.891 279.876 189.03 279.448 188.058C277.67 184.114 278.185 183.061 282.338 182.223C283.136 182.061 283.935 181.915 284.728 181.733C285.708 181.503 286.198 181.616 286.633 182.791C287.432 185.011 289.572 185.486 292.163 184.305C294.568 183.203 295.885 180.665 294.994 178.799C294.766 178.267 294.374 177.821 293.876 177.528C293.377 177.234 292.797 177.108 292.222 177.167C290.997 177.231 289.788 177.432 288.357 177.598Z" fill="#FFC81A"/>
<path d="M188.075 148.057C185.979 152.956 184.039 157.517 182.105 162.063C181.91 162.421 181.754 162.799 181.64 163.19C180.66 168.285 177.437 170.676 172.368 170.808C171.741 170.808 170.874 171.146 170.536 170.852C169.9 170.294 170.477 169.51 170.766 168.853C173.287 163.21 175.811 157.563 178.338 151.912C180.733 146.567 183.236 141.257 185.484 135.853C186.239 134.045 187.59 133.893 189.114 133.604C190.838 133.286 190.872 134.8 191.337 135.677C195.882 144.142 200.364 152.637 204.855 161.152C206.158 163.602 206.099 163.724 203.484 164.322C196.93 165.791 196.93 165.791 193.894 159.736C191.993 155.959 190.122 152.201 188.075 148.057Z" fill="#FFC81A"/>
<path d="M317.759 123.649C317.759 118.75 317.808 113.851 317.725 108.952C317.7 107.629 318.121 107.061 319.38 106.855C321.711 106.478 324.728 104.934 326.154 105.875C327.741 106.914 326.599 110.235 326.604 112.558C326.604 120.553 326.506 128.548 326.516 136.563C326.516 138.062 326.325 139.013 324.523 139.155C322.221 139.361 319.356 141.188 317.872 139.998C316.75 139.091 317.607 135.726 317.592 133.452C317.592 132.394 317.622 131.331 317.622 130.273C317.622 128.068 317.622 125.864 317.622 123.664L317.759 123.649Z" fill="#FFC81A"/>
<path d="M152.679 258.106C137.687 252.986 124.629 244.878 114.084 232.949C113.732 232.547 112.816 232.165 113.629 231.415C115.784 229.426 115.328 226.81 115.382 224.316C115.382 223.111 115.382 221.906 115.382 220.206C116.984 222.225 117.527 223.993 117.449 226.085C117.317 229.559 117.645 229.911 121.024 230.651C121.293 230.718 121.545 230.84 121.765 231.008C121.985 231.177 122.168 231.389 122.303 231.631C130.536 242.747 140.591 251.717 153.159 257.733C153.169 258.106 153.144 258.385 152.679 258.106Z" fill="#3A3A3A"/>
<path d="M350.001 98.497C346.377 98.5411 344.124 96.6843 343.747 93.3578C343.644 92.4466 343.717 91.7362 344.81 91.55C346.514 91.2659 348.14 89.6198 349.864 91.991C350.795 93.2745 354.517 92.2065 355.34 90.3547C356.466 87.8169 358.616 88.7526 360.36 88.4881C361.374 88.3313 360.933 89.4189 360.879 89.9578C360.424 94.7786 355.766 98.4186 350.001 98.497Z" fill="#FFC81A"/>
<path d="M109.544 146.386C108.829 147.033 107.815 147.547 107.453 148.346C106.346 150.795 104.352 150.859 102.187 150.722C96.9664 150.393 91.9266 149.027 86.8231 148.027C85.3244 147.738 84.7024 146.068 83.1595 145.739C84.4966 145.093 85.6574 145.901 86.8574 146.028C89.0418 146.249 91.0646 146.479 93.3225 145.739C95.0171 145.176 97.1525 145.891 99.0872 146.097C102.569 146.545 106.086 146.653 109.588 146.42L109.544 146.386Z" fill="#3A3A3A"/>
<path d="M242.034 111.671C238.292 112.582 234.369 111.509 230.652 112.709C230.015 112.92 229.858 112.308 229.599 111.93C229.226 111.387 228.864 110.715 228.198 110.647C224.187 110.23 223.3 106.394 221.047 104.082C219.088 102.073 218.167 99.3838 217.996 96.5227C217.844 94.0241 219.029 92.7993 220.758 93.3529C221.948 93.7351 221.679 94.514 221.738 95.2489C221.963 98.3451 222.272 101.422 223.667 104.258C225.382 107.742 227.223 108.731 231.176 108.207C232.028 108.09 232.278 108.736 232.758 109.104C234.286 110.279 235.696 111.764 237.92 111.186C239.198 112.077 240.677 111.372 242.034 111.671Z" fill="#FBFBFC"/>
<path d="M85.0305 217.164C83.5024 218.413 82.4885 219.579 81.9204 221.191C81.2641 223.048 78.5213 224.375 76.7336 223.871C74.4807 223.234 74.1672 221.421 74.2113 219.432C74.2799 216.36 75.7884 214.396 78.5115 213.725C80.0935 213.333 81.411 213.504 82.1212 215.219C82.6061 216.38 83.571 216.909 85.0305 217.164Z" fill="#3A3A3A"/>
<path d="M177.883 143.231L170.046 160.603C170.046 156.655 169.733 152.877 169.855 149.11C169.997 145.014 171.496 143.99 177.883 143.231Z" fill="#3A3A3A"/>
<path d="M205.541 152.397L198.601 139.321C200.829 138.89 202.862 138.523 204.875 138.092C206.236 137.803 206.075 138.689 206.075 139.513C206.075 143.758 206.075 147.993 206.075 152.216L205.541 152.397Z" fill="#3A3A3A"/>
<path d="M193.394 26.5043C194.217 30.8106 195.04 35.1121 195.926 39.7319C192.89 38.3014 190.265 37.0815 190.118 33.417C190.017 31.9526 189.705 30.5104 189.192 29.1351C188.619 27.4694 189.192 26.6856 190.774 26.323C192.88 25.6861 192.88 25.6861 193.394 26.5043Z" fill="#3A3A3A"/>
<path d="M184.926 38.1348C184.059 36.6651 185.039 36.6651 186.057 36.6651C190.372 38.1348 194.256 40.6775 198.65 41.9806C199.472 41.8043 200.222 42.4167 201.049 42.1913C201.725 42.2991 202.343 42.2991 202.46 41.4025C202.522 40.424 202.534 39.4428 202.494 38.4631C202.494 38.0123 202.416 37.5616 202.431 37.1109C202.519 36.7386 202.71 36.4936 203.136 36.5524C204.708 38.4092 204.821 40.7314 205.164 42.9801C205.36 43.8962 205.653 44.8466 204.512 45.4002C198.385 45.2484 192.758 43.5582 187.781 39.8936C186.88 39.242 186.057 38.4288 184.926 38.1348Z" fill="#3A3A3A"/>
<path d="M173.685 28.851C174.665 28.9784 175.37 28.4443 176.041 27.8369C176.935 27.7942 177.818 27.6294 178.667 27.3469L180.057 26.3671C181.199 27.0873 182.017 25.6616 183.06 25.8772C184.696 25.9409 185.832 23.9616 187.644 24.7553C187.071 26.5778 185.298 27.2049 184.069 28.4052C182.608 29.0646 181.013 29.3733 179.411 29.3066L178.52 29.7965C177.562 29.7635 176.604 29.8641 175.674 30.0954C174.876 30.2717 174.072 30.4187 173.553 29.532C173.524 29.4157 173.52 29.2944 173.543 29.1767C173.566 29.0589 173.615 28.9477 173.685 28.851Z" fill="#3A3A3A"/>
<path d="M211.844 125.3C210.468 123.507 209.101 121.709 207.706 119.936C207.294 119.406 206.726 118.77 207.103 118.221C207.813 117.241 209.062 117.79 210.071 117.555C210.987 117.334 210.918 117.991 210.982 118.534C211.212 120.592 212.51 122.047 213.744 123.576C213.991 123.889 214.316 124.131 214.688 124.276C215.059 124.42 215.462 124.463 215.855 124.399C214.587 124.949 213.226 125.255 211.844 125.3Z" fill="#F7F7F8"/>
<path d="M193.394 26.5043C192.591 25.402 191.621 26.7835 190.774 26.3279C191.947 25.3841 193.341 24.7536 194.824 24.4956C196.132 24.7504 197.518 24.0988 198.782 24.8386C199.512 25.7253 198.037 26.4798 198.635 27.3567L200.663 38.6247L200.031 38.757C199.012 37.1158 199.051 35.1464 198.561 33.3337C198.043 31.6181 197.655 29.8657 197.401 28.0916C197.2 26.1075 196.421 25.5196 194.58 26.2348C194.192 26.3547 193.796 26.4448 193.394 26.5043Z" fill="#3A3A3A"/>
<path d="M115.475 218.237C115.475 214.719 115.505 211.378 115.475 208.032C115.475 206.993 115.671 206.165 116.871 206.253C118.071 206.342 117.518 207.38 117.527 207.978C117.571 210.589 117.444 213.2 117.527 215.816C117.547 217.213 116.964 217.913 115.475 218.237Z" fill="#3A3A3A"/>
<path d="M240.824 137.176C239.159 135.069 237.714 133.785 235.574 132.766C237.367 131.948 239.399 131.13 240.34 131.84C241.593 132.811 240.668 134.942 240.824 137.176Z" fill="#3A3A3A"/>
<path d="M197.807 132.801C200.021 131.821 202.245 130.841 204.693 130.547C205.227 130.488 205.962 129.714 206.114 130.959C206.212 131.762 205.825 132.095 205.031 132.213C202.95 132.521 200.883 132.899 198.806 133.251C198.361 133.345 197.792 133.746 197.807 132.801Z" fill="#3A3A3A"/>
<path d="M278.121 145.994C278.204 142.217 277.631 138.42 278.518 134.677L278.753 134.937C278.939 135.97 278.542 137.048 278.998 138.057C278.88 141.188 279.488 144.348 278.586 147.444C278.077 147.052 278.533 146.371 278.121 145.994Z" fill="#C8CAD1"/>
<path d="M203.107 34.2645C202.313 32.4665 202.22 30.502 201.809 28.6158C201.711 28.1602 201.539 27.5919 202.196 27.4204C202.759 27.2784 202.832 27.8369 202.911 28.1798C203.597 30.9177 204.088 33.7009 204.38 36.5083L203.572 35.2247C203.224 34.9994 203.43 34.4899 203.107 34.2645Z" fill="#3A3A3A"/>
<path d="M165.002 200.825C165.036 198.596 164.512 196.313 165.81 194.192C165.81 198.229 165.81 202.265 165.81 206.302C165.81 206.915 165.487 207.214 164.899 206.709C164.962 205.979 165.281 205.283 165.193 204.529C165.08 203.314 165.384 202.045 165.002 200.825Z" fill="#9296A3"/>
<path d="M135.977 202.701C135.875 205.842 136.467 209.012 135.586 212.123C134.88 210.873 135.674 209.443 135.096 208.179C135.194 205.239 134.635 202.241 135.488 199.316L135.728 199.576C135.924 200.61 135.527 201.687 135.977 202.701Z" fill="#C7C9D0"/>
<path d="M201.216 42.5538C200.236 43.0438 199.423 42.5538 198.649 42.0051C200.76 41.5936 201.882 40.3835 201.735 38.1593C201.825 38.0862 201.935 38.0423 202.051 38.0335C202.166 38.0248 202.282 38.0516 202.382 38.1103C202.523 38.2202 202.639 38.3586 202.724 38.5164C202.808 38.6742 202.858 38.848 202.871 39.0265C202.91 39.8729 202.887 40.7211 202.803 41.5642C202.46 42.1913 202.279 43.1123 201.216 42.5538Z" fill="#3A3A3A"/>
<path d="M170.806 1.38156C167.651 1.38156 164.497 1.38156 161.343 1.38156C160.564 1.38156 159.707 1.63141 159.046 0.940634C159.804 0.532805 160.672 0.378295 161.524 0.499712C163.665 1.44034 165.932 0.656484 168.092 0.921037C169.003 1.02882 170.027 0.543804 170.796 1.41095L170.806 1.38156Z" fill="#3A3A3A"/>
<path d="M198.635 27.3469C197.709 26.4994 198.821 25.7302 198.728 24.8974C198.855 24.6916 198.997 24.6867 199.144 24.8974C200.613 25.7988 200.795 27.2294 200.785 28.753C200.917 29.2429 200.711 29.3997 200.241 29.2772C200.065 28.4492 199.986 27.5674 199.394 26.9207C198.718 26.1908 198.772 26.9942 198.635 27.3469Z" fill="#3A3A3A"/>
<path d="M203.057 189.523V198.018H202.71V189.523C202.827 189.297 202.945 189.297 203.057 189.523Z" fill="#3A3A3A"/>
<path d="M179.411 29.3164C180.88 28.5619 182.501 28.6305 184.069 28.415L184.558 28.8657C182.864 29.2625 181.218 30.306 179.411 29.3164Z" fill="#BFC1C9"/>
<path d="M199.144 24.8974H198.728C197.409 25.1746 196.036 25.0236 194.81 24.4663C196.308 24.138 197.871 23.1582 199.144 24.8974Z" fill="#3A3A3A"/>
<path d="M202.71 175.242L203.582 174.791C203.44 176.594 203.293 178.402 203.151 180.205C203.008 180.425 202.862 180.425 202.715 180.205L202.71 175.242Z" fill="#999CA9"/>
<path d="M204.066 45.072C205.595 44.9985 204.835 43.71 205.164 42.9997C205.932 44.911 205.932 47.0457 205.164 48.957L205.09 46.4144C204.728 45.9783 203.934 45.8706 204.066 45.072Z" fill="#9C9FAC"/>
<path d="M135.463 224.38H135.301H135.14C135.14 222.071 135.132 219.767 135.115 217.467C135.238 217.223 135.355 217.237 135.478 217.467L135.463 224.38Z" fill="#9497A5"/>
<path d="M203.106 34.2645L203.596 35.2051C203.053 35.5236 203.16 36.0625 203.136 36.5622L202.646 37.155C202.563 37.2161 202.466 37.2545 202.364 37.2665C202.262 37.2785 202.158 37.2637 202.063 37.2236C201.755 36.7827 202.117 36.1703 201.691 35.7538C201.524 34.6564 202.308 34.4556 203.106 34.2645Z" fill="#F3F3F4"/>
<path d="M135.571 189.489C135.697 189.47 135.825 189.458 135.953 189.454C135.953 191.267 135.953 193.075 135.953 194.887C135.835 195.123 135.713 195.127 135.59 194.887C135.585 193.089 135.581 191.287 135.571 189.489Z" fill="#969AA7"/>
<path d="M278.616 129.734V124.889C279.257 126.486 279.008 128.112 278.973 129.734C278.856 129.964 278.738 129.974 278.616 129.734Z" fill="#999CA9"/>
<path d="M179.127 68.0244L181.551 69.5579C181.61 69.9841 181.551 70.278 181.017 70.0478C180.07 69.8017 179.207 69.304 178.52 68.6074L179.127 68.0244Z" fill="#DDDEE2"/>
<path d="M135.106 208.179C135.987 209.404 135.277 210.824 135.595 212.123C135.595 212.426 135.561 212.73 135.541 213.034C135.404 213.254 135.262 213.249 135.115 213.034L135.106 208.179Z" fill="#B7B9C2"/>
<path d="M278.121 145.994C278.65 146.357 278.469 146.949 278.586 147.464C278.738 148.444 278.895 149.399 279.047 150.364L278.116 149.938C278.116 148.615 278.118 147.301 278.121 145.994Z" fill="#A9ACB7"/>
<path d="M278.616 129.734H278.973V134.633C278.851 134.878 278.733 134.863 278.616 134.633L278.518 134.657C278.552 133.011 278.582 131.375 278.616 129.734Z" fill="#A7AAB6"/>
<path d="M152.679 258.106L153.139 257.748C153.996 258.14 155.059 258.204 156.009 259.708L152.679 258.106Z" fill="#3A3A3A"/>
<path d="M135.595 194.892C135.716 194.9 135.837 194.9 135.958 194.892C135.958 196.362 135.958 197.832 135.958 199.301C135.835 199.537 135.713 199.537 135.59 199.301H135.492C135.532 197.842 135.561 196.367 135.595 194.892Z" fill="#AAADB8"/>
<path d="M135.106 213.044H135.532C135.532 214.513 135.497 215.983 135.478 217.453H135.297H135.115C135.11 215.988 135.11 214.518 135.106 213.044Z" fill="#A6A9B4"/>
<path d="M109.588 146.43C110.117 145.2 111.175 145.509 112.85 145.377C111.381 146.19 110.568 146.602 109.544 146.386L109.588 146.43Z" fill="#808495"/>
<path d="M165.002 200.825C165.79 202.089 165.266 203.471 165.335 204.798L165.129 204.931L164.992 204.73C164.997 203.427 164.997 202.123 165.002 200.825Z" fill="#7E8293"/>
<path d="M66.4287 164.87C66.2323 164.813 66.0624 164.688 65.9486 164.518C65.8349 164.348 65.7847 164.143 65.8067 163.94C65.8067 163.337 66.3797 163.528 66.7226 163.479C67.0654 163.43 67.3789 163.587 67.183 164.023C67.0214 164.371 66.9234 164.817 66.4287 164.87Z" fill="#3A3A3A"/>
<path d="M169.464 40.6628C168.709 41.2017 167.823 41.0841 166.975 41.1527C166.446 41.3683 166.324 41.1184 166.398 40.6628L168.846 40.2169L169.464 40.6628Z" fill="#F5F5F6"/>
<path d="M156.969 260.061C158.473 259.571 159.232 259.967 159.208 260.354C159.159 261.163 158.502 260.497 158.115 260.506C157.716 260.406 157.331 260.256 156.969 260.061Z" fill="#3A3A3A"/>
<path d="M210.497 261.614L211.531 262.054C210.762 262.574 209.88 262.544 209.008 262.544C208.957 262.508 208.918 262.456 208.898 262.396C208.878 262.336 208.877 262.272 208.896 262.211C208.935 262.099 208.979 262.045 209.018 262.045L210.497 261.614Z" fill="#3A3A3A"/>
<path d="M140.077 157.443C140.472 158.353 140.567 159.366 140.346 160.334C138.955 159.427 140.023 158.732 140.077 157.443Z" fill="#3A3A3A"/>
<path d="M202.71 186.093C202.71 184.952 202.71 183.81 202.71 182.664C202.837 182.439 202.964 182.424 203.097 182.664L203.072 186.093C202.96 186.304 202.837 186.314 202.71 186.093Z" fill="#858999"/>
<path d="M202.71 186.093C202.832 186.093 202.959 186.093 203.087 186.093C203.087 187.235 203.087 188.381 203.087 189.523H202.734L202.71 186.093Z" fill="#3A3A3A"/>
<path d="M278.616 134.628C278.735 134.638 278.854 134.638 278.973 134.628C278.973 135.765 278.973 136.9 278.973 138.033C278.165 136.975 278.684 135.765 278.616 134.628Z" fill="#B7BAC3"/>
<path d="M197.807 132.801L198.787 133.251C197.934 133.81 197.009 133.805 195.975 133.648C196.401 132.859 197.229 133.07 197.807 132.801Z" fill="#3A3A3A"/>
<path d="M135.595 199.297C135.718 199.304 135.84 199.304 135.963 199.297V202.697C135.179 201.648 135.693 200.438 135.595 199.297Z" fill="#B7BAC3"/>
<path d="M133.578 113.562C133.837 113.043 133.264 112.381 133.842 111.96C133.896 111.921 134.332 112.396 134.577 112.631C134.866 112.954 134.577 113.292 134.601 113.611C134.485 113.775 134.321 113.901 134.133 113.971C133.944 114.042 133.739 114.055 133.543 114.008C133.573 113.861 133.585 113.711 133.578 113.562Z" fill="#9B9EAB"/>
<path d="M209.018 262.054C209.018 262.221 209.018 262.388 209.018 262.544C208.328 263.078 207.588 263.127 206.608 262.726L209.018 262.054Z" fill="#3A3A3A"/>
<path d="M164.992 204.73C165.111 204.713 165.232 204.737 165.335 204.798C165.305 205.465 165.727 206.234 164.884 206.709C164.022 205.999 165.158 205.401 164.992 204.73Z" fill="#3A3A3A"/>
<path d="M106.013 157.889C105.562 157.473 104.96 157.14 105.386 156.419C105.476 156.361 105.58 156.327 105.687 156.321C105.794 156.314 105.901 156.334 105.998 156.38C106.449 156.826 106.321 157.35 106.013 157.889Z" fill="#3A3A3A"/>
<path d="M97.7746 214.538C97.7746 214.856 97.7746 215.189 97.3926 215.253C97.0106 215.317 96.9028 214.959 96.9028 214.665C96.9053 214.555 96.9336 214.447 96.9855 214.35C97.0374 214.253 97.1114 214.17 97.2016 214.107C97.515 213.974 97.7501 214.151 97.7746 214.538Z" fill="#818696"/>
<path d="M203.106 182.659H202.719C202.719 181.841 202.719 181.023 202.719 180.21H203.155L203.106 182.659Z" fill="#9195A3"/>
<path d="M200.241 29.2772L200.809 28.753C201.123 29.2086 201.485 29.8455 200.898 30.1296C200.31 30.4138 200.202 29.7671 200.241 29.2772Z" fill="#898D9C"/>
<path d="M201.691 35.7636C202.274 36.0331 202.078 36.6406 202.254 37.0864C202.353 37.2459 202.398 37.4332 202.382 37.6203C202.366 37.8075 202.291 37.9845 202.166 38.125C202.024 38.125 201.877 38.1544 201.735 38.1642L201.691 35.7636Z" fill="#3A3A3A"/>
<path d="M201.613 32.393C201.613 32.7213 201.554 33.0054 201.226 32.8585C201.026 32.7418 200.878 32.5548 200.809 32.3343C200.716 32.0354 200.942 31.8443 201.206 31.9619C201.397 32.0207 201.51 32.2706 201.613 32.393Z" fill="#D4D5DA"/>
<path d="M125.839 132.732C134.763 129.553 143.402 126.437 152.076 123.424C155.735 122.145 156.44 121.954 156.029 118.133C155.539 113.665 157.699 112.322 161.358 111.024C171.702 107.355 181.928 103.279 192.17 99.3691C193.634 98.8655 194.971 98.0498 196.088 96.9783C197.398 95.7437 199.004 94.8665 200.751 94.4307C204.355 93.4215 207.95 92.378 211.526 91.3639C213.715 90.7466 215.488 91.991 215.175 94.2152C214.824 96.9782 215.286 99.7836 216.502 102.289C217.046 103.504 216.605 103.915 215.713 104.616C214.048 105.929 212.089 106.429 210.169 107.066C185.772 115.13 161.377 123.192 136.986 131.253C135.272 131.821 133.499 131.885 132.24 133.888C131.285 135.407 127.994 134.604 125.839 132.732Z" fill="#FDFDFD"/>
<path d="M299.059 90.6339C295.386 89.9676 292.746 87.6944 290.527 84.9117C287.365 80.9342 285.398 76.1394 284.855 71.0864C284.669 69.4256 284.219 69.1512 282.622 69.7881C264.393 77.0192 246.147 84.2046 227.884 91.3443C227.066 91.6676 226.234 91.9469 225.303 92.28C225.195 91.8519 225.108 91.4186 225.044 90.9817C224.872 89.1642 224.299 88.1598 222.433 89.6198C221.547 90.3106 220.739 90.0117 219.984 89.3895C217.79 87.5181 215.449 86.9008 212.638 88.8261C213.024 87.4005 212.638 86.4598 212.309 85.5045C212.04 84.6521 211.668 83.8241 211.462 82.9619C210.247 77.8717 210.625 77.7786 215.63 76.8135C221.076 75.765 225.695 76.8135 229.937 80.3947C228.413 81.5509 226.195 81.5705 225.176 83.1235C224.583 84.0299 224.843 85.4898 224.686 86.8224C225.852 86.9596 226.645 86.357 227.488 86.0091C245.957 78.2881 264.402 70.5132 282.882 62.8215C284.351 62.2091 285.282 61.489 285.732 59.8821C286.349 57.7069 287.461 55.7472 289.161 54.493C286.163 66.976 289.406 77.9599 297.409 87.8071C298.257 88.8098 299.336 89.5915 300.553 90.0852C300.435 91.2855 299.632 90.6339 299.059 90.6339Z" fill="#FDFDFD"/>
<path d="M139.959 132.277C163.874 124.262 187.776 116.24 211.668 108.212C213.94 107.443 216.394 108.001 218.584 106.958C219.073 106.718 219.289 107.213 219.485 107.546C220.004 108.437 219.059 108.526 218.696 108.682C216.051 109.721 213.397 110.745 210.698 111.622C190.294 118.334 169.886 125.029 149.476 131.708C147.321 132.419 145.097 133.114 143.153 134.251C141.385 135.285 140.625 134.716 139.93 133.202C139.867 133.142 139.818 133.069 139.786 132.988C139.753 132.907 139.738 132.82 139.74 132.733C139.743 132.646 139.764 132.56 139.802 132.482C139.839 132.403 139.893 132.333 139.959 132.277Z" fill="#FCFCFD"/>
<path d="M116.102 128.078C125.241 124.311 134.498 122.126 143.76 119.955C144.784 119.715 145.788 119.382 146.792 119.049C147.103 118.959 147.388 118.792 147.618 118.564C147.848 118.335 148.017 118.052 148.109 117.741C148.31 117.128 146.733 116.511 148.109 116.007C149.627 115.443 151.19 115.027 152.738 114.537C152.85 114.502 153.041 114.615 153.144 114.713C154.016 115.556 153.007 120.866 151.831 121.298C142.594 124.675 133.35 128.027 124.1 131.356C123.723 131.493 123.336 131.787 122.959 131.468C121.049 129.876 118.453 129.665 116.102 128.078Z" fill="#FDFDFD"/>
<path d="M137.985 79.2826C137.899 79.6017 137.929 79.9409 138.069 80.2403C138.209 80.5398 138.45 80.7801 138.75 80.9189C144.891 84.1818 149.069 89.561 153.56 94.6071C154.809 96.0083 156.058 97.4045 157.288 98.8204C157.557 99.129 158.218 99.3691 157.616 99.9472C156.891 100.849 155.877 101.265 154.844 101.662C154.133 101.907 153.487 102.377 152.679 102.264C152.189 102.348 151.572 102.264 151.293 102.539C150.142 103.68 149.794 102.911 149.255 101.931C145.513 95.1215 141.071 88.88 134.562 84.3924C133.347 83.5547 133.117 82.9227 134.43 81.8792C135.518 80.9186 136.542 79.8875 137.496 78.7927C137.966 78.6457 138.118 78.8466 137.985 79.2826Z" fill="#FDFDFD"/>
<path d="M158.14 100.403L161.975 98.8106C163.033 97.4976 164.512 97.1693 166.074 97.0224L185.176 89.1446C185.247 89.2391 185.307 89.341 185.357 89.4483C186.15 93.9457 186.145 93.9408 181.889 95.4694C169.326 99.9717 156.773 104.498 144.176 108.927C143.422 109.197 142.266 110.593 141.556 109.025C140.846 107.458 142.457 107.242 143.339 106.649C143.515 106.299 143.805 106.02 144.161 105.857C144.517 105.694 144.918 105.657 145.298 105.753C147.813 104.949 150.257 103.938 152.605 102.73C153.235 102.277 153.916 101.899 154.633 101.603C155.813 101.133 156.901 100.545 158.14 100.403Z" fill="#FCFCFC"/>
<path d="M203.405 76.1374C201.867 79.0769 202.803 82.1388 202.778 85.1371C202.826 86.03 202.991 86.9128 203.268 87.763C203.983 90.5604 203.792 90.7809 200.756 91.1091C199.938 91.2022 199.673 91.0112 199.36 90.2665C197.288 85.3331 195.97 84.6521 190.093 85.6123C191.636 84.3973 191.513 82.9815 191.327 81.6489C190.999 79.361 191.846 77.9109 194.006 77.1564C194.544 76.9622 195.052 76.6934 195.515 76.3578C198.15 74.4913 200.809 74.7117 203.405 76.1374Z" fill="#FDFDFD"/>
<path d="M161.95 98.2129C161.828 98.2824 161.693 98.3249 161.553 98.3376C161.414 98.3502 161.273 98.3328 161.141 98.2863C161.008 98.2399 160.888 98.1655 160.786 98.0683C160.685 97.9711 160.606 97.8534 160.554 97.723C156.117 90.1538 149.872 84.461 142.286 80.1596C142.042 80.0174 141.83 79.8273 141.661 79.6008C141.493 79.3743 141.372 79.1161 141.306 78.8417C143.265 79.2581 145.264 79.5619 147.183 80.1155C149.103 80.6691 150.93 81.6342 153.291 81.6244C152.013 83.6282 152.933 84.7844 154.3 85.9356C158.174 89.174 161.279 93.2451 165.34 96.2973C164.703 97.8013 163.287 97.9385 161.95 98.2129Z" fill="#FBFBFC"/>
<path d="M186.919 85.5437C185.961 87.0383 184.522 88.1615 182.839 88.7281C181.135 89.3944 181.561 87.8022 180.949 87.3368C177.834 84.9901 174.773 82.1094 171.153 81.1247C168.347 80.3604 164.909 81.0953 161.764 81.3109C160.432 81.4039 158.914 80.6691 157.792 82.3642C157.327 83.0647 156.24 81.9722 155.417 81.742C155.064 81.644 154.809 81.4137 155.064 81.0659C155.266 80.8087 155.528 80.6052 155.827 80.4736C156.126 80.3419 156.453 80.2862 156.778 80.3114C162.127 80.3114 167.416 78.9593 172.794 79.6794C173.2 79.6602 173.605 79.7184 173.989 79.8509C177.648 82.1682 182.031 82.5748 185.866 84.412C186.327 84.6374 187.037 84.6766 186.919 85.5437Z" fill="#FBFBFC"/>
<path d="M204.066 45.072C204.458 45.4835 205.178 45.6452 205.085 46.4144C199.795 46.4927 194.54 46.0028 189.28 45.5472C187.811 45.4247 187.135 44.5674 186.542 43.4798C185.646 41.8141 185.303 39.972 184.926 38.1446C185.171 37.9389 184.696 36.8806 185.631 37.4979C186.299 37.9642 186.942 38.4663 187.556 39.002C192.356 42.936 198.16 44.1461 204.066 45.072Z" fill="#FBFBFC"/>
<path d="M111.038 126.28C109.779 126.314 108.907 126.393 108.829 125.388C108.77 124.551 109.652 124.546 110.205 124.325C115.436 122.253 120.882 120.896 126.319 119.539C130.727 118.412 135.135 117.251 139.19 115.095C140.503 114.4 141.149 114.904 141.639 116.036C142.305 117.545 140.831 117.226 140.327 117.349C130.923 119.617 121.495 121.797 112.649 125.873C112.13 126.072 111.589 126.209 111.038 126.28Z" fill="#F9FAFA"/>
<path d="M145.841 19.5573C151.014 15.1873 156.715 14.3642 162.925 17.0294C167.044 18.8029 170.394 21.6444 173.504 24.7896C173.823 25.1129 174.66 25.4461 173.872 26.1124C173.269 26.6268 172.721 26.519 172.167 25.9556C170.092 23.7594 167.756 21.8247 165.212 20.1942C159.163 16.417 153.056 15.785 146.87 19.8905C146.735 19.9703 146.592 20.036 146.444 20.0864C145.91 20.253 145.797 19.9982 145.841 19.5573Z" fill="#FAFAFA"/>
<path d="M136.085 137.852C135.346 143.265 131.937 141.653 128.934 140.845C127.465 140.453 126.432 140.845 125.398 142.349C125.361 141.628 125.361 140.905 125.398 140.184C125.834 136.568 126.275 136.304 129.698 137.96C130.609 138.405 131.089 138.4 132.005 137.837C133.293 137.048 134.817 137.666 136.085 137.852Z" fill="#FAFAFB"/>
<path d="M224.044 112.636C224.27 114.596 224.906 116.349 226.63 117.599C227.664 118.348 227.311 119.068 226.229 119.558C225.717 119.809 225.146 119.913 224.578 119.861C224.01 119.808 223.468 119.6 223.011 119.26C222.618 118.967 222.253 118.639 221.919 118.28C218.387 114.894 218.446 114.605 222.898 113.096C223.271 112.984 223.633 112.807 224.044 112.636Z" fill="#F9F9FA"/>
<path d="M141.86 97.4388C137.941 94.4111 135.003 90.2665 130.453 87.9884C129.963 87.7532 128.929 87.2976 129.86 86.3717C130.595 85.6417 131.246 85.1959 132.333 86.0728C136.203 89.2181 139.68 92.7062 142.403 96.9097C142.56 97.4339 142.335 97.5662 141.86 97.4388Z" fill="#F9F9FA"/>
<path d="M230.764 107.369C225.7 104.802 224.941 100.05 224.632 95.0676C227.135 98.9232 227.796 103.729 230.764 107.369Z" fill="#F4F4F5"/>
<path d="M134.601 113.626C133.911 113.307 134.694 112.959 134.577 112.646C136.423 112.553 137.956 112.244 136.678 109.819C136.452 109.393 136.301 108.952 136.79 108.526C136.999 108.334 137.266 108.219 137.549 108.2C137.831 108.181 138.111 108.26 138.343 108.423C139.435 108.996 139.528 110.142 139.714 111.132C139.901 112.121 138.828 112.077 138.245 112.327C137.045 112.802 135.811 113.194 134.601 113.626Z" fill="#F0F1F2"/>
<path d="M183.506 69.9253C186.618 67.8878 190.284 66.8612 194.001 66.9858C190.656 68.4743 187.16 69.5994 183.574 70.3417C183.378 70.2829 183.305 70.2045 183.349 70.1017C183.393 69.9988 183.452 69.9253 183.506 69.9253Z" fill="#E9EAEC"/>
<path d="M192.444 93.1178C192.322 93.7302 192.488 94.7345 191.415 94.5875C190.196 94.416 189.344 93.6469 189.358 92.2996C189.358 91.5207 189.358 90.4526 190.539 90.6437C191.719 90.8348 192.483 91.7313 192.444 93.1178Z" fill="#F6F6F7"/>
<path d="M193.757 14.6386C195.396 16.7492 196.551 19.1944 197.141 21.8011C195.334 19.8856 194.614 17.3576 193.296 15.1775C193.027 14.6386 193.33 14.5847 193.757 14.6386Z" fill="#F0F1F2"/>
<path d="M173.685 28.851L173.558 29.3409C173.269 30.355 174.944 29.7328 174.694 30.7078C173.441 30.9331 172.187 31.1977 170.928 31.3642C170.522 31.4279 169.948 31.7954 169.757 31.0654C169.611 30.4432 170.164 30.2668 170.59 30.0856C171.614 29.6446 172.652 29.2527 173.685 28.851Z" fill="#E6E7EA"/>
<path d="M139.959 132.277L139.93 133.227C139.381 133.144 138.691 132.869 138.407 133.526C137.466 135.691 136.203 134.535 134.489 133.864L139.959 132.277Z" fill="#E7E8EB"/>
<path d="M137.432 30.7273V41.2507H137.138V30.6441L137.432 30.7273Z" fill="#B0B3BD"/>
<path d="M211.722 113.214C211.065 115.742 211.065 115.742 208.195 114.331C209.301 113.767 210.493 113.39 211.722 113.214Z" fill="#E0E1E5"/>
<path d="M145.842 19.5573L146.444 20.0864L141.982 24.0841L141.546 23.6481C142.854 22.1735 144.098 20.6351 145.842 19.5573Z" fill="#E2E3E7"/>
<path d="M174.694 30.6931C174.974 29.7132 172.094 31.3103 173.558 29.3262C174.396 30.3844 175.429 29.6593 176.36 29.5809C177.119 29.5173 177.863 29.1498 178.525 29.8308C177.359 30.6196 175.973 30.4285 174.694 30.6931Z" fill="#D1D3D8"/>
<path d="M219.779 111.171C220.394 110.692 221.147 110.424 221.926 110.408C222.706 110.393 223.469 110.629 224.103 111.083C224.387 111.264 224.73 111.303 224.485 111.69C224.343 111.921 224.152 112.362 223.76 112.033C222.526 111.019 221.13 111.509 219.779 111.543C219.617 111.46 219.568 111.377 219.622 111.294C219.676 111.21 219.725 111.171 219.779 111.171Z" fill="#F1F1F3"/>
<path d="M166.417 40.6628L167.015 41.1527L162.68 42.1717C163.655 40.7363 165.09 40.8538 166.417 40.6628Z" fill="#D2D3D9"/>
<path d="M141.86 97.4388L142.403 96.9097C143.241 97.9434 144.328 98.84 144.309 100.339L144.353 100.3C142.526 100.226 142.761 98.3304 141.86 97.4388Z" fill="#E2E3E7"/>
<path d="M137.814 138.195C139.283 139.268 138.794 140.478 138.167 141.712L137.814 138.195Z" fill="#E4E5E8"/>
<path d="M161.387 41.917C160.119 42.7008 158.718 42.8184 156.754 42.8968C158.157 42.0911 159.778 41.7482 161.387 41.917Z" fill="#F1F1F2"/>
<path d="M161.95 98.2129L165.33 96.2777L166.074 97.0224C164.86 97.9581 163.351 98.2276 161.975 98.8106C161.97 98.6097 161.96 98.4088 161.95 98.2129Z" fill="#3A3A3A"/>
<path d="M158.14 100.403C157.111 101.163 155.909 101.655 154.643 101.833C154.525 101.73 154.491 101.628 154.535 101.53C154.579 101.432 154.618 101.388 154.662 101.388C155.642 100.858 156.328 99.8051 157.601 99.9472L158.14 100.403Z" fill="#3A3A3A"/>
<path d="M145.89 104.788L145.337 105.331C144.767 105.793 144.077 106.082 143.348 106.164C142.805 106.198 142.438 106.066 142.413 105.41C142.389 104.753 142.756 104.812 143.172 104.802C143.819 104.802 144.46 104.743 145.107 104.714C145.221 104.62 145.367 104.575 145.514 104.589C145.661 104.603 145.796 104.674 145.89 104.788Z" fill="#F9F9FA"/>
<path d="M137.53 51.3429L137.251 47.2325C138.23 48.5259 137.912 49.9564 137.956 51.3429C137.816 51.578 137.674 51.578 137.53 51.3429Z" fill="#3A3A3A"/>
<path d="M137.986 79.2826L137.496 78.7927C137.496 78.7192 137.496 78.6212 137.559 78.5674C138.049 78.0774 138.436 77.3867 139.264 77.6904C139.484 77.7737 139.754 78.2783 139.695 78.4547C139.396 79.1945 138.608 79.1406 137.986 79.2826Z" fill="#D1D2D8"/>
<path d="M145.371 104.273C145.714 102.774 144.578 101.662 144.353 100.31L144.308 100.349C145.508 100.976 145.724 102.235 146.204 103.323C146.018 103.719 146.302 104.528 145.371 104.273Z" fill="#EAEBED"/>
<path d="M156.729 42.9507C155.524 43.372 154.643 43.8766 153.722 43.2838C153.335 43.0291 154.016 42.0835 154.261 42.3677C154.927 43.1123 155.794 42.3383 156.729 42.9507Z" fill="#F4F4F5"/>
<path d="M183.06 25.887C182.08 26.1859 181.257 27.4645 180.057 26.3769C181.115 26.5631 181.879 24.9023 183.06 25.887Z" fill="#A4A7B3"/>
<path d="M299.059 90.6339C299.549 90.3645 300.269 90.8152 300.568 90.0852C301.17 90.0019 301.63 90.2665 302.399 91.0258C301.038 90.9867 300.044 91.3541 299.059 90.6339Z" fill="#9EA1AD"/>
<path d="M154.662 101.412C154.662 101.559 154.662 101.711 154.662 101.858C154.426 102.155 154.123 102.391 153.777 102.547C153.431 102.703 153.053 102.774 152.674 102.754C152.633 102.601 152.641 102.438 152.698 102.289C153.159 101.569 153.898 101.451 154.662 101.412Z" fill="#3A3A3A"/>
<path d="M178.666 27.3518C177.853 27.8418 177.104 28.6746 176.041 27.8418C176.859 27.3567 177.682 26.9109 178.666 27.3518Z" fill="#B3B6BF"/>
<path d="M193.757 14.6386L193.296 15.1775C192.654 14.5953 192.183 13.8481 191.935 13.017C193.13 13.0611 193.36 13.9478 193.757 14.6386Z" fill="#D9DBDF"/>
<path d="M143.349 106.14C143.908 105.66 144.603 105.369 145.337 105.307C145.337 105.459 145.337 105.606 145.337 105.753C144.788 106.24 144.106 106.552 143.378 106.649C143.363 106.478 143.358 106.311 143.349 106.14Z" fill="#3A3A3A"/>
<path d="M219.343 111.661C218.686 112.195 217.903 112.151 217.129 112.151C216.83 112.151 216.433 112.097 216.639 111.685C216.742 111.47 217.129 111.401 217.403 111.264C218.01 111.578 218.809 111 219.343 111.661Z" fill="#B9BBC4"/>
<path d="M173.725 1.42075L175.968 2.17032C174.988 2.39568 174.317 2.61614 173.744 1.86167C173.573 1.77349 173.514 1.6755 173.568 1.57262C173.622 1.46974 173.671 1.42075 173.725 1.42075Z" fill="#3A3A3A"/>
<path d="M189.26 9.73457C188.149 9.27406 187.683 8.93601 187.453 8.05907C188.31 8.19625 188.687 8.63717 189.26 9.73457Z" fill="#A4A7B3"/>
<path d="M152.875 71.7233C151.964 72.1397 151.381 71.8653 150.803 71.204C151.67 70.7973 152.165 71.3901 152.875 71.7233Z" fill="#7E8392"/>
<path d="M173.725 1.42075C173.725 1.56772 173.725 1.7147 173.725 1.86167C172.745 1.72939 171.648 2.28299 170.786 1.37176L173.725 1.42075Z" fill="#3A3A3A"/>
<path d="M145.371 104.273L146.204 103.323C146.292 103.852 147.428 104.606 145.89 104.792L145.107 104.694L145.371 104.273Z" fill="#FCFCFC"/>
<path d="M191.411 11.6844C190.25 11.6844 190.049 10.9741 189.334 10.2147C190.524 10.2441 190.882 10.881 191.411 11.6844Z" fill="#CCCDD4"/>
<path d="M183.506 69.9253C183.544 69.9848 183.57 70.0516 183.582 70.1215C183.594 70.1914 183.591 70.2631 183.574 70.3319C182.673 70.6308 181.786 70.8218 181.017 70.0233L181.551 69.5334C182.144 69.8695 182.829 70.0069 183.506 69.9253Z" fill="#BEC0C8"/>
<path d="M219.343 111.661C218.721 111.401 217.932 111.93 217.384 111.245C217.748 111.054 218.152 110.949 218.563 110.936C218.974 110.923 219.383 111.004 219.759 111.171V111.548C219.638 111.634 219.49 111.673 219.343 111.661Z" fill="#F9FAFA"/>
<path d="M137.168 43.8717C137.657 44.4204 137.456 45.0034 137.408 45.753C136.785 45.072 137.138 44.4694 137.168 43.8717Z" fill="#8B8F9D"/>
<path d="M137.53 51.3429C137.672 51.3527 137.814 51.3527 137.956 51.3429C137.932 52.019 138.177 52.7244 137.746 53.3956C137.31 52.7244 137.554 52.019 137.53 51.3429Z" fill="#3A3A3A"/>
<path d="M77.1403 174.1C77.1403 167.732 82.3466 162.641 88.5129 163.038C91.1969 163.21 93.1071 164.508 94.0719 167.075C96.6726 173.934 90.3692 182.13 83.0715 181.371C79.2561 180.974 77.1403 178.387 77.1403 174.1Z" fill="#FDFDFD"/>
<path d="M119.34 172.087C118.483 169.093 119.692 168.168 121.945 167.991C123.153 167.864 124.348 167.633 125.516 167.3C126.912 166.923 128.185 166.908 128.694 168.515C129.184 170.049 128.778 171.568 127.313 172.297C124.982 173.463 122.332 173.806 119.8 174.027C118.189 174.169 119.506 172.342 119.34 172.087Z" fill="#FDF9FA"/>
<path d="M119.457 159.173C118.766 156.498 119.829 155.709 121.833 155.616C122.642 155.535 123.441 155.37 124.218 155.126C125.491 154.803 126.706 154.695 127.289 156.189C127.553 156.794 127.59 157.473 127.394 158.103C127.198 158.733 126.781 159.271 126.221 159.619C124.355 160.902 122.043 161.118 119.922 161.216C118.492 161.309 119.658 159.516 119.457 159.173Z" fill="#FDFAFA"/>
<path d="M44.3788 176.329C44.4131 171.729 44.4131 171.729 48.9338 170.789C52.4749 170.054 53.6455 170.47 54.292 172.689C55.1589 175.673 53.5916 178.941 50.8635 179.827C50.3196 179.988 49.7669 180.117 49.2081 180.214C44.3495 181.18 44.3495 181.175 44.3788 176.329Z" fill="#FDFCFC"/>
<path d="M291.952 134.119C292.05 130.155 292.045 130.155 295.831 129.366C296.321 129.264 296.811 129.254 297.271 129.117C299.123 128.558 300.861 128.436 301.856 130.528C302.757 132.419 301.856 135.187 299.921 136.274C297.756 137.484 295.248 137.533 292.888 138.067C292.094 138.249 291.942 137.695 291.947 137.043C291.962 136.068 291.952 135.094 291.952 134.119Z" fill="#FDFCFC"/>
<path d="M219.255 149.345C219.294 145.254 219.294 145.254 223.207 144.485C223.609 144.407 224.02 144.377 224.412 144.274C226.425 143.75 228.33 143.466 229.212 146.043C229.932 148.189 228.825 150.908 226.596 151.697C224.544 152.422 222.34 152.73 220.229 153.225C219.411 153.416 219.25 152.951 219.25 152.28C219.269 151.3 219.255 150.325 219.255 149.345Z" fill="#FDFCFC"/>
<path d="M254.778 187.313L258.736 177.838C260.048 180.42 261.209 182.644 262.311 184.898C262.703 185.697 262.032 185.878 261.469 185.995C259.417 186.422 257.355 186.814 254.778 187.313Z" fill="#FDFAFA"/>
<path d="M202.553 41.4172C202.553 40.506 202.553 39.5899 202.553 38.6737C202.367 38.1838 202.592 38.0711 203.043 38.1838C203.151 39.4674 203.337 40.751 203.013 42.0345C202.553 42.0688 202.352 41.9023 202.553 41.4172Z" fill="#FBFBFB"/>
<path d="M202.553 41.4172L203.043 42.0247C202.352 43.372 201.931 43.4945 201.231 42.5538C202.103 42.6959 202.132 41.8239 202.553 41.4172Z" fill="#E6E7EA"/>
<path d="M203.057 38.174L202.568 38.6639C202.431 38.4827 202.293 38.2965 202.161 38.1103L202.249 37.0717C202.383 37.0718 202.516 37.0968 202.641 37.1452C203.185 37.3314 203.16 37.7233 203.057 38.174Z" fill="#B9BCC5"/>
<path d="M81.4796 173.209C81.4453 169.804 83.7669 167.227 86.8672 167.237C89.0124 167.237 90.232 168.618 90.2956 171.087C90.3642 174.38 87.979 177.143 84.9913 177.216C82.7726 177.27 81.5041 175.835 81.4796 173.209Z" fill="#3A3A3A"/>
<path d="M49.2963 176.109C48.8751 176.138 48.7673 175.84 48.738 175.516C48.6939 175.026 49.0024 174.791 49.453 174.776C49.9036 174.762 50.2905 174.879 50.1828 175.423C50.0995 175.879 49.7175 176.036 49.2963 176.109Z" fill="#3A3A3A"/>
</g>
<defs>
<clipPath id="clip0">
<rect width="380" height="263" fill="white"/>
</clipPath>
</defs>
</svg>
