<svg width="25" height="24" viewBox="0 0 25 24" fill="none" xmlns="http://www.w3.org/2000/svg">
<path d="M21.6666 11.9987H24.3333C24.3333 5.15867 19.1693 0 12.3199 0V2.66667C17.7359 2.66667 21.6666 6.59067 21.6666 11.9987Z" fill="#FFC81A"/>
<path d="M13.3337 6.41959C16.1377 6.41959 17.3337 7.61559 17.3337 10.4196H20.0004C20.0004 6.11959 17.6337 3.75292 13.3337 3.75292V6.41959ZM17.8964 13.6769C17.6402 13.4441 17.3035 13.3199 16.9574 13.3306C16.6114 13.3413 16.283 13.486 16.0417 13.7343L12.851 17.0156C12.083 16.8689 10.539 16.3876 8.94971 14.8023C7.36038 13.2116 6.87904 11.6636 6.73638 10.9009L10.015 7.70892C10.2636 7.46776 10.4086 7.13935 10.4193 6.7932C10.43 6.44705 10.3056 6.11031 10.0724 5.85426L5.14571 0.436923C4.91243 0.180065 4.58821 0.0242618 4.24191 0.00260239C3.89561 -0.019057 3.55451 0.0951338 3.29104 0.320923L0.39771 2.80226C0.167191 3.03361 0.029602 3.34152 0.0110426 3.66759C-0.00895738 4.00092 -0.390291 11.8969 5.73238 18.0223C11.0737 23.3623 17.7644 23.7529 19.607 23.7529C19.8764 23.7529 20.0417 23.7449 20.0857 23.7423C20.4117 23.724 20.7195 23.5858 20.9497 23.3543L23.4297 20.4596C23.6557 20.1963 23.7701 19.8553 23.7487 19.509C23.7273 19.1627 23.5717 18.8384 23.315 18.6049L17.8964 13.6769V13.6769Z" fill="#FFC81A"/>
</svg>
