<svg width="127" height="137" viewBox="0 0 127 137" fill="none" xmlns="http://www.w3.org/2000/svg">
<path d="M85.8271 83.3409V84.5011C80.975 89.399 74.5531 92.163 67.8561 92.2358C64.3086 92.1776 60.8075 91.3715 57.5564 89.8644C54.3054 88.3573 51.3693 86.1792 48.9191 83.457V83.3409H85.8271Z" fill="#7B7B7B"/>
<path d="M102.449 54.0072C101.738 59.0347 99.4967 62.9987 96.9815 63.9849C95.214 71.8251 91.339 78.9523 85.827 84.501V96.5091L90.5658 98.6168C87.4856 105.153 78.2632 109.948 67.4368 109.948C56.173 109.948 46.7137 104.824 43.9433 97.9013L48.9737 95.9676V83.5148C43.9806 78.1026 40.4547 71.3627 38.767 64.0042C38.5274 63.9013 38.2958 63.7784 38.0744 63.6368C35.8509 62.2446 33.9371 58.5706 33.2992 53.9685C32.9797 51.9588 32.9797 49.9065 33.2992 47.8968H37.7828C38.0057 48.343 38.2617 48.7698 38.5483 49.173C38.8436 49.5778 39.1664 49.9592 39.5143 50.3139C40.6367 51.5067 42.1542 52.1868 43.7428 52.2088H92.0968C93.6715 52.1615 95.1676 51.4684 96.2706 50.2752C96.6206 49.9226 96.9436 49.5411 97.2366 49.1343C97.4825 48.7995 97.7019 48.4438 97.8928 48.0708L98.0021 47.8774H102.449C102.757 49.9077 102.757 51.9769 102.449 54.0072Z" fill="#7B7B7B"/>
<path d="M0 137C5.95996 135.627 11.9381 134.351 17.9346 133.133V124.489H20.1035V103.509L18.4996 104.012C15.1734 105.646 11.9472 107.499 8.8397 109.561L8.43872 109.832C4.00976 112.907 0 116.89 0 121.241C0 124.799 0 130.986 0 137Z" fill="#7B7B7B"/>
<path d="M52.0357 126.597L53.9859 126.249L95.4687 117.257V97.3793L94.5756 97.0893L93.2087 99.9511C89.5634 107.802 79.1381 113.081 67.3822 113.081C55.0431 113.081 44.5083 107.473 41.1729 99.1196L40.3527 97.0312L39.6602 97.244V124.489H47.6432L52.0357 126.597Z" fill="#7B7B7B"/>
<path d="M127 110.412L114.989 113.023V103.644L116.046 103.992C119.6 105.725 123.04 107.708 126.344 109.929L127 110.412Z" fill="#7B7B7B"/>
<path d="M26.7195 131.334C27.1305 130.875 27.6252 130.51 28.1736 130.261C28.722 130.012 29.3125 129.883 29.9091 129.884C30.5391 129.897 31.1597 130.049 31.7317 130.329C36.5616 129.401 41.3734 128.395 46.3127 127.622H36.7075V96.6831L23.0925 101.169V127.622H20.9236V132.475L26.7195 131.334Z" fill="#7B7B7B"/>
<path d="M112.036 101.227V113.661L98.4214 116.6V96.7411L112.036 101.227Z" fill="#7B7B7B"/>
<path d="M105.42 44.803H96.0702L95.9426 45.1897C95.9426 45.1897 95.9426 45.3637 95.9426 45.4604C95.8014 45.8263 95.637 46.1816 95.4505 46.5239C95.3055 46.7948 95.141 47.0534 94.9584 47.2974C94.777 47.5708 94.5693 47.8236 94.3387 48.0515C93.766 48.6557 92.9955 49.002 92.188 49.0184H43.7428C42.923 49.01 42.1385 48.6632 41.5557 48.0515C41.3301 47.8185 41.1229 47.5663 40.936 47.2974C40.5446 46.7292 40.2202 46.1123 39.97 45.4604C39.8242 45.0543 39.7513 44.803 39.7513 44.803H30.3284C30.3284 44.803 30.3284 44.4936 30.4377 43.9715C30.4377 43.7975 30.4377 43.5848 30.5289 43.3721C30.7476 41.8831 31.1121 39.3887 31.4766 36.6429L31.586 35.9081C31.586 35.6567 31.6771 35.4247 31.7318 35.2313L31.8958 34.6319C31.8958 34.4579 32.0234 34.2645 32.0781 34.0905C32.3013 33.4847 32.6084 32.9177 32.9894 32.4082L33.2628 32.1181C33.8555 31.5127 34.5732 31.0625 35.3588 30.8032C35.5532 30.1071 35.7719 29.411 36.0149 28.7149C36.1425 28.3282 36.2883 27.9414 36.4341 27.574L36.8898 26.4525C37.0538 26.0851 37.1996 25.7177 37.3819 25.3697C37.5459 25.0023 37.71 24.6542 37.8922 24.2868C38.6733 22.7236 39.5628 21.2241 40.5533 19.8007L41.3005 18.7372L42.0843 17.751C42.3576 17.4223 42.6128 17.0936 42.9044 16.7649C43.1961 16.4361 43.4512 16.1267 43.7428 15.8174C45.6612 13.7394 47.8092 11.9149 50.1402 10.3838C50.5959 10.0744 51.0698 9.765 51.5436 9.49428C51.1427 8.04404 51.2885 7.67664 52.3091 6.0717C53.3298 4.46676 64.2655 0 67.8743 0C71.4831 0 82.4552 4.31207 83.4577 5.91701C84.4601 7.52195 84.5695 7.85067 84.1685 9.33959C84.3872 9.45561 84.5877 9.6103 84.8064 9.74566L84.1685 9.35893C82.3459 13.9417 80.7784 16.9582 78.9558 21.483C77.5138 25.0367 75.7239 28.4198 73.6155 31.5767C76.1936 28.7716 78.4622 25.6642 80.3775 22.3145C82.4923 18.5564 84.4208 14.6838 86.1552 10.7125C92.9618 15.4017 97.9999 22.4781 100.39 30.7066L100.7 30.8419C101.019 30.9659 101.33 31.1145 101.629 31.2867C101.943 31.492 102.231 31.7389 102.486 32.0215C102.892 32.4504 103.219 32.9552 103.452 33.5104C103.599 33.8631 103.727 34.2246 103.835 34.5932C104.033 35.2954 104.179 36.0131 104.272 36.7396C104.618 39.4854 105.001 41.9798 105.22 43.4687C105.238 43.6704 105.269 43.8706 105.311 44.0682C105.384 44.4742 105.42 44.803 105.42 44.803Z" fill="#7B7B7B"/>
</svg>
