<svg width="110" height="110" viewBox="0 0 110 110" fill="none" xmlns="http://www.w3.org/2000/svg">
<path fill-rule="evenodd" clip-rule="evenodd" d="M110 55C110 85.3757 85.3757 110 55 110C24.6243 110 0 85.3757 0 55C0 24.6243 24.6243 0 55 0C85.3757 0 110 24.6243 110 55ZM41.7951 29V48.8752H36V57.0711H41.7951V60.7593H36V69.5699H41.7951V80.0197H49.4595V69.5699H69.8358V60.7593H49.4595V57.0711H62.7322C62.7322 57.0711 74.1354 56.9687 74.1354 42.9331C74.1354 28.8976 62.7322 29 62.7322 29H41.7951ZM49.8331 37.1962V49.0725H60.68C60.68 49.0725 65.9098 49.5293 65.9098 43.3628C65.9098 37.1962 60.68 37.1962 60.68 37.1962H49.8331ZM56.6783 4.81773L61.4076 6.36629C62.3982 6.69065 63.4299 6.87257 64.4717 6.90658L69.4454 7.06893C70.9338 7.11751 72.3679 7.63947 73.5392 8.55895L77.4537 11.6316C78.2736 12.2753 79.1809 12.7991 80.1482 13.1873L84.7665 15.041C86.1485 15.5957 87.3176 16.5767 88.1038 17.8413L90.7313 22.0675C91.2816 22.9528 91.955 23.7553 92.7312 24.451L96.437 27.7724C97.5459 28.7663 98.3089 30.088 98.6152 31.5453L99.6388 36.4153C99.8532 37.4354 100.212 38.4198 100.703 39.339L103.049 43.7276C103.751 45.0408 104.016 46.5438 103.806 48.0179L103.102 52.9443C102.955 53.9762 102.955 55.0238 103.102 56.0557L103.806 60.9821C104.016 62.4562 103.751 63.9592 103.049 65.2724L100.703 69.661C100.212 70.5802 99.8532 71.5646 99.6388 72.5847L98.6152 77.4547C98.3089 78.912 97.5459 80.2337 96.437 81.2276L92.7312 84.549C91.955 85.2447 91.2816 86.0472 90.7313 86.9325L88.1038 91.1587C87.3176 92.4233 86.1485 93.4043 84.7665 93.959L80.1482 95.8127C79.1809 96.2009 78.2736 96.7247 77.4537 97.3684L73.5392 100.441C72.3679 101.361 70.9338 101.882 69.4454 101.931L64.4717 102.093C63.4299 102.127 62.3982 102.309 61.4076 102.634L56.6783 104.182C55.2631 104.646 53.7369 104.646 52.3217 104.182L47.5924 102.634C46.6018 102.309 45.5701 102.127 44.5283 102.093L39.5546 101.931C38.0662 101.882 36.6321 101.361 35.4608 100.441L31.5463 97.3684C30.7264 96.7247 29.8191 96.2009 28.8518 95.8127L24.2335 93.959C22.8515 93.4043 21.6825 92.4233 20.8962 91.1587L18.2687 86.9325C17.7184 86.0472 17.045 85.2447 16.2688 84.549L12.563 81.2276C11.4541 80.2337 10.6911 78.912 10.3848 77.4547L9.36119 72.5847C9.14679 71.5646 8.78849 70.5802 8.29704 69.661L5.95077 65.2724C5.24867 63.9592 4.98366 62.4562 5.19427 60.9821L5.89806 56.0557C6.04548 55.0238 6.04548 53.9762 5.89806 52.9443L5.19426 48.0179C4.98366 46.5438 5.24867 45.0408 5.95077 43.7276L8.29704 39.339C8.78849 38.4198 9.14679 37.4354 9.36119 36.4153L10.3848 31.5453C10.6911 30.088 11.4541 28.7663 12.563 27.7724L16.2688 24.451C17.045 23.7553 17.7184 22.9528 18.2687 22.0675L20.8962 17.8413C21.6825 16.5767 22.8515 15.5957 24.2335 15.041L28.8518 13.1873C29.8191 12.7991 30.7264 12.2753 31.5463 11.6316L35.4608 8.55895C36.6321 7.63947 38.0662 7.11751 39.5546 7.06893L44.5283 6.90658C45.5701 6.87257 46.6018 6.69065 47.5924 6.36629L52.3217 4.81773C53.7369 4.35434 55.2631 4.35434 56.6783 4.81773ZM51.6994 2.91703C53.5189 2.32124 55.4811 2.32124 57.3006 2.91703L62.0299 4.46559C62.8404 4.73098 63.6846 4.87982 64.5369 4.90764L69.5107 5.06999C71.4243 5.13246 73.2681 5.80355 74.7741 6.98573L78.6886 10.0584C79.3595 10.585 80.1018 11.0136 80.8932 11.3313L85.5115 13.1849C87.2883 13.8981 88.7914 15.1594 89.8023 16.7854L92.4298 21.0116C92.8801 21.7359 93.431 22.3924 94.0661 22.9617L97.7719 26.2831C99.1976 27.561 100.179 29.2603 100.572 31.1339L101.596 36.0039C101.771 36.8385 102.065 37.644 102.467 38.3961L104.813 42.7846C105.716 44.4731 106.056 46.4054 105.786 48.3008L105.082 53.2272C104.961 54.0714 104.961 54.9286 105.082 55.7728L105.786 60.6992C106.056 62.5946 105.716 64.5269 104.813 66.2154L102.467 70.6039C102.065 71.356 101.771 72.1615 101.596 72.9961L100.572 77.8661C100.179 79.7397 99.1976 81.439 97.7719 82.7169L94.0661 86.0383C93.431 86.6076 92.8801 87.2642 92.4298 87.9884L89.8023 92.2146C88.7914 93.8406 87.2883 95.1019 85.5115 95.815L80.8932 97.6687C80.1018 97.9864 79.3595 98.415 78.6886 98.9416L74.7741 102.014C73.2681 103.196 71.4243 103.868 69.5107 103.93L64.5369 104.092C63.6846 104.12 62.8404 104.269 62.0299 104.534L57.3006 106.083C55.4811 106.679 53.5189 106.679 51.6994 106.083L46.9701 104.534C46.1596 104.269 45.3154 104.12 44.4631 104.092L39.4893 103.93C37.5757 103.868 35.7319 103.196 34.2259 102.014L30.3114 98.9416C29.6405 98.415 28.8982 97.9864 28.1068 97.6687L23.4885 95.815C21.7117 95.1019 20.2086 93.8406 19.1977 92.2146L16.5702 87.9884C16.1199 87.2642 15.569 86.6076 14.9339 86.0383L11.2281 82.7169C9.8024 81.439 8.82133 79.7397 8.42752 77.8661L7.40395 72.9961C7.22854 72.1615 6.93538 71.356 6.53328 70.6039L4.18702 66.2154C3.28431 64.5269 2.94359 62.5946 3.21437 60.6992L3.91816 55.7728C4.03878 54.9286 4.03878 54.0714 3.91816 53.2272L3.21437 48.3008C2.94359 46.4054 3.28431 44.4731 4.18701 42.7846L6.53328 38.3961C6.93538 37.644 7.22854 36.8385 7.40395 36.0039L8.42752 31.1339C8.82133 29.2603 9.8024 27.561 11.2281 26.2831L14.9339 22.9617C15.569 22.3924 16.1199 21.7358 16.5702 21.0116L19.1977 16.7854C20.2086 15.1594 21.7117 13.8981 23.4885 13.1849L28.1068 11.3313C28.8982 11.0136 29.6405 10.585 30.3114 10.0584L34.2259 6.98573C35.7319 5.80355 37.5757 5.13246 39.4893 5.06999L44.4631 4.90764C45.3154 4.87982 46.1596 4.73098 46.9701 4.46559L51.6994 2.91703Z" fill="#7B7B7B"/>
</svg>
