<svg width="110" height="110" viewBox="0 0 110 110" fill="none" xmlns="http://www.w3.org/2000/svg">
<g clip-path="url(#clip0)">
<path d="M78.5351 23.822L77.8416 24.7023L78.8953 25.516C79.4155 25.9428 80.0957 25.0625 79.5755 24.649L78.5351 23.822Z" fill="#7B7B7B"/>
<path d="M80.0291 21.9014L79.3755 22.7283L80.2025 23.3819C80.7226 23.7954 81.3762 22.9684 80.856 22.5549L80.0291 21.9014Z" fill="#7B7B7B"/>
<path d="M21.1677 35.1195L20.5808 36.1599L21.6879 36.7868L22.2748 35.7598C22.3219 35.6869 22.3537 35.6052 22.3683 35.5197C22.3829 35.4342 22.38 35.3466 22.3597 35.2622C22.3394 35.1778 22.3022 35.0985 22.2503 35.029C22.1984 34.9594 22.1329 34.9012 22.0578 34.8577C21.9826 34.8143 21.8995 34.7866 21.8133 34.7763C21.7272 34.766 21.6398 34.7733 21.5566 34.7977C21.4733 34.8222 21.3959 34.8634 21.3291 34.9187C21.2622 34.974 21.2073 35.0423 21.1677 35.1195Z" fill="#7B7B7B"/>
<path d="M23.6485 30.5577C23.8158 30.6969 24.0089 30.8019 24.2167 30.8665C24.4245 30.9311 24.6431 30.9542 24.8598 30.9344C25.0766 30.9146 25.2873 30.8523 25.48 30.751C25.6726 30.6497 25.8435 30.5115 25.9827 30.3443C26.122 30.177 26.2269 29.9839 26.2915 29.7761C26.3562 29.5682 26.3793 29.3497 26.3594 29.133C26.3396 28.9162 26.2773 28.7055 26.1761 28.5128C26.0748 28.3202 25.9366 28.1493 25.7693 28.0101C25.4315 27.7288 24.9958 27.5933 24.558 27.6334C24.1203 27.6734 23.7164 27.8857 23.4351 28.2235C23.1539 28.5613 23.0184 28.997 23.0584 29.4348C23.0984 29.8725 23.3107 30.2764 23.6485 30.5577Z" fill="#7B7B7B"/>
<path d="M18.3267 42.5353L18.8469 41.1348L16.9662 41.2681L18.3267 42.5353Z" fill="#7B7B7B"/>
<path d="M55.5802 85.4709C55.1401 85.4709 54.9133 85.751 54.9133 86.3246V89.4857C54.9133 90.0593 55.1401 90.3394 55.5802 90.3394C56.0204 90.3394 56.2472 90.0593 56.2472 89.4857V86.3246C56.2472 85.751 56.0204 85.4709 55.5802 85.4709Z" fill="#7B7B7B"/>
<path d="M69.2784 89.1524C69.1371 89.146 68.9961 89.1702 68.865 89.2231C68.7338 89.276 68.6155 89.3565 68.5182 89.4591C68.4169 89.5596 68.3366 89.679 68.2818 89.8107C68.227 89.9423 68.1987 90.0835 68.1987 90.2261C68.1987 90.3687 68.227 90.5099 68.2818 90.6415C68.3366 90.7731 68.4169 90.8926 68.5182 90.993C68.6149 91.0974 68.7327 91.1799 68.8638 91.2351C68.9949 91.2903 69.1362 91.3169 69.2784 91.3131C69.4938 91.3144 69.7046 91.2512 69.8839 91.1317C70.0631 91.0122 70.2025 90.8419 70.2842 90.6427C70.3659 90.4434 70.3862 90.2243 70.3425 90.0134C70.2987 89.8025 70.1929 89.6095 70.0387 89.4591C69.9399 89.3585 69.8213 89.2794 69.6905 89.2266C69.5597 89.1738 69.4194 89.1485 69.2784 89.1524Z" fill="#7B7B7B"/>
<path d="M62.9296 84.4573C62.7878 84.456 62.6471 84.4837 62.5164 84.5388C62.3857 84.5938 62.2675 84.675 62.1693 84.7774C62.0687 84.8763 61.9896 84.9948 61.9368 85.1256C61.884 85.2564 61.8588 85.3967 61.8626 85.5377C61.8571 85.6789 61.8816 85.8196 61.9345 85.9507C61.9874 86.0817 62.0674 86.2001 62.1693 86.2979C62.2698 86.3992 62.3893 86.4795 62.5209 86.5343C62.6525 86.5892 62.7937 86.6174 62.9363 86.6174C63.0789 86.6174 63.2201 86.5892 63.3517 86.5343C63.4833 86.4795 63.6028 86.3992 63.7032 86.2979C63.8026 86.1981 63.8809 86.0794 63.9336 85.9489C63.9863 85.8183 64.0123 85.6785 64.01 85.5377C64.0116 85.2538 63.9014 84.9807 63.7032 84.7774C63.6035 84.6734 63.4832 84.5912 63.3501 84.5361C63.2169 84.481 63.0737 84.4541 62.9296 84.4573Z" fill="#7B7B7B"/>
<path d="M103.491 55.5266C103.384 54.5336 103.384 53.532 103.491 52.5389L103.891 47.9506C104.107 45.5044 103.566 43.051 102.344 40.9213L100.063 36.9199C99.5709 36.047 99.1687 35.1264 98.8627 34.1722L97.5288 29.7973C96.7924 27.4522 95.3537 25.3897 93.4073 23.8885L89.7794 21.0741C88.9859 20.4608 88.2614 19.7631 87.6186 18.9934L84.6575 15.4854C83.0831 13.6031 80.9697 12.2485 78.602 11.604L74.0403 10.4036C73.0755 10.1489 72.1409 9.79115 71.2526 9.33652L67.1711 7.18907C64.9939 6.05706 62.5221 5.61948 60.0886 5.93528L55.5269 6.50882C54.5294 6.6156 53.5233 6.6156 52.5258 6.50882L48.0175 6.17537C45.5713 5.96002 43.1179 6.50004 40.9883 7.7226L36.9868 10.0034C36.1151 10.498 35.1943 10.9003 34.2392 11.2039L29.8642 12.5377C27.5208 13.2706 25.4585 14.7044 23.9554 16.6458L21.1411 20.2872C20.5242 21.0776 19.8269 21.8017 19.0603 22.448L15.5524 25.409C13.67 26.9834 12.3154 29.0968 11.6709 31.4646L10.4038 36.0129C10.1433 36.9587 9.78574 37.875 9.33676 38.7472L7.18932 42.8287C6.0573 45.0059 5.61973 47.4777 5.93553 49.9113L6.50907 54.4729C6.61571 55.466 6.61571 56.4676 6.50907 57.4607L6.10892 62.049C5.89357 64.4952 6.43359 66.9486 7.65615 69.0782L9.93698 73.0797C10.4315 73.9514 10.8339 74.8722 11.1374 75.8274L12.4712 80.2023C13.2103 82.5426 14.6429 84.6032 16.5794 86.1111L20.2207 88.9254C21.0108 89.5378 21.7349 90.2306 22.3815 90.9929L25.3426 94.5142C26.9169 96.3965 29.0303 97.7511 31.3981 98.3956L35.8397 99.6093C36.8068 99.869 37.7418 100.236 38.6274 100.703L42.7089 102.811C44.8774 103.97 47.3497 104.436 49.7915 104.144L54.3531 103.571C55.3462 103.464 56.3478 103.464 57.3409 103.571L61.9292 103.971C62.3734 103.999 62.8189 103.999 63.263 103.971C65.2778 103.932 67.2502 103.386 68.9985 102.384L72.9999 100.103C73.8716 99.6083 74.7925 99.206 75.7476 98.9024L80.1225 97.5686C82.4676 96.8321 84.5301 95.3935 86.0313 93.4471L88.8457 89.8191C89.459 89.0257 90.1567 88.3012 90.9264 87.6583L94.4344 84.6973C96.3167 83.1229 97.6713 81.0095 98.3158 78.6417L99.5296 74.2001C99.7892 73.233 100.156 72.298 100.623 71.4124L102.731 67.3309C103.886 65.161 104.352 62.69 104.065 60.2484L103.491 55.5266ZM70.6924 18.3531C70.8907 17.9581 71.168 17.6081 71.5071 17.3246C71.8463 17.0412 72.24 16.8304 72.6639 16.7054C73.0878 16.5803 73.5329 16.5436 73.9716 16.5977C74.4102 16.6517 74.8331 16.7952 75.2141 17.0193C75.8811 17.319 76.4114 17.8579 76.7004 18.5296C76.9893 19.2013 77.0158 19.957 76.7746 20.6473L75.3208 19.887C75.3871 19.5783 75.3417 19.256 75.1927 18.9776C75.0438 18.6991 74.8008 18.4826 74.5071 18.3665C74.3028 18.2586 74.0779 18.195 73.8473 18.1801C73.6167 18.1651 73.3855 18.199 73.1689 18.2796C72.9523 18.3602 72.7552 18.4856 72.5905 18.6477C72.4257 18.8098 72.2971 19.0049 72.213 19.2201C72.0953 19.414 72.0175 19.6294 71.984 19.8536C71.9505 20.0779 71.9621 20.3066 72.0179 20.5264C72.0738 20.7462 72.1729 20.9527 72.3094 21.1337C72.446 21.3148 72.6172 21.4668 72.8132 21.581C73.0876 21.7665 73.4212 21.8434 73.7491 21.7965C74.077 21.7497 74.3757 21.5825 74.5872 21.3275L76.041 22.1012C75.6201 22.722 74.9747 23.1551 74.2407 23.3094C73.5067 23.4636 72.7415 23.327 72.1063 22.9281C71.6957 22.7394 71.3295 22.4663 71.0316 22.1266C70.7338 21.7868 70.5108 21.3881 70.3774 20.9564C70.244 20.5247 70.2031 20.0698 70.2574 19.6212C70.3117 19.1726 70.4599 18.7405 70.6924 18.3531ZM60.302 18.5265L64.6369 13.0045L65.3305 13.1646L66.691 20.0071V20.2338L65.1037 19.8603L64.917 18.98L62.4094 18.3798L61.8492 19.0867L60.262 18.7133L60.302 18.5265ZM54.5799 11.8574L56.2872 12.0042L56.1671 14.3784L58.1812 14.4851L58.3012 12.1109L60.0219 12.2042L59.6884 18.7399L57.9544 18.6732L58.1012 16.0056L56.0871 15.8989L55.9404 18.5665L54.2331 18.4732L54.5799 11.8574ZM32.6919 18.1531L38.5474 22.0211L38.6674 22.2345L37.3336 23.0882L36.5867 22.5947L34.3859 23.9285L34.4926 24.8221L33.1588 25.6891L33.0387 25.4757L32.1851 18.5132L32.6919 18.1531ZM29.1973 20.5139C29.5041 20.9007 29.8242 21.2742 30.1577 21.661L28.9306 22.688L32.1717 26.5561L30.9179 27.6098L27.6634 23.7551L26.4363 24.7955L25.476 23.6484L29.1973 20.5139ZM18.6735 50.6849L12.2445 49.4844L12.818 46.6834C12.9717 46.0834 13.3477 45.5642 13.87 45.2311C14.3922 44.898 15.0215 44.7759 15.6304 44.8895C16.2393 45.0031 16.7823 45.344 17.1492 45.8431C17.5161 46.3421 17.6796 46.962 17.6064 47.5771L17.3797 48.7508L19.0336 49.0576C18.9269 49.5645 18.8202 50.1113 18.6735 50.6849ZM21.3411 41.028L20.4341 41.1081L19.5538 43.5356L20.2074 44.1758L19.6472 45.7097L19.4204 45.6297L14.4186 40.6946L14.6587 40.0277L21.6612 39.4141L21.888 39.4941L21.3411 41.028ZM23.6486 36.4797L22.2214 38.974L16.5527 35.7328L18.8869 31.6646L20.2207 32.3982L18.7135 35.0659L19.4071 35.466L20.0073 34.4123C20.0939 34.0978 20.2515 33.8072 20.4679 33.5631C20.6843 33.319 20.9538 33.1277 21.2557 33.004C21.5576 32.8803 21.8838 32.8275 22.2093 32.8495C22.5348 32.8716 22.8509 32.968 23.1333 33.1314C23.4157 33.2947 23.6569 33.5206 23.8384 33.7917C24.0199 34.0629 24.1368 34.372 24.1801 34.6953C24.2234 35.0187 24.192 35.3477 24.0883 35.657C23.9846 35.9664 23.8114 36.2478 23.5819 36.4797H23.6486ZM22.6083 31.8647C22.2728 31.5801 21.9967 31.2322 21.7958 30.8408C21.5948 30.4495 21.4729 30.0224 21.437 29.584C21.3644 28.6985 21.6466 27.8204 22.2214 27.143C22.7963 26.4656 23.6167 26.0442 24.5022 25.9717C25.3877 25.8991 26.2657 26.1813 26.9432 26.7562C27.6206 27.3399 28.0384 28.1688 28.1047 29.0605C28.171 29.9523 27.8803 30.8338 27.2966 31.5112C26.7129 32.1887 25.884 32.6065 24.9923 32.6728C24.1006 32.7391 23.219 32.4484 22.5416 31.8647H22.6083ZM40.9349 92.5934H38.2673V83.2567H40.9349V92.5934ZM42.2687 74.5602H28.0102V53.1258H42.3221L42.2687 74.5602ZM39.201 22.0478L36.7467 16.0056L40.5081 14.445C40.6948 14.8852 40.8949 15.352 41.0816 15.7789L38.8542 16.7125L39.201 17.5662L41.255 16.7125C41.4418 17.166 41.6418 17.6195 41.8286 18.0464L39.7745 18.8867L40.2147 19.9537L42.5222 18.9934C42.7089 19.4469 42.909 19.9004 43.0957 20.3272L39.201 22.0478ZM42.7623 13.6181L43.3625 13.4847L46.4569 15.7255L48.4577 12.4043L49.0445 12.2843L50.3784 18.6866L48.7111 19.0467L48.0975 16.2057L47.0438 17.913H46.8571L45.2031 16.7792L45.8167 19.6336L44.1894 20.0071L42.7623 13.6181ZM50.8719 88.9388C50.9321 89.9633 50.6141 90.9743 49.9782 91.7798C49.6764 92.1273 49.3004 92.4024 48.8778 92.5848C48.4553 92.7672 47.9972 92.8522 47.5373 92.8335C47.0772 92.8542 46.6185 92.7701 46.1956 92.5875C45.7728 92.405 45.3969 92.1288 45.0964 91.7798C44.4569 90.9756 44.1342 89.9649 44.1894 88.9388V86.8714C44.1492 85.8385 44.4911 84.827 45.1498 84.0303C45.451 83.683 45.8273 83.4088 46.2502 83.2285C46.6731 83.0483 47.1315 82.9667 47.5907 82.99C48.0495 82.9696 48.507 83.0525 48.9294 83.2326C49.3519 83.4127 49.7285 83.6853 50.0316 84.0303C50.6675 84.8359 50.9855 85.8468 50.9252 86.8714L50.8719 88.9388ZM58.8748 88.9388C58.93 89.9649 58.6073 90.9756 57.9678 91.7798C57.6547 92.1133 57.2766 92.3792 56.8568 92.5609C56.4369 92.7426 55.9843 92.8363 55.5269 92.8363C55.0694 92.8363 54.6168 92.7426 54.197 92.5609C53.7772 92.3792 53.3991 92.1133 53.086 91.7798C52.4501 90.9743 52.1321 89.9633 52.1924 88.9388V86.8714C52.1471 85.84 52.4843 84.8283 53.1394 84.0303C53.4554 83.702 53.8345 83.4407 54.2539 83.2623C54.6734 83.0839 55.1245 82.9919 55.5802 82.9919C56.036 82.9919 56.4871 83.0839 56.9065 83.2623C57.326 83.4407 57.7051 83.702 58.0211 84.0303C58.6607 84.8346 58.9834 85.8453 58.9281 86.8714L58.8748 88.9388ZM62.8762 88.0051C62.552 88.0108 62.2302 87.9484 61.9315 87.8221C61.6329 87.6957 61.364 87.5081 61.1423 87.2715C60.8629 86.9838 60.6583 86.632 60.5463 86.2469C60.4344 85.8618 60.4185 85.4551 60.5002 85.0625C60.5818 84.6698 60.7583 84.3031 61.0145 83.9945C61.2706 83.6859 61.5984 83.4448 61.9693 83.2922C62.3402 83.1396 62.7428 83.0802 63.142 83.1193C63.5411 83.1583 63.9246 83.2946 64.2589 83.5162C64.5932 83.7377 64.8681 84.0378 65.0595 84.3902C65.251 84.7426 65.3532 85.1365 65.3571 85.5376C65.3623 85.8625 65.3011 86.1851 65.1773 86.4855C65.0534 86.786 64.8695 87.058 64.6369 87.2849C64.4189 87.5199 64.1547 87.7076 63.861 87.8361C63.5673 87.9646 63.2502 88.0312 62.9296 88.0318L62.8762 88.0051ZM63.6899 92.5934L67.4912 83.2567H68.3049L64.5302 92.5934H63.6899ZM71.0125 92.0332C70.5501 92.4934 69.9243 92.7518 69.2719 92.7518C68.6195 92.7518 67.9937 92.4934 67.5313 92.0332C67.3022 91.8063 67.1204 91.5362 66.9963 91.2386C66.8722 90.941 66.8083 90.6217 66.8083 90.2993C66.8083 89.9768 66.8722 89.6576 66.9963 89.36C67.1204 89.0623 67.3022 88.7923 67.5313 88.5653C67.9937 88.1051 68.6195 87.8468 69.2719 87.8468C69.9243 87.8468 70.5501 88.1051 71.0125 88.5653C71.2416 88.7923 71.4234 89.0623 71.5475 89.36C71.6716 89.6576 71.7355 89.9768 71.7355 90.2993C71.7355 90.6217 71.6716 90.941 71.5475 91.2386C71.4234 91.5362 71.2416 91.8063 71.0125 92.0332ZM77.1214 54.5663L76.2144 54.6597C76.8842 54.8688 77.4672 55.2914 77.8743 55.863C78.2815 56.4345 78.4904 57.1236 78.4693 57.825C78.4481 58.5264 78.198 59.2016 77.7571 59.7475C77.3163 60.2935 76.7089 60.6802 76.0277 60.8486H75.3474C79.0154 61.7689 77.815 66.8774 74.934 67.1842H74.1203C77.1214 67.6644 77.0681 73.3731 72.5331 73.3731H49.9382C48.351 73.3731 46.8971 71.5458 45.7233 71.5458H44.6963V53.9661C45.9805 53.1844 47.2185 52.3293 48.4043 51.4051C50.0582 49.9913 56.4072 41.8283 56.794 37.7335C56.9541 35.9329 56.3805 31.2778 56.794 30.3708C57.2075 29.4638 60.1419 28.5302 61.6625 29.9573C63.183 31.3845 63.7299 35.3727 63.7299 38.3871C63.4999 41.7804 62.9233 45.1414 62.0093 48.4174H77.6016C81.4563 48.4307 81.1896 54.4329 77.1214 54.4996V54.5663ZM80.9361 26.4627C80.7829 26.6895 80.583 26.8809 80.3498 27.0241C80.1166 27.1674 79.8555 27.2591 79.584 27.2932C79.3124 27.3273 79.0367 27.303 78.7754 27.2219C78.514 27.1408 78.2729 27.0047 78.0684 26.8229L75.6542 24.9289L79.6557 19.7937L81.8565 21.5276C82.0679 21.6883 82.2451 21.8897 82.3774 22.1199C82.5097 22.3502 82.5946 22.6046 82.6269 22.8682C82.6592 23.1318 82.6384 23.3993 82.5656 23.6547C82.4929 23.9101 82.3697 24.1483 82.2033 24.3553C82.0718 24.5227 81.9064 24.6604 81.7178 24.7592C81.5293 24.8581 81.322 24.9159 81.1095 24.9289C81.2202 25.1653 81.2627 25.4279 81.232 25.6872C81.2014 25.9464 81.0989 26.192 80.9361 26.3961V26.4627ZM82.6167 26.3294C82.9439 26.021 83.3299 25.7817 83.7515 25.6257C84.1732 25.4697 84.622 25.4003 85.0711 25.4215C85.5202 25.4427 85.9604 25.5542 86.3655 25.7492C86.7706 25.9443 87.1322 26.2189 87.4288 26.5568C87.7255 26.8946 87.951 27.2888 88.092 27.7157C88.233 28.1426 88.2866 28.5936 88.2495 29.0416C88.2124 29.4897 88.0855 29.9257 87.8763 30.3237C87.6671 30.7216 87.3798 31.0733 87.0317 31.3579C86.6971 31.6477 86.3088 31.8689 85.8887 32.0087C85.4687 32.1485 85.0253 32.2042 84.5837 32.1726C84.1422 32.141 83.7112 32.0228 83.3153 31.8246C82.9195 31.6265 82.5665 31.3523 82.2766 31.0177C81.9867 30.6832 81.7656 30.2948 81.6258 29.8748C81.486 29.4548 81.4303 29.0113 81.4619 28.5698C81.4935 28.1282 81.6117 27.6972 81.8099 27.3014C82.008 26.9055 82.2822 26.5526 82.6167 26.2627V26.3294ZM87.2718 37.9469L85.0976 34.3323L90.6997 30.9177L92.8338 34.399L91.5 35.1726L90.1662 33.1185L89.3792 33.5987L90.6997 35.4927L89.3659 36.2663L88.2054 34.3723L87.2318 34.9725C87.7386 35.7861 88.0321 36.3063 88.5656 37.1066L87.2718 37.9469ZM88.8724 41.735C88.5451 40.9125 88.5581 39.9937 88.9082 39.1808C89.2584 38.3678 89.9172 37.7273 90.7397 37.4001C91.5622 37.0728 92.4809 37.0857 93.2939 37.4359C94.1068 37.7861 94.7474 38.4449 95.0746 39.2674C95.3907 39.9287 95.4455 40.685 95.2278 41.3849C95.0102 42.0848 94.5362 42.6767 93.9009 43.0421C93.6874 42.5086 93.5007 42.0417 93.3006 41.5215C93.5419 41.3205 93.7086 41.0441 93.7739 40.7369C93.8392 40.4297 93.7994 40.1094 93.6608 39.8276C93.5757 39.6133 93.4461 39.4195 93.2804 39.259C93.1148 39.0986 92.917 38.9752 92.7001 38.897C92.4832 38.8188 92.2521 38.7876 92.0222 38.8055C91.7923 38.8234 91.5688 38.8899 91.3666 39.0006C91.1501 39.0682 90.9494 39.1789 90.7768 39.3261C90.6042 39.4733 90.4632 39.6539 90.3622 39.857C90.2613 40.0602 90.2025 40.2817 90.1894 40.5081C90.1764 40.7346 90.2093 40.9614 90.2862 41.1748C90.3742 41.4957 90.579 41.7721 90.8603 41.9497C91.1416 42.1274 91.4792 42.1935 91.8068 42.1351C92.0068 42.6553 92.2069 43.1355 92.407 43.669C91.6734 43.8592 90.8946 43.7568 90.235 43.3835C89.5755 43.0102 89.0869 42.3951 88.8724 41.6683V41.735ZM90.8064 48.1773C90.6997 47.6304 90.5796 47.0969 90.4729 46.5634L95.3947 45.5097L95.0613 43.9358L96.5151 43.6156L97.5422 48.364L96.075 48.6842L95.7415 47.1236L90.8064 48.1773ZM96.035 53.0457C96.0683 53.3547 96.0385 53.6673 95.9474 53.9644C95.8563 54.2616 95.7058 54.5371 95.505 54.7743C95.3042 55.0115 95.0573 55.2054 94.7792 55.3443C94.5012 55.4832 94.1978 55.5641 93.8876 55.5822C93.5773 55.6003 93.2666 55.5551 92.9743 55.4495C92.682 55.3439 92.4143 55.18 92.1872 54.9677C91.9602 54.7555 91.7787 54.4993 91.6537 54.2148C91.5287 53.9302 91.4628 53.6233 91.46 53.3125L91.2999 50.4448L97.8223 50.0713C97.8223 50.6182 97.8223 51.1784 97.9156 51.7386L95.9683 51.8453L96.035 53.0457Z" fill="#7B7B7B"/>
<path d="M47.5906 85.4709C47.1371 85.4709 46.9237 85.751 46.9237 86.3246V89.4857C46.9237 90.0593 47.1371 90.3394 47.5906 90.3394C48.0441 90.3394 48.2575 90.0593 48.2575 89.4857V86.3246C48.2575 85.751 48.0174 85.4709 47.5906 85.4709Z" fill="#7B7B7B"/>
<path d="M35.3194 21.6613L33.7722 20.5942L34.0523 22.4482L35.3194 21.6613Z" fill="#7B7B7B"/>
<path d="M14.2852 46.9104C14.2052 47.2972 14.1385 47.7107 14.0718 48.0841L15.9124 48.4309L16.1259 47.2572C16.2993 46.3502 14.4719 45.9634 14.2852 46.9104Z" fill="#7B7B7B"/>
<path d="M64.3702 15.6589L63.2498 17.1662L64.7036 17.5129L64.3702 15.6589Z" fill="#7B7B7B"/>
<path d="M92.847 52.0189C92.847 52.3924 92.847 52.8192 92.847 53.206C92.847 54.1797 94.4876 54.033 94.4343 53.1126V51.9255L92.847 52.0189Z" fill="#7B7B7B"/>
<path d="M83.7504 27.5567C83.5683 27.692 83.4162 27.8636 83.3037 28.0607C83.1913 28.2578 83.121 28.4761 83.0972 28.7018C83.0734 28.9274 83.0967 29.1556 83.1656 29.3718C83.2345 29.588 83.3474 29.7875 83.4974 29.9578C83.6473 30.1281 83.831 30.2655 84.0367 30.3612C84.2424 30.4569 84.4658 30.5089 84.6927 30.5139C84.9195 30.5189 85.1449 30.4768 85.3547 30.3902C85.5644 30.3036 85.7539 30.1745 85.9112 30.0109C86.0934 29.8756 86.2455 29.704 86.3579 29.5069C86.4704 29.3098 86.5407 29.0916 86.5645 28.8659C86.5883 28.6402 86.565 28.4121 86.4961 28.1959C86.4272 27.9797 86.3142 27.7801 86.1643 27.6098C86.0143 27.4395 85.8307 27.3022 85.6249 27.2064C85.4192 27.1107 85.1959 27.0587 84.969 27.0537C84.7421 27.0488 84.5167 27.0909 84.307 27.1774C84.0972 27.264 83.9077 27.3932 83.7504 27.5567Z" fill="#7B7B7B"/>
<path d="M53.8997 1.08695e-05C43.0256 0.218483 32.4605 3.65648 23.5402 9.87928C14.62 16.1021 7.74532 24.8302 3.78543 34.96C-0.174461 45.0898 -1.0417 56.1663 1.29338 66.789C3.62845 77.4117 9.06097 87.1034 16.904 94.6387C24.747 102.174 34.6483 107.214 45.3559 109.123C56.0635 111.031 67.0965 109.721 77.0597 105.359C87.023 100.997 95.4691 93.7787 101.33 84.6166C107.191 75.4546 110.203 64.7604 109.987 53.8863C109.845 46.6646 108.281 39.5418 105.385 32.9247C102.489 26.3077 98.3171 20.3261 93.1085 15.3218C87.8998 10.3176 81.7562 6.38872 75.0286 3.75973C68.3009 1.13074 61.1212 -0.146831 53.8997 1.08695e-05ZM102.504 72.1996C102.111 72.9596 101.803 73.7602 101.584 74.5871L100.37 79.0154C99.6168 81.7909 98.029 84.268 95.8216 86.1113L92.3136 89.0724C91.6594 89.622 91.0648 90.239 90.5396 90.9131L87.7253 94.5544C85.9666 96.8258 83.556 98.5058 80.8161 99.3695L76.4279 100.703C75.6105 100.96 74.8234 101.304 74.0803 101.73L70.0789 104.011C67.5845 105.439 64.7121 106.068 61.8492 105.812L57.3543 105.478C56.5032 105.385 55.6444 105.385 54.7933 105.478L50.2317 106.052C47.3842 106.416 44.4935 105.9 41.9487 104.571L37.8672 102.451C37.1049 102.059 36.305 101.747 35.4796 101.517L31.0514 100.316C28.2759 99.5634 25.7988 97.9756 23.9555 95.7682L20.9944 92.2602C20.4435 91.6025 19.8217 91.0076 19.1404 90.4862L15.5124 87.6719C13.2399 85.9312 11.5511 83.5399 10.6706 80.8161L9.33681 76.4278C9.07475 75.6126 8.73064 74.826 8.30977 74.0803L6.02894 70.0788C4.60417 67.5828 3.97156 64.7128 4.21495 61.8492L4.52173 57.3542C4.61502 56.5031 4.61502 55.6444 4.52173 54.7933L3.94818 50.2316C3.54098 47.3719 4.02537 44.4563 5.33535 41.8819L7.44279 37.8004C7.83957 37.0407 8.15263 36.2402 8.37646 35.4129L9.59023 30.9846C10.3437 28.2125 11.9259 25.7367 14.1252 23.8887L17.6465 20.9276C18.301 20.3733 18.8956 19.7519 19.4205 19.0736L22.2348 15.4456C24.0099 13.1823 26.4348 11.5161 29.184 10.6706L33.5723 9.33674C34.3863 9.08284 35.1693 8.73834 35.9065 8.3097L39.9079 6.02887C42.3994 4.60517 45.2649 3.97253 48.1242 4.21488L52.7126 4.61502C53.5637 4.70832 54.4224 4.70832 55.2735 4.61502L59.8352 4.04148C60.3357 3.92248 60.8437 3.83781 61.3557 3.78805C63.704 3.72852 66.0294 4.26059 68.1182 5.33528L72.1997 7.44272C72.9593 7.8395 73.7599 8.15256 74.5872 8.37639L79.0155 9.59016C81.7876 10.3436 84.2633 11.9259 86.1114 14.1251L89.0725 17.6464C89.6221 18.3007 90.239 18.8953 90.9131 19.4204L94.5545 22.2348C96.8259 23.9935 98.5059 26.4041 99.3695 29.1439L100.703 33.5322C100.957 34.3463 101.302 35.1292 101.73 35.8664L104.011 39.8678C105.437 42.3584 106.065 45.2257 105.812 48.0842L105.425 52.6725C105.332 53.5236 105.332 54.3823 105.425 55.2334L105.999 59.7951C106.363 62.6425 105.846 65.5333 104.518 68.0781L102.504 72.1996Z" fill="#7B7B7B"/>
</g>
<defs>
<clipPath id="clip0">
<rect width="110" height="110" fill="white"/>
</clipPath>
</defs>
</svg>
