<svg width="235" height="100" viewBox="0 0 235 100" fill="none" xmlns="http://www.w3.org/2000/svg">
<g clip-path="url(#clip0)">
<path d="M152.096 49.8817C151.772 50.0427 151.418 50.1375 151.057 50.1608C150.695 50.184 150.333 50.1351 149.99 50.0169C149.648 49.8987 149.332 49.7136 149.062 49.4723C148.791 49.231 148.57 48.9383 148.413 48.611L134.624 20.6855C134.427 20.3563 134.301 19.9899 134.252 19.6093C134.204 19.2287 134.235 18.8421 134.343 18.474C134.45 18.1059 134.633 17.7642 134.879 17.4704C135.126 17.1767 135.43 16.9373 135.773 16.7674C136.116 16.5974 136.49 16.5006 136.872 16.4829C137.255 16.4653 137.636 16.5273 137.993 16.665C138.351 16.8027 138.675 17.013 138.947 17.2829C139.219 17.5527 139.433 17.8761 139.574 18.2328L140.016 19.0897L158.49 9.95854C160.243 9.09315 162.149 8.58248 164.098 8.4557C166.048 8.32893 168.003 8.58851 169.853 9.21964C171.702 9.85077 173.41 10.8411 174.878 12.134C176.346 13.427 177.545 14.9973 178.408 16.7552C179.271 18.5132 179.78 20.4244 179.907 22.3797C180.033 24.335 179.774 26.2961 179.145 28.151C178.516 30.006 177.528 31.7185 176.239 33.1908C174.95 34.663 173.384 35.8662 171.631 36.7316L153.216 45.715L153.452 46.1879C153.609 46.5189 153.699 46.8782 153.716 47.2446C153.733 47.611 153.677 47.9772 153.551 48.3214C153.424 48.6657 153.231 48.9811 152.981 49.2491C152.731 49.517 152.43 49.7321 152.096 49.8817Z" fill="#7B7B7B"/>
<path d="M234.214 10.2541L206.252 7.83097L179.734 20.2719C179.42 19.0172 178.976 17.799 178.408 16.6371C177.823 15.4826 177.132 14.3845 176.346 13.357L204.779 0L234.862 2.60047L234.214 10.2541Z" fill="#7B7B7B"/>
<path d="M140.045 58.0675C138.572 53.5462 132.119 54.4623 129.467 57.0628C125.873 60.7862 126.934 65.0415 127.051 69.5923C127.228 78.1325 120.893 87.7956 110.905 86.259C113.319 84.0191 114.916 81.0336 115.442 77.7779C115.678 73.1384 111.14 66.2531 106.073 70.4493C103.126 72.9611 103.715 79.1372 101.535 82.2696C98.9261 85.2985 95.6184 87.642 91.9001 89.0958C92.9214 87.6543 93.6073 86.0013 93.9071 84.2587C94.2069 82.516 94.113 80.7281 93.6323 79.0267C93.1517 77.3252 92.2965 75.7537 91.1298 74.4277C89.9631 73.1018 88.5146 72.0553 86.8911 71.3654C85.2799 70.7985 83.5628 70.5999 81.8652 70.7839C80.1677 70.968 78.5326 71.5301 77.0794 72.4292C74.3047 74.1419 71.9966 76.5177 70.3615 79.3441C69.3597 70.4788 77.5214 64.5687 84.7402 61.3772C87.1195 60.6399 89.2438 59.2454 90.8696 57.3535C92.4954 55.4616 93.5571 53.1488 93.9331 50.6798C94.0878 48.8858 93.7084 47.0861 92.843 45.5084C92.2633 44.2956 91.3544 43.2714 90.2206 42.5533C87.5983 41.2826 87.2741 41.0462 89.4545 38.9481C90.7455 37.7072 92.2811 36.7509 93.9626 36.1408C102.596 32.9197 103.598 42.3464 110.227 44.3559C114.234 45.6561 118.035 43.4694 116.267 38.4457C115.03 34.9292 112.702 36.0521 109.608 35.4906C113.969 27.6892 122.897 22.1632 131.618 26.2708C132.408 26.8461 133.076 27.5736 133.582 28.4109C134.088 29.2481 134.422 30.1782 134.565 31.1467V31.3831C132.195 30.5654 129.649 30.4122 127.199 30.9398C125.013 32.1461 123.183 33.9096 121.895 36.0521C122.985 34.9883 125.166 37.1455 125.519 38.2093C126.079 39.8051 125.313 40.8689 124.488 42.2282C122.949 44.5617 120.852 46.4717 118.389 47.7838C114.824 49.5568 111.524 48.7294 108.459 51.7732C106.303 54.0581 104.975 57.0033 104.688 60.136C107.467 58.1544 110.526 56.6005 113.763 55.5261C116.709 54.8464 121.1 58.2448 123.015 56.8854C125.667 54.9942 127.228 51.2708 130.322 49.7933C133.887 48.0202 138.012 50.7684 140.134 46.454C140.506 45.6823 140.745 44.853 140.841 44.0013C142.005 46.1941 142.547 48.6656 142.407 51.1461C142.267 53.6266 141.45 56.0208 140.045 58.0675Z" fill="#FFC81A"/>
<path d="M51.0327 94.3853C51.0327 94.3853 34.8861 95.656 31.4387 94.1489C36.2776 94.5864 41.1542 94.0055 45.7562 92.4433C50.3582 90.881 54.5841 88.372 58.1631 85.0768C62.6123 79.5212 65.4704 74.8818 65.4704 67.1985C65.4762 60.7039 63.5613 54.3535 59.9678 48.9506C56.3744 43.5477 51.2639 39.3351 45.2828 36.8456C39.3018 34.3562 32.7189 33.7018 26.3669 34.9653C20.015 36.2287 14.1794 39.3532 9.59835 43.9435C5.01731 48.5339 1.89665 54.3837 0.631171 60.7531C-0.634313 67.1225 0.0122298 73.7252 2.48901 79.726C4.96579 85.7268 9.16152 90.8561 14.5454 94.4649C19.9293 98.0737 26.2595 100 32.7352 100H223.489V94.3853H51.0327ZM21.0967 67.169C21.0967 64.8312 21.7879 62.5458 23.0829 60.602C24.378 58.6581 26.2187 57.1431 28.3723 56.2484C30.5258 55.3538 32.8956 55.1197 35.1818 55.5758C37.468 56.0319 39.5681 57.1577 41.2164 58.8108C42.8646 60.4639 43.9871 62.57 44.4419 64.863C44.8966 67.1559 44.6632 69.5326 43.7712 71.6924C42.8792 73.8523 41.3685 75.6984 39.4304 76.9972C37.4922 78.2961 35.2135 78.9893 32.8825 78.9893C29.7567 78.9893 26.7589 77.744 24.5487 75.5272C22.3384 73.3105 21.0967 70.3039 21.0967 67.169Z" fill="#7B7B7B"/>
</g>
<defs>
<clipPath id="clip0">
<rect width="234.862" height="100" fill="white"/>
</clipPath>
</defs>
</svg>
