<svg width="21" height="26" viewBox="0 0 21 26" fill="none" xmlns="http://www.w3.org/2000/svg">
<path d="M15.6666 12.6653H18.3333C18.3333 5.82534 13.1693 0.666672 6.31995 0.666672V3.33334C11.7359 3.33334 15.6666 7.25734 15.6666 12.6653Z" fill="white"/>
<path d="M13.3337 8.41959C16.1377 8.41959 17.3337 9.61559 17.3337 12.4196H20.0004C20.0004 8.11959 17.6337 5.75292 13.3337 5.75292V8.41959ZM17.8964 15.6769C17.6402 15.4441 17.3035 15.3199 16.9574 15.3306C16.6114 15.3413 16.283 15.486 16.0417 15.7343L12.851 19.0156C12.083 18.8689 10.539 18.3876 8.94971 16.8023C7.36038 15.2116 6.87904 13.6636 6.73638 12.9009L10.015 9.70892C10.2636 9.46776 10.4086 9.13935 10.4193 8.7932C10.43 8.44705 10.3056 8.11031 10.0724 7.85426L5.14571 2.43692C4.91243 2.18007 4.58821 2.02426 4.24191 2.0026C3.89561 1.98094 3.55451 2.09513 3.29104 2.32092L0.39771 4.80226C0.167191 5.03361 0.029602 5.34152 0.0110426 5.66759C-0.00895738 6.00092 -0.390291 13.8969 5.73238 20.0223C11.0737 25.3623 17.7644 25.7529 19.607 25.7529C19.8764 25.7529 20.0417 25.7449 20.0857 25.7423C20.4117 25.724 20.7195 25.5858 20.9497 25.3543L23.4297 22.4596C23.6557 22.1963 23.7701 21.8553 23.7487 21.509C23.7273 21.1627 23.5717 20.8384 23.315 20.6049L17.8964 15.6769Z" fill="#FBBA08"/>
</svg>
