<svg width="98" height="66" viewBox="0 0 98 66" fill="none" xmlns="http://www.w3.org/2000/svg">
<path d="M53.9874 21.1056C55.17 16.7866 58.0151 14.2501 61.6314 14.2501C62.8821 14.3031 64.1098 14.6047 65.2427 15.1373C66.3756 15.67 67.3911 16.4229 68.2298 17.3522L70.6807 19.8031C70.7816 18.6826 71.2729 17.6331 72.0689 16.8381L78.0504 10.8395C78.0854 10.5963 78.1369 10.3558 78.2046 10.1196H50.7825V25.6989H52.7192L53.9874 21.1056Z" fill="#7B7B7B"/>
<path d="M46.7206 10.0857H16.7961V25.6478H46.7206V10.0857Z" fill="#7B7B7B"/>
<path d="M34.0378 29.7783V45.3575H47.4233L51.6394 29.7783H34.0378Z" fill="#7B7B7B"/>
<path d="M46.395 49.4707H16.7961V65.1185H46.7206V54.0468C46.2354 52.5718 46.1236 50.9995 46.395 49.4707V49.4707Z" fill="#7B7B7B"/>
<path d="M29.9244 29.7783H0V45.3404H29.9244V29.7783Z" fill="#7B7B7B"/>
<path d="M82.1466 29.7783L81.4097 30.5153L87.8196 36.9081C89.0029 37.9254 89.8935 39.2399 90.3997 40.7161C90.9058 42.1923 91.0091 43.7767 90.6989 45.3061V45.3061H98.0001V29.7783H82.1466Z" fill="#7B7B7B"/>
<path d="M53.919 58.8973C52.8646 58.9002 51.8188 58.7084 50.834 58.3317V65.1187H80.7413V52.0417L57.0725 58.4517C56.0449 58.7354 54.985 58.8852 53.919 58.8973V58.8973Z" fill="#7B7B7B"/>
<path d="M78.8389 31.8863L72.2233 38.5019C72.0318 38.6927 71.8046 38.8439 71.5546 38.9468C71.3046 39.0497 71.0368 39.1024 70.7665 39.1017C70.2212 39.0993 69.6985 38.8841 69.3097 38.5019C69.1145 38.2672 68.974 37.992 68.8983 37.6963C69.0787 37.7681 69.27 37.8086 69.4639 37.8163C69.7342 37.817 70.0021 37.7643 70.252 37.6614C70.502 37.5585 70.7292 37.4073 70.9207 37.2164L81.6496 26.4704C81.8409 26.2808 81.9926 26.0552 82.0962 25.8066C82.1998 25.558 82.2531 25.2914 82.2531 25.0221C82.2531 24.7529 82.1998 24.4862 82.0962 24.2377C81.9926 23.9891 81.8409 23.7635 81.6496 23.5739L78.3761 20.2832L83.7063 14.9359H84.1862C84.6385 14.9363 85.0864 14.8471 85.5041 14.6736C85.9218 14.5 86.301 14.2455 86.6199 13.9247L94.658 5.86946C94.9776 5.55099 95.2314 5.17268 95.4048 4.75614C95.5782 4.3396 95.6678 3.89299 95.6686 3.4418C95.6694 2.99062 95.5813 2.54369 95.4094 2.12654C95.2375 1.70939 94.9851 1.33019 94.6666 1.01059C94.3481 0.690994 93.9698 0.437251 93.5533 0.263854C93.1367 0.090457 92.6901 0.000801089 92.2389 5.34395e-06C91.7878 -0.000790401 91.3408 0.0872896 90.9237 0.259216C90.5065 0.431143 90.1273 0.68355 89.8077 1.00202L81.7696 9.04015C81.3893 9.42155 81.1042 9.88722 80.9374 10.3994C80.7707 10.9116 80.727 11.4558 80.8098 11.988L73.9543 18.8436C73.7626 19.0346 73.6104 19.2617 73.5066 19.5117C73.4028 19.7617 73.3494 20.0297 73.3494 20.3004C73.3494 20.5711 73.4028 20.8391 73.5066 21.0891C73.6104 21.3391 73.7626 21.5661 73.9543 21.7572L77.245 25.0307L74.5713 27.7044L66.2418 19.3577C62.3513 15.4672 58.0323 16.6327 56.5926 21.9286L49.3429 48.7852C47.9032 54.0982 51.0568 57.2346 56.3527 55.795L83.3121 48.4938C88.6252 47.0541 89.7735 42.7352 85.8829 38.8446L78.8389 31.8863Z" fill="#7B7B7B"/>
</svg>
