<svg width="100" height="81" viewBox="0 0 100 81" fill="none" xmlns="http://www.w3.org/2000/svg">
<g clip-path="url(#clip0)">
<path d="M65.4419 0C68.6964 1.58429 71.1292 4.02 73.074 7.06285C74.3298 8.99392 76.2941 10.3528 78.5424 10.8457C84.158 12.236 87.4412 15.9004 88.6612 21.4723C89.3143 24.4577 91.0079 26.0276 94.1045 26.3186C94.4006 26.3121 94.6913 26.3975 94.937 26.5629C96.6342 28.3232 98.3422 30.08 99.9174 31.9517C100.144 32.2175 99.8744 33.2557 99.5156 33.6078C97.0038 36.0722 94.3844 38.4361 91.8332 40.8682C91.0689 41.5867 90.4661 41.6514 89.7377 40.8359C88.3419 39.2768 86.8671 37.7787 85.4821 36.2267C85.196 35.9297 85.0038 35.5548 84.9295 35.149C84.5025 31.1613 83.6054 30.177 79.6584 28.9196C74.9937 27.4287 72.1231 24.1272 70.6591 19.4785C70.3183 18.4008 69.676 17.3949 69.2526 16.3207C68.4344 14.2478 67.0243 12.1462 67.0314 10.059C67.0494 6.24735 66.0985 3.27995 62.7256 1.30767L65.083 0H65.4419ZM81.0363 25.6217C81.6047 25.6393 82.1703 25.5337 82.6943 25.3121C83.2182 25.0905 83.6881 24.7582 84.0718 24.3378C84.4555 23.9175 84.744 23.4191 84.9174 22.8768C85.0908 22.3345 85.1451 21.761 85.0766 21.1957C84.7967 17.905 81.7718 14.7616 78.4743 14.3412C77.5779 14.2521 76.6777 14.4696 75.9206 14.9582C75.1634 15.4469 74.5939 16.1778 74.3048 17.032C73.1458 20.6784 76.9636 25.5534 81.0363 25.6217Z" fill="#7B7B7B"/>
<path d="M42.5419 47.0905L24.0698 30.6764L30.2702 23.5453C32.8538 25.6541 35.6203 27.9065 38.394 30.177C41.8099 32.9863 45.2762 35.7454 48.6024 38.6625C49.948 39.8444 50.7554 39.8696 52.1261 38.6158C57.8672 33.3025 63.7519 28.1185 69.4859 22.9705L75.593 29.6022C73.3324 31.9912 71.0073 34.6317 68.4883 37.0818C57.4701 47.8066 46.4208 58.4931 35.3404 69.1412C31.684 72.6762 28.0635 76.2472 24.3569 79.7247C23.6894 80.3462 22.6668 80.5833 21.8092 81L21.4755 80.4719L40.2814 62.8328L40.0158 62.4735C39.4812 62.8795 38.9178 63.2531 38.4155 63.695C32.5667 68.8215 26.7036 73.9264 20.9086 79.1104C19.7926 80.1091 19.1145 79.9726 18.2677 78.7332L37.1955 61.0006L36.7506 60.4905L17.0154 77.3393L16.47 77.1453C16.6781 76.531 16.714 75.755 17.1194 75.3239C21.3069 70.9159 25.4764 66.4612 29.8002 62.1718C32.6708 59.2978 35.7459 56.6537 38.5805 53.7294C29.9652 59.3157 22.9646 66.8205 15.2787 73.5133L14.7979 73.1971C15.3074 72.3565 15.659 71.3362 16.3587 70.7004C23.0795 64.5931 29.8648 58.529 36.6286 52.4505C38.5303 50.744 40.4177 49.0161 42.5419 47.0905Z" fill="#7B7B7B"/>
<path d="M36.0258 1.48732C35.5234 1.90765 35.118 2.22738 34.7448 2.59381C33.0153 4.29306 31.8742 6.18631 32.2617 8.78368C32.7175 11.7547 31.7594 14.4203 30.1662 16.9243C29.5596 17.8607 29.1122 18.8914 28.8422 19.9743C27.676 25.0038 24.6368 28.237 19.8716 30.0872C18.4866 30.626 17.2522 31.6499 16.0825 32.6019C15.5837 33.0151 15.0383 33.9491 15.1818 34.4628C15.8995 37.15 13.8973 38.4146 12.5517 40.0276C9.78875 43.3111 9.76722 43.2896 6.55577 40.509C4.66478 38.878 2.79173 37.2003 0.846917 35.616C-0.254666 34.7143 -0.258254 33.9563 0.717741 32.9576C1.75115 31.8798 2.67332 30.7015 3.64214 29.5663C4.48178 28.5855 5.2066 27.8239 6.82847 27.8023C8.8307 27.7772 9.91075 25.9486 10.6105 24.1667C10.9693 23.2866 11.0662 22.3166 11.3281 21.3933C12.6342 16.504 15.634 13.1055 20.5498 11.8445C23.1764 11.1691 24.6332 9.43392 26.169 7.53349C27.7047 5.63306 29.1938 3.76497 30.8588 2.00105C32.312 0.463463 34.0882 0.499388 36.0258 1.48732ZM25.3903 19.3277C25.3688 16.759 23.7577 15.2178 21.2029 15.3148C17.7187 15.4478 14.2202 19.4749 14.5826 22.9273C14.8374 25.2984 16.7355 26.915 18.9674 26.6384C22.3726 26.2252 25.419 22.7441 25.3903 19.3277Z" fill="#7B7B7B"/>
<path d="M83.7671 77.0806C82.9274 78.4242 82.1739 78.4135 81.0795 77.5189C75.1553 72.6727 69.1774 67.891 63.2102 63.0915C62.7796 62.7322 62.3024 62.4592 61.8431 62.1431L61.5668 62.5023L80.5843 78.8913L80.3762 79.3942C79.6047 79.1427 78.6539 79.0996 78.0941 78.6075C70.0924 71.5913 62.1481 64.5177 53.8665 57.1674L61.3587 49.1526L71.0684 57.1387C75.733 60.9755 80.4193 64.7871 85.0409 68.6814C85.8557 69.4467 86.462 70.4075 86.8027 71.4728C78.5749 65.4014 71.2944 58.2165 62.6504 52.7918L62.3418 53.151C62.7868 53.557 63.2209 53.9737 63.6802 54.3581C70.8567 60.4043 78.2556 66.2133 84.4919 73.3013C84.6498 73.481 84.8973 73.6211 84.9691 73.8294C85.1144 74.3235 85.2342 74.8247 85.3279 75.3311C84.8722 75.209 84.3161 75.209 83.9716 74.9395C81.5173 73.0319 79.1203 71.0524 76.6732 69.1305C73.0514 66.29 69.4154 63.4651 65.765 60.6558C65.3905 60.3957 65.0024 60.1559 64.6024 59.9373L64.283 60.3288L83.7671 77.0806Z" fill="#7B7B7B"/>
</g>
<defs>
<clipPath id="clip0">
<rect width="100" height="81" fill="white"/>
</clipPath>
</defs>
</svg>
