<svg width="65" height="84" viewBox="0 0 65 84" fill="none" xmlns="http://www.w3.org/2000/svg">
<path d="M51.0089 4.84585H49.5879V1.4574C49.5879 1.07087 49.4344 0.700178 49.1611 0.426862C48.8878 0.153547 48.5171 0 48.1305 0L16.8147 0C16.4281 0 16.0575 0.153547 15.7841 0.426862C15.5108 0.700178 15.3573 1.07087 15.3573 1.4574V4.84585H13.9545C13.7655 4.84823 13.5788 4.88781 13.4051 4.96234C13.2314 5.03687 13.0741 5.14489 12.9422 5.28023C12.8102 5.41556 12.7062 5.57556 12.6361 5.7511C12.566 5.92663 12.5312 6.11425 12.5336 6.30325V11.8596C12.5312 12.0486 12.566 12.2362 12.6361 12.4117C12.7062 12.5873 12.8102 12.7473 12.9422 12.8826C13.0741 13.0179 13.2314 13.126 13.4051 13.2005C13.5788 13.275 13.7655 13.3146 13.9545 13.317H15.3573V17.7256C15.3573 18.1121 15.5108 18.4828 15.7841 18.7562C16.0575 19.0295 16.4281 19.183 16.8147 19.183H18.2174L23.4823 25.3041V35.7427C23.4823 36.1292 23.6358 36.4999 23.9091 36.7733C24.1825 37.0466 24.5531 37.2001 24.9397 37.2001H25.5044V49.7337C25.5044 50.1203 25.658 50.491 25.9313 50.7643C26.2046 51.0376 26.5753 51.1911 26.9618 51.1911H29.2754V60.7007C29.2754 60.8936 29.3137 61.0846 29.3881 61.2626C29.4625 61.4407 29.5715 61.6021 29.7087 61.7377C29.846 61.8733 30.0088 61.9802 30.1877 62.0524C30.3667 62.1246 30.5581 62.1605 30.7511 62.1581H30.4231V75.4022C30.4441 76.1495 30.1841 76.8776 29.6944 77.4425C29.4744 77.7213 29.3274 78.0506 29.267 78.4006C29.2065 78.7505 29.2345 79.1101 29.3483 79.4465L30.0224 81.8694C30.1498 82.2592 30.3919 82.6016 30.7168 82.8518C31.0418 83.102 31.4346 83.2485 31.8441 83.2721H33.1193C33.5288 83.2485 33.9216 83.102 34.2466 82.8518C34.5716 82.6016 34.8136 82.2592 34.9411 81.8694L35.6151 79.4465C35.7315 79.1115 35.7624 78.7529 35.7051 78.403C35.6479 78.053 35.5042 77.7229 35.2872 77.4425C34.7976 76.8776 34.5376 76.1495 34.5585 75.4022V62.1581H34.2306C34.6171 62.1581 34.9878 62.0045 35.2611 61.7312C35.5344 61.4579 35.688 61.0872 35.688 60.7007V51.1911H38.0016C38.1945 51.1936 38.386 51.1576 38.5649 51.0855C38.7439 51.0133 38.9067 50.9063 39.0439 50.7708C39.1812 50.6352 39.2902 50.4737 39.3646 50.2957C39.439 50.1177 39.4772 49.9267 39.4772 49.7337V37.2001H40.0784C40.4649 37.2001 40.8356 37.0466 41.1089 36.7733C41.3823 36.4999 41.5358 36.1292 41.5358 35.7427V25.3041L46.8007 19.183H48.1123C48.4988 19.183 48.8695 19.0295 49.1429 18.7562C49.4162 18.4828 49.5697 18.1121 49.5697 17.7256V13.317H51.0089C51.1971 13.3146 51.3829 13.2749 51.5556 13.2002C51.7283 13.1254 51.8844 13.0171 52.0149 12.8815C52.1454 12.7459 52.2477 12.5858 52.3158 12.4104C52.3839 12.2349 52.4165 12.0477 52.4116 11.8596V6.39434C52.4293 6.19882 52.4062 6.00178 52.3439 5.81563C52.2815 5.62948 52.1813 5.45826 52.0495 5.31277C51.9177 5.16728 51.7572 5.05068 51.5781 4.97032C51.399 4.88995 51.2052 4.84758 51.0089 4.84585V4.84585ZM38.6757 28.2189V34.2853H26.3242V28.2189H38.6757ZM46.7096 6.48543V16.2682H18.2174V6.48543H46.7096Z" fill="#7B7B7B"/>
<path d="M63.5242 6.57629H55.3628V11.5861L63.5424 10.3473C63.9362 10.2677 64.2925 10.0602 64.5561 9.75709C64.8197 9.45398 64.9757 9.07225 64.9998 8.6713V8.03368C64.9999 7.84075 64.9616 7.64974 64.8872 7.47172C64.8128 7.2937 64.7038 7.13223 64.5666 6.99665C64.4293 6.86108 64.2665 6.75411 64.0875 6.68195C63.9086 6.60979 63.7171 6.57387 63.5242 6.57629Z" fill="#7B7B7B"/>
<path d="M0 8.03406V8.67167C0.0231734 9.07011 0.176552 9.44992 0.436562 9.75271C0.696572 10.0555 1.04882 10.2645 1.43918 10.3477L9.61883 11.5865V6.57666H1.4574C1.07087 6.57666 0.700178 6.73021 0.426862 7.00352C0.153547 7.27684 0 7.64753 0 8.03406H0Z" fill="#7B7B7B"/>
</svg>
