<svg width="123" height="65" viewBox="0 0 123 65" fill="none" xmlns="http://www.w3.org/2000/svg">
<path d="M16.0212 41.011C17.5527 41.0062 19.0512 41.4564 20.3266 42.3043C21.602 43.1523 22.5969 44.3598 23.1852 45.7739C23.7735 47.1879 23.9287 48.7449 23.631 50.2472C23.3334 51.7496 22.5964 53.1297 21.5134 54.2127C20.4304 55.2957 19.0503 56.0327 17.5479 56.3303C16.0455 56.628 14.4886 56.4728 13.0746 55.8845C11.6605 55.2962 10.453 54.3013 9.60501 53.0259C8.75707 51.7505 8.30692 50.2521 8.31164 48.7205C8.31794 46.6777 9.13221 44.7204 10.5767 43.276C12.0211 41.8315 13.9784 41.0172 16.0212 41.011V41.011ZM16.0212 35.2825C13.3577 35.2825 10.754 36.0726 8.5397 37.5529C6.32539 39.0332 4.59996 41.137 3.58177 43.5983C2.56358 46.0595 2.29838 48.7675 2.81975 51.3794C3.34112 53.9914 4.62561 56.3901 6.51068 58.2718C8.39574 60.1535 10.7967 61.4338 13.4096 61.9505C16.0225 62.4672 18.73 62.1972 21.1894 61.1747C23.6488 60.1521 25.7496 58.423 27.226 56.206C28.7023 53.9891 29.4878 51.384 29.4831 48.7205C29.4831 46.9538 29.1347 45.2044 28.4579 43.5725C27.7811 41.9406 26.7891 40.4581 25.5387 39.2099C24.2884 37.9618 22.8042 36.9725 21.171 36.2985C19.5379 35.6246 17.7879 35.2794 16.0212 35.2825V35.2825Z" fill="#7B7B7B"/>
<path d="M120.136 10.865H105.266C104.649 10.8631 104.048 11.0552 103.547 11.414L69.3912 36.5715H27.9553C27.317 36.5714 26.6965 36.7811 26.189 37.1682L16.2119 44.9493H16.021C15.4496 44.952 14.8862 45.0844 14.3735 45.3366C13.8608 45.5888 13.4121 45.9543 13.0613 46.4053L2.34428 48.458C1.63924 48.5882 1.00865 48.978 0.577077 49.5505C0.145501 50.123 -0.0556757 50.8366 0.0132881 51.5502C0.0822519 52.2638 0.416341 52.9256 0.949559 53.4049C1.48278 53.8842 2.17635 54.146 2.89326 54.1388H3.44224L14.207 52.0622C14.7827 52.3867 15.4317 52.5592 16.0926 52.5634C16.9666 52.5496 17.8086 52.2326 18.4747 51.6666C19.1409 51.1006 19.5897 50.3208 19.7445 49.4605L28.9339 42.2999H44.6872L51.8477 62.8031C51.9683 63.152 52.1886 63.4578 52.4814 63.6827C52.7741 63.9076 53.1265 64.0416 53.4947 64.0681H53.6379C53.9778 64.0663 54.3113 63.9748 54.6046 63.803C54.898 63.6312 55.1408 63.3851 55.3087 63.0895L67.052 42.2761H70.2266C70.8384 42.2726 71.4328 42.0717 71.9212 41.7032L106.197 16.5935H120.136C120.895 16.5935 121.624 16.2917 122.161 15.7546C122.698 15.2174 123 14.4889 123 13.7292C123 12.9696 122.698 12.2411 122.161 11.7039C121.624 11.1668 120.895 10.865 120.136 10.865V10.865ZM54.1391 57.5758L48.7448 42.2999H62.7557L54.1391 57.5758Z" fill="#7B7B7B"/>
<path d="M87.5553 15.0898L11.0803 0.0525779C10.327 -0.09302 9.54674 0.066597 8.91111 0.496315C8.27549 0.926033 7.8366 1.59065 7.69101 2.34396C7.54541 3.09727 7.70502 3.87757 8.13474 4.51319C8.56446 5.14882 9.22908 5.5877 9.98239 5.7333L15.5199 6.80739L27.6929 29.9838C28.1591 30.7716 28.8126 31.4322 29.5954 31.9069C30.3782 32.3815 31.266 32.6556 32.1802 32.7048H65.3575C67.297 32.5995 69.1418 31.8329 70.5847 30.5328L81.3495 19.7203L86.4574 20.7228H87.0063C87.6881 20.6832 88.3333 20.4013 88.8256 19.928C89.3179 19.4546 89.6248 18.8209 89.6911 18.1412C89.7573 17.4615 89.5785 16.7804 89.1869 16.2209C88.7953 15.6614 88.2166 15.2603 87.5553 15.0898V15.0898Z" fill="#7B7B7B"/>
</svg>
