<svg width="68" height="68" viewBox="0 0 68 68" fill="none" xmlns="http://www.w3.org/2000/svg">
<circle cx="34" cy="34" r="34" fill="#FBBA08"/>
<path d="M33.998 18C29.649 18 29.107 18.0216 27.405 18.0957C25.696 18.1822 24.54 18.4551 23.52 18.8628C22.4525 19.2777 21.4857 19.9273 20.687 20.7664C19.8697 21.5867 19.2384 22.5826 18.838 23.6831C18.442 24.7332 18.177 25.9233 18.093 27.6828C18.016 29.4361 18 29.9931 18 34.4706C18 38.948 18.021 39.5061 18.093 41.2583C18.177 43.0127 18.442 44.208 18.838 45.2581C19.241 46.3572 19.872 47.3525 20.687 48.1748C21.4838 49.0162 22.4511 49.6662 23.52 50.0784C24.54 50.481 25.701 50.7589 27.405 50.8454C29.108 50.9247 29.649 50.9412 33.998 50.9412C38.347 50.9412 38.889 50.9195 40.591 50.8454C42.295 50.7589 43.456 50.4799 44.476 50.0784C45.5435 49.6635 46.5103 49.0138 47.309 48.1748C48.1273 47.3553 48.7588 46.3592 49.158 45.2581C49.549 44.208 49.819 43.0127 49.903 41.2583C49.98 39.505 49.996 38.948 49.996 34.4706C49.996 29.9931 49.975 29.4351 49.903 27.6828C49.819 25.9285 49.548 24.727 49.158 23.6831C48.755 22.584 48.124 21.5886 47.309 20.7664C46.513 19.9239 45.5455 19.2737 44.476 18.8628C43.456 18.4551 42.295 18.1822 40.591 18.0957C38.888 18.0165 38.347 18 33.998 18ZM33.998 20.9651C38.269 20.9651 38.779 20.9867 40.467 21.0608C42.024 21.136 42.872 21.4037 43.435 21.6302C44.131 21.8947 44.761 22.3157 45.279 22.8625C45.8092 23.3936 46.2166 24.0407 46.471 24.7558C46.691 25.3355 46.951 26.2085 47.024 27.8115C47.096 29.5494 47.117 30.0755 47.117 34.4716C47.117 38.8677 47.096 39.3938 47.018 41.1317C46.934 42.7347 46.674 43.6077 46.455 44.1874C46.152 44.9606 45.814 45.5011 45.256 46.0858C44.7362 46.6293 44.1067 47.0482 43.412 47.3131C42.856 47.5396 41.996 47.8072 40.433 47.8824C38.736 47.9565 38.236 47.9781 33.954 47.9781C29.672 47.9781 29.173 47.9565 27.474 47.8762C25.917 47.7897 25.058 47.5221 24.495 47.2966C23.735 46.9846 23.214 46.6367 22.656 46.0622C22.093 45.4825 21.735 44.9307 21.459 44.1637C21.235 43.5913 20.979 42.7059 20.896 41.0967C20.839 39.3702 20.812 38.8348 20.812 34.4469C20.812 30.0611 20.839 29.5247 20.896 27.7765C20.979 26.1673 21.235 25.284 21.459 24.7095C21.735 23.926 22.094 23.3907 22.656 22.811C23.213 22.2376 23.735 21.867 24.495 21.5766C25.058 21.3512 25.896 21.0835 27.459 21.0032C29.156 20.9404 29.656 20.9177 33.932 20.9177L33.998 20.9651ZM33.998 26.017C32.9193 26.0166 31.8512 26.2351 30.8545 26.6598C29.8579 27.0846 28.9524 27.7075 28.1896 28.4927C27.4269 29.278 26.822 30.2103 26.4094 31.2363C25.9968 32.2624 25.7846 33.3621 25.785 34.4726C25.7846 35.5832 25.9968 36.6829 26.4094 37.7089C26.822 38.735 27.4269 39.6673 28.1896 40.4526C28.9524 41.2378 29.8579 41.8606 30.8545 42.2854C31.8512 42.7102 32.9193 42.9287 33.998 42.9282C35.0766 42.9287 36.1448 42.7102 37.1414 42.2854C38.1381 41.8606 39.0436 41.2378 39.8063 40.4526C40.5691 39.6673 41.174 38.735 41.5866 37.7089C41.9992 36.6829 42.2114 35.5832 42.211 34.4726C42.2114 33.3621 41.9992 32.2624 41.5866 31.2363C41.174 30.2103 40.5691 29.278 39.8063 28.4927C39.0436 27.7075 38.1381 27.0846 37.1414 26.6598C36.1448 26.2351 35.0766 26.0166 33.998 26.017ZM33.998 39.9632C31.05 39.9632 28.665 37.5077 28.665 34.4726C28.665 31.4376 31.05 28.9821 33.998 28.9821C36.946 28.9821 39.331 31.4376 39.331 34.4726C39.331 37.5077 36.946 39.9632 33.998 39.9632ZM44.462 25.6793C44.4614 26.2041 44.2586 26.7071 43.898 27.0779C43.5375 27.4488 43.0486 27.6571 42.539 27.6571C42.287 27.6571 42.0374 27.606 41.8046 27.5067C41.5718 27.4074 41.3602 27.2619 41.182 27.0784C41.0038 26.895 40.8625 26.6772 40.7661 26.4375C40.6696 26.1978 40.62 25.9408 40.62 25.6814C40.62 25.4219 40.6696 25.165 40.7661 24.9253C40.8625 24.6856 41.0038 24.4678 41.182 24.2844C41.3602 24.1009 41.5718 23.9554 41.8046 23.8561C42.0374 23.7568 42.287 23.7057 42.539 23.7057C43.596 23.7057 44.462 24.5911 44.462 25.6793Z" fill="white"/>
</svg>
