<svg width="68" height="68" viewBox="0 0 68 68" fill="none" xmlns="http://www.w3.org/2000/svg">
<circle cx="34" cy="34" r="34" fill="#FBBA08"/>
<path d="M34 21.2945C36.0353 21.2945 37.6904 22.9723 37.6904 25.0355C37.6904 27.0924 36.0353 28.7702 34 28.7702C31.9647 28.7702 30.3096 27.0924 30.3096 25.0355C30.3096 22.9723 31.9647 21.2945 34 21.2945ZM34 34.0647C38.9165 34.0647 42.9135 30.0131 42.9135 25.0355C42.9135 20.0517 38.9165 16 34 16C29.0835 16 25.0927 20.0517 25.0927 25.0355C25.0927 30.0131 29.0835 34.0647 34 34.0647ZM37.6046 41.4348C39.4192 41.0122 41.1663 40.2851 42.7786 39.2598C43.9985 38.483 44.3663 36.8487 43.6001 35.6121C42.8276 34.3692 41.2215 33.9964 39.9954 34.7794C36.3479 37.1035 31.6521 37.1035 27.9984 34.7794C26.7785 33.9964 25.1662 34.3692 24.3999 35.6121C23.6337 36.8487 24.0015 38.483 25.2214 39.2598C26.8337 40.2851 28.5808 41.0122 30.3954 41.4348L25.4114 46.4807C24.3938 47.5123 24.3938 49.1901 25.4114 50.2217C25.9264 50.7374 26.5885 50.9984 27.2567 50.9984C27.9249 50.9984 28.5931 50.7374 29.108 50.2217L34 45.2627L38.8981 50.2217C39.9157 51.2594 41.5648 51.2594 42.5886 50.2217C43.6062 49.1901 43.6062 47.5123 42.5886 46.4807L37.6046 41.4348Z" fill="white"/>
</svg>
