<svg width="68" height="68" viewBox="0 0 68 68" fill="none" xmlns="http://www.w3.org/2000/svg">
<circle cx="34" cy="34" r="34" fill="#FBBA08"/>
<path d="M42.3472 34.9029C42.2196 34.7751 42.068 34.6737 41.9012 34.6045C41.7344 34.5354 41.5556 34.4998 41.375 34.4998C41.1944 34.4998 41.0156 34.5354 40.8488 34.6045C40.682 34.6737 40.5305 34.7751 40.4029 34.9029L38.2112 37.0947C37.195 36.7922 35.2989 36.1047 34.0972 34.9029C32.8954 33.7012 32.2079 31.805 31.9054 30.7889L34.0972 28.5972C34.225 28.4696 34.3263 28.318 34.3955 28.1512C34.4647 27.9844 34.5003 27.8056 34.5003 27.625C34.5003 27.4444 34.4647 27.2656 34.3955 27.0988C34.3263 26.932 34.225 26.7805 34.0972 26.6529L28.5972 21.1529C28.4696 21.0251 28.318 20.9237 28.1512 20.8545C27.9844 20.7854 27.8056 20.7498 27.625 20.7498C27.4444 20.7498 27.2656 20.7854 27.0988 20.8545C26.932 20.9237 26.7805 21.0251 26.6529 21.1529L22.9239 24.8819C22.4014 25.4044 22.1072 26.1222 22.1182 26.855C22.1498 28.813 22.6682 35.6138 28.0279 40.9735C33.3877 46.3333 40.1884 46.8503 42.1478 46.8833H42.1863C42.9123 46.8833 43.5984 46.5973 44.1182 46.0775L47.8472 42.3485C47.975 42.2209 48.0763 42.0694 48.1455 41.9026C48.2147 41.7358 48.2503 41.557 48.2503 41.3764C48.2503 41.1958 48.2147 41.017 48.1455 40.8502C48.0763 40.6834 47.975 40.5319 47.8472 40.4043L42.3472 34.9029ZM42.1725 44.1319C40.4565 44.103 34.5853 43.6424 29.9722 39.0279C25.3439 34.3997 24.8957 28.5078 24.8682 26.8262L27.625 24.0693L31.1808 27.625L29.4029 29.4029C29.2413 29.5644 29.1225 29.7636 29.0572 29.9826C28.9919 30.2015 28.9822 30.4333 29.0289 30.6569C29.0619 30.815 29.869 34.5647 32.1515 36.8472C34.434 39.1297 38.1837 39.9368 38.3418 39.9698C38.5653 40.0179 38.7973 40.0089 39.0164 39.9438C39.2356 39.8787 39.4348 39.7595 39.5958 39.5972L41.375 37.8193L44.9308 41.375L42.1725 44.1319Z" fill="#FFFAFA"/>
</svg>
