<svg width="68" height="68" viewBox="0 0 68 68" fill="none" xmlns="http://www.w3.org/2000/svg">
<circle cx="34" cy="34" r="34" fill="#FBBA08"/>
<path d="M48.3685 28.2825C48.5785 27.585 48.3685 27.0735 47.3755 27.0735H44.086C43.249 27.0735 42.8665 27.516 42.6565 28.002C42.6565 28.002 40.984 32.0805 38.614 34.725C37.849 35.4945 37.4995 35.7375 37.0825 35.7375C36.874 35.7375 36.571 35.4945 36.571 34.797V28.2825C36.571 27.4455 36.3295 27.0735 35.632 27.0735H30.463C29.941 27.0735 29.626 27.4605 29.626 27.8295C29.626 28.6215 30.811 28.8045 30.9325 31.0365V35.8785C30.9325 36.939 30.742 37.1325 30.322 37.1325C29.2075 37.1325 26.4955 33.039 24.886 28.353C24.5725 27.4425 24.256 27.075 23.416 27.075H20.128C19.1875 27.075 19 27.5175 19 28.0035C19 28.8765 20.1145 33.1965 24.1915 38.91C26.9095 42.8115 30.736 44.9265 34.222 44.9265C36.3115 44.9265 36.5695 44.457 36.5695 43.647V40.698C36.5695 39.759 36.769 39.57 37.4305 39.57C37.9165 39.57 38.7535 39.816 40.705 41.6955C42.934 43.9245 43.303 44.925 44.5555 44.925H47.8435C48.7825 44.925 49.252 44.4555 48.982 43.5285C48.6865 42.606 47.6215 41.2635 46.2085 39.675C45.4405 38.769 44.293 37.794 43.9435 37.3065C43.456 36.678 43.597 36.4005 43.9435 35.8425C43.945 35.844 47.9515 30.201 48.3685 28.2825Z" fill="white"/>
</svg>
