<svg xmlns="http://www.w3.org/2000/svg" viewBox="0 0 775.86 536.83"><defs><style>.cls-1{fill:#3a3a3a;}.cls-2{fill:#ffc81a;}.cls-3{fill:#fbfbfc;}.cls-4{fill:#f7f7f8;}.cls-5{fill:#c8cad1;}.cls-6{fill:#9296a3;}.cls-7{fill:#c7c9d0;}.cls-8{fill:#bfc1c9;}.cls-9{fill:#999ca9;}.cls-10{fill:#9c9fac;}.cls-11{fill:#9497a5;}.cls-12{fill:#f3f3f4;}.cls-13{fill:#969aa7;}.cls-14{fill:#dddee2;}.cls-15{fill:#b7b9c2;}.cls-16{fill:#a9acb7;}.cls-17{fill:#a7aab6;}.cls-18{fill:#aaadb8;}.cls-19{fill:#a6a9b4;}.cls-20{fill:#808495;}.cls-21{fill:#7e8293;}.cls-22{fill:#f5f5f6;}.cls-23{fill:#858999;}.cls-24{fill:#b7bac3;}.cls-25{fill:#9b9eab;}.cls-26{fill:#9195a3;}.cls-27{fill:#898d9c;}.cls-28{fill:#d4d5da;}.cls-29{fill:#fdfdfd;}.cls-30{fill:#fcfcfd;}.cls-31{fill:#fcfcfc;}.cls-32{fill:#f9fafa;}.cls-33{fill:#fafafa;}.cls-34{fill:#fafafb;}.cls-35{fill:#f9f9fa;}.cls-36{fill:#f4f4f5;}.cls-37{fill:#f0f1f2;}.cls-38{fill:#e9eaec;}.cls-39{fill:#f6f6f7;}.cls-40{fill:#e6e7ea;}.cls-41{fill:#e7e8eb;}.cls-42{fill:#b0b3bd;}.cls-43{fill:#e0e1e5;}.cls-44{fill:#e2e3e7;}.cls-45{fill:#d1d3d8;}.cls-46{fill:#f1f1f3;}.cls-47{fill:#d2d3d9;}.cls-48{fill:#e4e5e8;}.cls-49{fill:#f1f1f2;}.cls-50{fill:#d1d2d8;}.cls-51{fill:#eaebed;}.cls-52{fill:#a4a7b3;}.cls-53{fill:#9ea1ad;}.cls-54{fill:#b3b6bf;}.cls-55{fill:#d9dbdf;}.cls-56{fill:#b9bbc4;}.cls-57{fill:#7e8392;}.cls-58{fill:#cccdd4;}.cls-59{fill:#bec0c8;}.cls-60{fill:#8b8f9d;}.cls-61{fill:#fdf9fa;}.cls-62{fill:#fdfafa;}.cls-63{fill:#fdfcfc;}.cls-64{fill:#fbfbfb;}.cls-65{fill:#b9bcc5;}</style></defs><title>logoAsset 2logo2</title><g id="Layer_2" data-name="Layer 2"><g id="Layer_1-2" data-name="Layer 1"><path class="cls-1" d="M494.17,227.94c15.11.47,30.17,1.51,45.16,4.79-2.76,3.59-6.05,4.37-10.12,4.11-12-.75-24-1.16-36-1.68-1.42-.07-2.85,0-4.3,0-.13,2.11,1.43,2.82,2.34,3.89,2.35,2.79,4.34,5.52,1.35,9.12a3.29,3.29,0,0,0-.73,2.34c1.16,5.91-2.73,6.6-7.06,7.25-6.41,1-12.79,2.19-19.17,3.35-5.34,1-7.91-1.85-6.31-7.11a25.61,25.61,0,0,1,1.95-3.88c-4.25.08-4.25.08-4.31,5.23-7.81-3.77-10.07-11.68-14.12-18.15-.86-1.39-.5-3.91-3.47-2.93-2.3.77-3.63,1.87-3.66,4.57,0,5.41,3,9,6.73,12.23.48.41.91.86,1.64,1.55L440.72,254c-4.6.12-7.61-2.27-10-7.72-.85-2-.71-4.84-3.92-5-.68,0-1.52.2-1.67.82-.6,2.5,1.75,3.66,2.65,5.5,1.38,2.82,5,4.37,4.7,8.16-5.71,2.28-8.4-1.39-11-5.45-.85-1.31-1.46-3.62-4.12-1.83-2.93,2-.22,3.09.54,4.25a35.22,35.22,0,0,0,4.25,4.9c1,1,1.89,2,.53,3.28-1,.88-.59,2.45-3.24,2.55-5.88.2-11.6,2.38-17.57,3a14.32,14.32,0,0,1-9.74-2.68c-1.35-.89.44-2.67-.87-4.15-2.06-2.35-4.14-5-5.07-7.95-1.87-5.87-4.85-4.87-8.82-2,3.15,3.43,6,7,7.66,11.45.86,2.24.95,3.44-1.8,3.68-6.64.58-10.37,4.59-12.54,10.57-.47,1.3-.64,3.12-2.44,3.47a174.35,174.35,0,0,1-18.46,2.87c4.07-1.57,6.83-4.63,9.77-7.41.87-.83,2.77-1.32,1.87-3-.63-1.2-2.13-1.42-3.51-1.52-5.37-.38-10.64.56-15.91,1.3-4.93.68-9.81,1.67-15.27,2.63,1.15-2.7,3.77-2.75,5.35-4.07,1.17-1,2.41-2.06,1.48-3.76s-2.24-.78-3.48-.31c-11.63,4.42-23.35,8.66-34.86,13.38-2.53,1-3.81.4-5.92-2.17.23,5.36,1.36,9.6-1.31,13.68-2.24,3.44-7.24,6.34-11,4.35-7.91-4.22-16-4.11-24.25-1.95-3.92,1-4.31-.78-3.82-3.76.58-3.61.85-7.34,2-10.77,1-3,.12-4.5-2.51-5.26-5.92-1.7-10.48-6.77-17.61-6-2.61.29-5.53-3.41-9-.62-.69.56-2.41-.45-2.19-1.33,1-4.24-2.3-3.91-4.56-4.56-8.24-2.36-16.57-3.69-25.15-2.14-2.19.4-5,.73-5.58-1.77s2.33-3.23,4.26-3.92c6.35-2.25,12.82-1.05,19.52-.33-2.93-3.63-7-3.84-10.85-4.53-2.94-.53-6-.73-8.92-1.13-1.34-.18-2.88-.57-3-2.09-.18-1.69,1.16-2.62,2.69-3.1,4.52-1.39,9-.28,13.31.7a25.67,25.67,0,0,1,13.47,7.15c.81.85,1.35,1.64,2.86.75,12-7,25.5-9.32,38.66-12.81,5.46-1.44,10.86-3.09,16.29-4.65a10.43,10.43,0,0,1,2.22-1.69,15.74,15.74,0,0,0,6.71-2.78c2.88-2.1,2.92-2.27-.24-5.14-1.1,6.9-1.1,6.9-6.68,7.45-.78-.25-1.17-.94-1.78-1.92-.08-.24-.28.29-.18.37,1.08.85.87,1.83,0,2.77-2.43.52-3.65-1.21-4.89-2.75-8.75-10.91-20-18.92-30.9-27.47-2.7-2.13-5.33-2-8.41-1.34-26.69,5.61-46.09,22.16-63.09,42.16-8.13,9.56-14.94,20-17.15,32.74a21.44,21.44,0,0,0,.54,10.36c1.18,3.66,3,6.82,1,11.11-1.45,3.18,2.22,4.31,4.72,5.11,6.06,1.94,12.19,3.71,18.25,6-5.33,2.28-10.58,4.17-15.36,7.09-1.32.82-2.61.31-3.81-.19-2.46-1-4.88-2.11-7.27-3.28-10.16-5-10.83-6.5-9.15-17.88a85.14,85.14,0,0,1,6.7-22.89c10.46-23,24.51-43.67,40.41-63.28,9.07-11.19,20.62-17.9,34-21.3,14.59-3.71,26-10.92,34.21-23.67,4.63-7.18,11.42-12.46,18.31-17.53A13.51,13.51,0,0,1,281,142.12c8.08.89,16.24.94,24.94,3.08-1.87-2.67-4.68-2.2-6.29-4.1,4.25-4.29,5.74-9.2,2.07-15.39,12.49,1.76,23.49-1.8,34.4-5.9,6.65-2.49,10.68-1,14.2,5.14s7.78,11.58,14.14,15c2.06.38,3.66,1.78,5.58,2.49a6.83,6.83,0,0,0,4.71.74,103.91,103.91,0,0,1,19.62-6.09,93.89,93.89,0,0,0-19.5,5.9,5.28,5.28,0,0,1-4.21-.34c-1.83-1.05-4.2-1.41-5-3.84-5.34-4.73-10.89-9.28-14-16.75,3.31.06,6.08-.77,7.75-3.5a17.45,17.45,0,0,0,2.32-8.57c.33-8.09-1.3-15.89-3.72-23.52-.89-2.83-.46-4.16,2.55-5A40.83,40.83,0,0,0,371,76.73l-26.25,5.32c-1.34,1.24-3.14,1.11-4.74,1.58a24.17,24.17,0,0,0-4.13.74c1.69-.52,3.48-.44,5.17-1s3.32-.17,5-.43c8.18,15.28,4.54,26.48-11,33.9a56.67,56.67,0,0,1-27,5.86c-10-.41-19.93-1.16-29.9-1.56-2.58-.11-3.73-1-4.39-3.52a373.23,373.23,0,0,1-8.82-47c-.93-7.36.8-14.61,3.72-21.4,10.79-25.09,31.92-38.06,56.08-47.39,7.67.68,15.35.38,23,.48,1.92,1.41,4.15.88,6.27,1,1.44.56,2.85,1.35,4.44.74.69-.19-.3-.74,0-.14.14.26,0,.29-.31.36-1.56.31-2.78-.72-4.19-1-1.85-.21-3.82.54-5.54-.68-5-.69-10.08-.07-15.11-.37-1.21-.07-3,1-3.51-1.28,38.27-5.24,66.84,10.69,89,40.73,1.22,1.66,1.88,3-.06,4.61-2.28,1.87-2.54,5-4.52,7.39-9.19-11.87-20.29-5.81-31.05-3.17-3.06,1-5.82,3-9.24,2.91-2-.16-3.62.9-5.39,1.49a20.83,20.83,0,0,1-3.57,1.44,11.06,11.06,0,0,0-5,1.55,10,10,0,0,1-5,2.2A17.29,17.29,0,0,0,349,62.67c3-.26,5.25-1.1,7.61-1.19,2.48-.65,5.07-.67,7.51-1.5a7,7,0,0,1,2.77-.7c3.32.29,6.57-1.06,9.9-.36,5.18-1.43,7.63.7,7.8,5.91a18.4,18.4,0,0,0,.41,2.94c1.22,6.2,1.23,6.2-5.15,7.12-1.56,1.09-1.52,2.51-.83,4.07,3.52,11.37,1.64,12.64,18,13.39,6.1.28,12.14,1.45,18.27,1.17A4.56,4.56,0,0,1,419,94.78a10.14,10.14,0,0,1-.11,5.13c-2.45,12-3.43,24.34-8.76,36.17,5.41,1.28,11.28,2.27,16.65,4.85a2.94,2.94,0,0,0,2.41-.16c9.14-5.89,18.47-2.18,27.59-.3,11.42,2.36,22.17,7,33,11.24a9.74,9.74,0,0,0,8.42-.2q50.8-23.13,101.71-46c1.47-.66,3-1.27,4.42-1.9.3.63.62,1,.54,1.2-4.2,9.54-5.73,19.4-6.29,29.91-.28,5.1,1.69,7.61,3.45,11.08.3.59.68,1.14.94,1.75,8.41,19.56,15,23.35,36.53,32.84-1.14,2.08-3.41,1.82-5.15,2.33Q561.21,204.4,488.05,226a19.88,19.88,0,0,0-2.29,1c-3.51,2.39-6.43.31-9.12-1.51a12.62,12.62,0,0,0-7.82-2.5c-5.78.13-9.49-3.38-12.38-8-3.38-5.39-4-11.56-4.89-17.65-.15-1-.09-2-.29-3s-.68-2-1.81-2.11c-1.37-.17-2.11.79-2.62,1.9a5.89,5.89,0,0,0-.34,3.92c2.93,11.75,9.59,20.43,19.74,27.36,6,4.09,11.83,1.13,17.58,2.56A20.77,20.77,0,0,0,494.17,227.94Z"/><path class="cls-1" d="M276.58,458c1.62,4.63,5,5.87,9.52,5q22.47-4.62,44.94-9.24c3.5-.72,5.66-5.23,8.08-5,2.75.24,5.39,2.2,8.79,1.45,12.18-2.68,24.44-5,36.62-7.62,2.27-.48,3.45-.54,4.59,2,1.39,3.07,4.48,3.8,7.7,3.18,5.05-1,10.11-2,15.12-3.19,3.39-.79,6.52-2.61,7.55-5.93,1.13-3.59,3.61-4.13,6.57-4.69,4.9-.92,9.78-2,14.66-3,6.76-1.46,10-5.35,10.06-12.21.07-4.5.09-9,.09-13.49,0-2.06-.2-4.36,2.78-4.18s1.43,2.54,1.47,3.88c.11,4.33-.13,8.66-.09,13,.06,6.42,2.86,9.17,9,8,7.47-1.42,14.9-3.23,22.32-4.94,7.17-1.65,14.57-2.78,21.89-4.08,4.57-.81,8.13-3.12,9.74-7.58,1-2.77,2.88-3.81,5.5-4.23,2.46-.4,4.9-1,7.36-1.36,2.26-.33,4.54-2.29,6.72.66s3.2,5.47.92,9.45c-24.24,42.35-57.89,73.94-104.85,88.87-53.66,17.06-103.09,5.8-148.54-26-3.81-2.67-7.28-5.83-11-8.58-2.28-1.67-3.19-3-.5-5.16a7,7,0,0,0,2.32-4.85C276.13,457.4,276.34,457.39,276.58,458Z"/><path class="cls-1" d="M413.88,357.7c-1.46-4-4.53-5.06-8.38-4.33-6,1.15-12.08,2.33-18.08,3.69-6.23,1.42-9.54,5.66-9.61,12.17-.11,12.16-.15,24.32-.22,36.48,0,1-.06,2,0,3,.06,1.3-.26,2.5-1.69,2.55-2,.08-1.22-1.63-1.22-2.57,0-6.5,0-13,.06-19.49,0-6.67.14-13.33.1-20,0-6-2.87-8.55-8.88-7.52-6.38,1.09-12.71,2.55-19,3.94-3.29.72-5,3.88-7.45,5.34-1.84,1.09-4.78-2.93-8.21-2.2-15.27,3.3-30.6,6.31-45.85,9.7-4.14.92-6.87,3.92-7.82,8.24-.22.56-.48.58-.78.07-1.94-4.79-5.63-5.59-10.22-4.63q-28.06,5.89-56.16,11.72c-7.59,1.58-10.69,5.36-10.75,13.18,0,2.93,0,5.86,0,9.22-17.68-17.85-42-18.2-63.52-1.38a71.18,71.18,0,0,0-11.45,11.55c-2.53-5.06-4.88-9.74-7.19-14.43-3-6.12-6-12.25-9-18.37-.82-1.67-2-3.07,1-4.11,8.7-3,15.67-8.56,21.51-16.53,3.38,10.32,9.5,17.47,19.36,21,9.63,3.4,19.32,3,29,.07a58.79,58.79,0,0,0,35.12-27.78c.47-.81.94-1.62,2-3.49,0,5.23-.08,9.29,0,13.35.13,5.61,3.27,8.26,8.77,7.17q16.89-3.34,33.71-7a39.2,39.2,0,0,0,26.72-19.46c1.32,1,.74,2.19.75,3.17.09,7.74,3,10,10.76,8.41,21.79-4.54,43.58-9.15,65.41-13.54,5.73-1.15,9.62-3.91,11.78-9.44,2.77-7.08,5.9-14,9.29-22l8.81,17.37c3,6,4.71,6.79,11.05,5.46,18.16-3.78,36.3-7.7,54.5-11.29,13.43-2.64,24.14-9.1,31.53-20.77a7.42,7.42,0,0,1,.94-1.09c.11-.1.31-.11.47-.17.55,14.17,1.27,14.72,15.67,11.91,3.75-.73,7.52-1.43,11.24-2.31,6.38-1.52,9.61-5.58,9.72-12.08.08-4.67.09-9.33.06-14,0-1.95,0-3.88,2.69-3.66,2.43.2,1.45,2.21,1.47,3.45.09,4.5-.09,9,0,13.5.06,6.21,3.2,9,9.16,8,6.22-1.11,12.41-2.45,18.55-3.93a10.59,10.59,0,0,0,8.27-7.8c1.1-.73,1.35.41,1.9.87,1.83,3.39,4.9,3.69,8.18,3.08q7.35-1.37,14.65-3c2.39-.54,4-.23,5.07,2.36,1,2.35.54,3.15-1.95,3.52a42.55,42.55,0,0,0-21.61,9.57c-6.92,5.8-11.27,13-11.47,22.33-.14,6.57,2.73,9,9.32,8.13,8.32-1.16,8.1-1.16,8,7,0,3.17-1.8,3.43-3.93,3.87-4.86,1-10,1.22-14,5.59-3.78-7.09-7.44-13.95-11.09-20.81-2.18-4.1-4.34-8.22-6.52-12.33-6.22-11.72-6.59-11.8-19.37-8.53-4.68,1.2-7.28,4.24-9.13,8.39-7.7,17.29-15.46,34.55-23.79,53.16-.13-2.78-.28-4.27-.27-5.75.08-12.49.21-25,.29-37.46,0-7.58-2.87-10-10.16-8.49-5.38,1.1-10.75,2.17-16.11,3.33-6.81,1.48-10,5.33-10.07,12.19-.05,3.5,0,7-.09,10.49-.06,1.81.87,4.46-2.39,4.39s-1.68-2.65-1.76-4.12c-.17-3.48.11-7,0-10.48-.14-5.83-2.86-8.46-8.53-7.56-6.72,1-13.39,2.54-20,4.14a10.29,10.29,0,0,0-7.31,6.91C415.2,357.34,415,358.4,413.88,357.7Z"/><path class="cls-2" d="M728.13,138.54c-13.84-1.37-23,5.9-32.1,13.21-7.4,5.93-14.53,12.2-22.94,16.78-19,10.34-40.42,3.62-53.79-11.72,13.2,5.62,25.88,9,39.11,3.1,8.08-3.62,14.27-9.42,19.72-16.54-2.12-1.14-3.68-.39-5.19-.07a31,31,0,0,1-9.46.44c-8.12-.79-9.26-3.24-4.79-9.76,6.67-9.71,16.09-15.76,26.75-20.11,6.9-2.82,13.9-5.38,21.75-8.39-6.76-3.16-12.88-2.33-18.9-1.17-15.22,2.93-28.37,10.22-40.31,19.86-3.85,3.11-7.6,6.34-12.07,10.09-.3-11.71,3.89-21.51,7-32.28-14.54,3.65-25.45,11.76-35,22.3,2.62-13.34,8.65-24.6,19.42-33,11.9-9.32,25.81-13.42,40.52-15.43a113.38,113.38,0,0,1,27.62-.14c-8.52,2.32-17,4.67-24.44,9.78s-13.35,11.46-16.94,19.87c1,1,1.77,0,2.4-.64,14.53-13.77,32.3-15.89,51.15-14.52,10.17.75,20.12,2.73,30,4.84,14.54,3.09,27.48,1.39,37.87-11.42a15.49,15.49,0,0,1-1.32,9.68c-6.5,15.57-18.57,23.35-35.11,24.59-10.63.79-21.34-1.1-31.93.88a66.58,66.58,0,0,0-31,15.12c5.82-1.1,11.28-3.5,17.13-4.4a45.68,45.68,0,0,1,17.86.35C717.08,131.25,722.9,133,728.13,138.54Z"/><path class="cls-1" d="M429.78,534c25.49-6.88,47.22-20.29,66.17-38.42,23.92-22.88,38.56-51,46.38-82.88.67-2.71,1.48-3.67,4.33-4,5.59-.73,11.1-2.14,16.62-3.37,1.44-.32,3.44-.58,4.09-1.58,3.67-5.66,8.58-3.23,13.43-2.72,3.32.36,3.74,1.24,2.56,4.23A209,209,0,0,1,549.7,462.1c-29.91,36.07-67.33,60.47-112.91,72-1.59.41-3.26.53-4.9.79C430.89,535.31,429.85,535.82,429.78,534Z"/><path class="cls-2" d="M211.8,343.87c-.12,26.48-26.6,48.27-52.37,43.1-11.68-2.35-19.2-10.6-20.59-22.62-3.29-28.43,24.43-54,52.48-48.4C204.37,318.55,211.87,328.77,211.8,343.87Z"/><path class="cls-2" d="M347.42,441.77c0-22,0-43.51-.06-65,0-2.39,1-3.23,3.06-3.62,3.93-.74,7.89-1.36,11.73-2.42,3.16-.87,3.9-.05,3.85,3.16-.25,14.67-.16,29.33-.41,44-.06,3.45.77,4.53,4.11,3.19a33.3,33.3,0,0,1,3.9-.82c4.13-1.11,10-.15,12-3.38s.78-8.38.83-12.7c.13-11.66.26-23.33.21-35,0-2.63.67-3.92,3.4-4.32a74.78,74.78,0,0,0,11.73-2.37c3.62-1.14,3.78.36,3.72,3.25-.29,15-.38,30-.67,45-.06,2.84.17,4.55,3.67,3.25,2.88-1.07,3.74.28,3.61,3.16-.24,5.16-.31,10.34-.15,15.5.09,2.79-1,3.91-3.62,4.16a35.87,35.87,0,0,0-4.89,1c-3.76.92-7.67,2.6-6.69-4.34.42-2.92-2.31-1.45-3.62-1.18C377.85,435.4,362.56,438.61,347.42,441.77Z"/><path class="cls-2" d="M273.25,329.39c7.62,4.77,9.57,9.88,7.09,18.88-2.86,10.43-9.91,16.82-20.21,19.31-10.49,2.53-21.16,4.32-31.69,6.69-2.78.63-3.06-.29-3-2.6.19-20.64.36-41.28.39-61.91,0-2.41,1-3.15,3-3.56,9.93-2,19.83-4.23,29.79-6,7.17-1.31,14.38,2.08,17.67,7.72C280.08,314.4,279.16,321.18,273.25,329.39Z"/><path class="cls-2" d="M727.79,237.36l-33.23,37.37a12.64,12.64,0,0,1-2.37,2.56c-1.85,1.15-4.16,2.16-6.12,1.28-1.62-.72-.69-3-.68-4.61.1-19.49.35-39,.32-58.48,0-3.27.8-4.78,4.16-5.17a70.6,70.6,0,0,0,10.24-2.15c3.31-.92,4.71-.48,4.59,3.51-.3,9.12-.1,18.26-.1,28.46,3.15-3.51,5.75-6.4,8.34-9.31q12.75-14.4,25.52-28.8a10.46,10.46,0,0,1,3-2.57c4.42-2.13,5.93-1.14,5.88,3.67-.19,19.65-.5,39.31-.46,59,0,3.63-1.09,5-4.54,5.38a80.84,80.84,0,0,0-10.73,2.24c-3.19.85-3.93-.18-3.86-3.35C727.92,257.07,727.79,247.78,727.79,237.36Z"/><path class="cls-2" d="M208.4,470.6c0-16.36,0-32.49,0-48.63,0-5.33.25-10.66.09-16-.07-2.52.87-3.53,3.21-4q26.37-5.4,52.72-11c2.55-.54,3.48-.08,3.44,2.81q-.4,30.46-.45,60.94c0,3-.95,4.14-3.86,4.44s-5.53,1.12-8.3,1.67c-6.61,1.31-6.61,1.3-6.57-5.67.08-13.49,0-27,.34-40.46.09-3.91-1.12-4.47-4.56-3.55-4.49,1.19-9.08,2-13.67,2.82-2.92.5-4,1.75-4,4.9.11,14.65-.19,29.3-.09,44,0,3.12-1,4.42-4,4.9C217.9,468.58,213.06,469.67,208.4,470.6Z"/><path class="cls-2" d="M500.7,283.34c0-10,.13-20-.08-30-.06-3,1-4.1,3.76-4.52a100.88,100.88,0,0,0,11.72-2.36c2.79-.78,3.5-.11,3.38,2.67-.25,5.82-.12,11.65-.39,17.47-.13,2.93.75,3.87,3.67,3.19,5-1.16,10.06-2.22,15.13-3.11,2.72-.47,3.38-1.89,3.35-4.46-.08-5.82.24-11.65.18-17.47,0-2.54.47-3.9,3.36-4.27A115.19,115.19,0,0,0,556.47,238c2.37-.55,3.61-.35,3.57,2.73-.26,20.47-.36,40.94-.42,61.41,0,2.44-.7,3.51-3.25,3.88a111.61,111.61,0,0,0-11.69,2.52c-2.89.74-4.16.33-4-3.16.34-6.64.11-13.31.27-20,.06-2.54-.34-3.56-3.28-2.81-5.14,1.33-10.38,2.31-15.62,3.19-2.5.43-3.25,1.58-3.21,4,.09,6.65-.21,13.31,0,20,.09,3-.75,4.51-3.85,4.95a87.75,87.75,0,0,0-11.72,2.34c-3,.86-3.31-.27-3.29-2.81.1-10.32,0-20.63,0-31Z"/><path class="cls-2" d="M442.46,354.15c0,7,.12,13.67,0,20.31-.07,3.07.2,4.61,4,3.51a114.88,114.88,0,0,1,14.64-3c2.78-.43,3.53-1.68,3.49-4.3-.11-6,.14-12,0-18,0-2.47.73-3.57,3.27-3.89a55.51,55.51,0,0,0,10.25-2.11c4.14-1.35,5.32-.52,5.23,4.05-.43,19.66-.54,39.32-.55,59,0,3.08-.88,4.56-3.92,4.83-4.92.43-10.73,4.38-14.2,1.7-2.29-1.78-.49-8.75-.68-13.39-.16-3.95,1.93-9.27-.69-11.47s-7.48.76-11.34,1.49c-9.86,1.83-9.85,1.9-9.95,11.94,0,4.17-.27,8.34-.05,12.5.18,3.52-.54,5.55-4.63,5.84a52.38,52.38,0,0,0-10.73,2.23c-3,.89-3.32-.36-3.29-2.88q.33-30.73.44-61.48c0-2.26.63-3.23,2.89-3.63C431.85,356.44,437,355.27,442.46,354.15Z"/><path class="cls-2" d="M0,421.69c0-13,0-25.82,0-38.63.05-8.49.37-17,.31-25.48,0-2.85.75-4.35,3.68-4.67,2-.21,3.92-.73,5.88-1.11,9-1.73,9-1.73,8.91,7.64,0,5.16,0,10.32,0,15.48,9.06-.12,16-5.62,17.82-14.15a46.35,46.35,0,0,0,.86-6.44c.63-8.44.6-8.44,9-10.23,10.37-2.21,10.2-2.22,9.6,8.41-.56,10.09-3.82,18.89-11.44,25.7-1.94,1.74-2,2.85-.43,4.84,5.16,6.73,10.15,13.6,15.16,20.46,3.32,4.54,3,5.38-2.26,6.33s-11.42,4.58-15.87,2.38c-4.17-2.05-6.3-8.25-9.31-12.63a58,58,0,0,1-3.85-5.82c-1.45-2.79-3.18-3.39-6.37-2.68-3.68.83-3.09,3.16-3.11,5.56-.06,6-.24,12-.12,18,.05,2.49-.85,3.6-3.23,4C10.2,419.58,5.17,420.66,0,421.69Z"/><path class="cls-2" d="M123.68,454.14c.22-26.08,27.53-47.9,53-42.25,8.72,1.94,14.27,7.38,16.7,16,.58,2.07.18,3.08-2,3.44-2.79.45-5.58,1-8.31,1.68-3.88,1-7,1.67-10.08-2.62-3.31-4.57-9-3.55-13.93-2.29C147.68,431,140.34,443.44,142.94,455c1.58,7,6.85,11.27,14.05,10.88,8-.43,14.42-3.92,17.87-11.49,1.09-2.4,2.41-3.55,5-3.86a61.64,61.64,0,0,0,10.23-2.16c3.5-1,4.09-.06,3.17,3.22-4.41,15.84-15.44,24.7-30.59,29.22a38.44,38.44,0,0,1-12.33,1.6C133.41,481.77,123.53,471.29,123.68,454.14Z"/><path class="cls-2" d="M72.55,372.82c0-9.82.19-19.66-.1-29.48-.12-3.88,1.28-5,4.9-5.66,8.52-1.44,17-3.26,25.42-5.19,21.5-4.91,29.8,11.67,25.42,27.35-3.42,12.29-11.76,19.75-24,22.91-1.29.33-2.6.59-3.9.86-9.93,2.1-10.28,2.11-10,12.39.18,5.54-1.34,8.44-7.07,8.51a14,14,0,0,0-2.46.41c-9,1.76-8.93,1.76-8.9-7.6,0-8.17,0-16.33,0-24.49Z"/><path class="cls-2" d="M596.55,229.86c0,5.83.11,11.3,0,16.77-.07,2.64.5,3.56,3.35,2.83A84.28,84.28,0,0,1,613,246.9c15.87-1.42,25.22,9.85,21.06,25.25-3.18,11.81-11.1,19.23-22.66,22.28-10.1,2.66-20.46,4.3-30.67,6.55-2.46.55-3.11.11-3.07-2.46.31-20.63.49-41.25.68-61.87,0-1.81.2-3.26,2.4-3.66C586,232,591.11,231,596.55,229.86Z"/><path class="cls-2" d="M429.75,298.29c0-9.83.1-19.66-.06-29.48-.05-3.11.43-4.93,4.09-5.21A41.67,41.67,0,0,0,444,261.48c3.84-1.32,4.11.42,4,3.45-.19,4.33,0,8.67-.18,13-.12,2.56.65,3.16,3.13,2.48,3.52-1,7.12-1.66,10.71-2.33,18-3.33,29.2,9.64,23.27,27.06-3.67,10.8-11.45,17.48-22.24,20.27-9.81,2.54-19.84,4.2-29.73,6.41-3.35.74-3.89-.52-3.83-3.55.17-10,.06-20,.06-30Z"/><path class="cls-2" d="M286,420.65c0-10.16.07-20.32,0-30.48,0-2.6.73-3.82,3.45-4.36C302,383.34,314.52,380.68,327,378c2.62-.56,3.74-.33,3.77,2.9.13,11.73.26,11.73-11.37,14.25-3.9.84-7.8,1.68-11.69,2.55-3.37.75-4.9,4.09-3.68,8.47,1,3.47,3.31.9,4.8.67,5.26-.81,10.48-1.87,15.64-3.13,2.93-.71,4-.47,4,3-.06,11.73.09,11.73-11.3,14-3.25.65-6.48,1.55-9.77,1.95-2.66.32-3.6,1.32-3.66,4.09-.2,8.65-.32,8.67,8.13,7,5.37-1.08,10.78-2.07,16.09-3.42,2.65-.67,3,.14,3.14,2.55.49,12.08.56,12.11-11.07,14.61-9.92,2.13-19.89,4-29.76,6.3-4.16,1-4.86-.29-4.75-4.17.27-9.65.09-19.31.09-29Z"/><path class="cls-2" d="M314.2,313.59c7.06-1.45,13.75-2.69,20.38-4.25,2.59-.61,3.46-.36,3.54,2.59.34,12,.44,11.95-11.21,14.52-1.78.39-3.57.75-5.36,1.14-8.33,1.77-8.21,1.77-7.93,10.44.08,2.61.83,3,3.21,2.49,6.63-1.53,13.33-2.8,20-4.31,2.69-.62,4.16-.77,4.15,3,0,11.51.18,11.52-11.13,13.93-10.08,2.14-20.18,4.18-30.23,6.45-3.28.75-4.29.07-4.24-3.47.29-20,.39-40,.43-59.94,0-2.74.52-4,3.6-4.6,12.57-2.38,25.08-5.08,37.59-7.8,2.68-.58,3.68-.32,3.7,2.86.1,12,.23,12-11.42,14.28-2.44.49-4.87,1.05-7.3,1.58C313.26,304.36,313.27,304.36,314.2,313.59Z"/><path class="cls-2" d="M547.74,400.08c-1.71.56-2.47-1.14-3-2.68-1.4-4.08-3.79-4.86-7.93-3.68a148.09,148.09,0,0,1-18.53,3.91c-3.27.5-5.24,1.86-6,4.91-1.14,4.5-4,6.47-8.56,6.75-2.46.16-4.86,1.16-7.33,1.45-1.39.17-3.05,1.6-4.18.21s.24-2.86.82-4.16c3.55-8.07,7.19-16.08,10.8-24.12,6.39-14.26,12.95-28.44,19-42.82,1.64-3.86,4.44-4.43,7.71-5,3.44-.57,3.48,2.57,4.45,4.39q13.82,25.69,27.41,51.52c2.81,5.31,2.54,5.81-3.35,7Z"/><path class="cls-2" d="M588.75,362.51a62.93,62.93,0,0,0,0-6.33c-.55-4.9,0-8.91,6.24-9.05a1.43,1.43,0,0,0,.47-.18,7.34,7.34,0,0,0,4.87-6.38c.16-1.92-.57-3.78-2.51-4.46-2.86-1-6.37-.74-7.9,1.51-3.92,5.79-10.23,4.42-15.47,6.18-2.57.86-3.15-.41-2.83-2.79a18.93,18.93,0,0,1,7.31-12.62,33.57,33.57,0,0,1,24.67-7.49c12.15,1.12,17.77,13.85,10.82,24.84-2,3.13-3,4.43,1.17,6.65,5.56,3,7.15,10.93,4.51,18.91-4.15,12.56-14.39,17.6-26.17,20.44-4.54,1.09-9.16,1.55-13.82.19a14.23,14.23,0,0,1-9.55-8.07c-3.63-8.05-2.58-10.2,5.9-11.91,1.63-.33,3.26-.63,4.88-1,2-.47,3-.24,3.89,2.16,1.63,4.53,6,5.5,11.29,3.09,4.91-2.25,7.6-7.43,5.78-11.24a5.54,5.54,0,0,0-5.66-3.33C594.14,361.76,591.67,362.17,588.75,362.51Z"/><path class="cls-2" d="M384,302.21c-4.28,10-8.24,19.31-12.19,28.59a11.64,11.64,0,0,0-.95,2.3c-2,10.4-8.58,15.28-18.93,15.55-1.28,0-3.05.69-3.74.09-1.3-1.14-.12-2.74.47-4.08q7.72-17.28,15.46-34.58c4.89-10.91,10-21.75,14.59-32.78,1.54-3.69,4.3-4,7.41-4.59,3.52-.65,3.59,2.44,4.54,4.23,9.28,17.28,18.43,34.62,27.6,52,2.66,5,2.54,5.25-2.8,6.47-13.38,3-13.38,3-19.58-9.36C392,318.34,388.18,310.67,384,302.21Z"/><path class="cls-2" d="M648.78,252.39c0-10,.1-20-.07-30-.05-2.7.81-3.86,3.38-4.28,4.76-.77,10.92-3.92,13.83-2,3.24,2.12.91,8.9.92,13.64,0,16.32-.2,32.64-.18,49,0,3.06-.39,5-4.07,5.29-4.7.42-10.55,4.15-13.58,1.72-2.29-1.85-.54-8.72-.57-13.36,0-2.16.06-4.33.06-6.49,0-4.5,0-9,0-13.49Z"/><path class="cls-1" d="M311.73,526.84c-30.61-10.45-57.27-27-78.8-51.35-.72-.82-2.59-1.6-.93-3.13,4.4-4.06,3.47-9.4,3.58-14.49,0-2.46,0-4.92,0-8.39,3.27,4.12,4.38,7.73,4.22,12-.27,7.09.4,7.81,7.3,9.32a4.13,4.13,0,0,1,2.61,2c16.81,22.69,37.34,41,63,53.28C312.73,526.84,312.68,527.41,311.73,526.84Z"/><path class="cls-2" d="M714.61,201.05c-7.4.09-12-3.7-12.77-10.49-.21-1.86-.06-3.31,2.17-3.69,3.48-.58,6.8-3.94,10.32.9,1.9,2.62,9.5.44,11.18-3.34,2.3-5.18,6.69-3.27,10.25-3.81,2.07-.32,1.17,1.9,1.06,3C735.89,193.46,726.38,200.89,714.61,201.05Z"/><path class="cls-1" d="M223.66,298.8c-1.46,1.32-3.53,2.37-4.27,4-2.26,5-6.33,5.13-10.75,4.85-10.66-.67-20.95-3.46-31.37-5.5-3.06-.59-4.33-4-7.48-4.67,2.73-1.32,5.1.33,7.55.59,4.46.45,8.59.92,13.2-.59,3.46-1.15,7.82.31,11.77.73a110.53,110.53,0,0,0,21.44.66Z"/><path class="cls-3" d="M494.17,227.94c-7.64,1.86-15.65-.33-23.24,2.12-1.3.43-1.62-.82-2.15-1.59-.76-1.11-1.5-2.48-2.86-2.62-8.19-.85-10-8.68-14.6-13.4-4-4.1-5.88-9.59-6.23-15.43-.31-5.1,2.11-7.6,5.64-6.47,2.43.78,1.88,2.37,2,3.87.46,6.32,1.09,12.6,3.94,18.39,3.5,7.11,7.26,9.13,15.33,8.06,1.74-.24,2.25,1.08,3.23,1.83,3.12,2.4,6,5.43,10.54,4.25C488.38,228.77,491.4,227.33,494.17,227.94Z"/><path class="cls-1" d="M363.19,292.36l-16,35.46c0-8.06-.64-15.77-.39-23.46C347.09,296,350.15,293.91,363.19,292.36Z"/><path class="cls-1" d="M419.66,311.07l-14.17-26.69c4.55-.88,8.7-1.63,12.81-2.51,2.78-.59,2.45,1.22,2.45,2.9q0,13,0,25.93Z"/><path class="cls-1" d="M394.86,54.1c1.68,8.79,3.36,17.57,5.17,27-6.2-2.92-11.56-5.41-11.86-12.89a31.14,31.14,0,0,0-1.89-8.74c-1.17-3.4,0-5,3.23-5.74C393.81,52.43,393.81,52.43,394.86,54.1Z"/><path class="cls-1" d="M377.57,77.84c-1.77-3,.23-3,2.31-3,8.81,3,16.74,8.19,25.71,10.85,1.68-.36,3.21.89,4.9.43,1.38.22,2.64.22,2.88-1.61a57.77,57.77,0,0,0,.07-6c0-.92-.16-1.84-.13-2.76.18-.76.57-1.26,1.44-1.14,3.21,3.79,3.44,8.53,4.14,13.12.4,1.87,1,3.81-1.33,4.94-12.51-.31-24-3.76-34.16-11.24C381.56,80.1,379.88,78.44,377.57,77.84Z"/><path class="cls-1" d="M354.62,58.89c2,.26,3.44-.83,4.81-2.07a20,20,0,0,0,5.36-1l2.84-2c2.33,1.47,4-1.44,6.13-1,3.34.13,5.66-3.91,9.36-2.29-1.17,3.72-4.79,5-7.3,7.45a21,21,0,0,1-9.51,1.84l-1.82,1a21.08,21.08,0,0,0-5.81.61c-1.63.36-3.27.66-4.33-1.15A1.66,1.66,0,0,1,354.62,58.89Z"/><path class="cls-4" d="M432.53,255.76c-2.81-3.66-5.6-7.33-8.45-10.95-.84-1.08-2-2.38-1.23-3.5,1.45-2,4-.88,6.06-1.36,1.87-.45,1.73.89,1.86,2,.47,4.2,3.12,7.17,5.64,10.29a4.55,4.55,0,0,0,4.31,1.68A22.41,22.41,0,0,1,432.53,255.76Z"/><path class="cls-1" d="M394.86,54.1c-1.64-2.25-3.62.57-5.35-.36A18.16,18.16,0,0,1,397.78,50c2.67.52,5.5-.81,8.08.7,1.49,1.81-1.52,3.35-.3,5.14l4.14,23-1.29.27c-2.08-3.35-2-7.37-3-11.07a72.61,72.61,0,0,1-2.37-10.7c-.41-4.05-2-5.25-5.76-3.79A16.29,16.29,0,0,1,394.86,54.1Z"/><path class="cls-1" d="M235.77,445.46c0-7.18.06-14,0-20.83,0-2.12.4-3.81,2.85-3.63s1.32,2.3,1.34,3.52c.09,5.33-.17,10.66,0,16C240,443.37,238.81,444.8,235.77,445.46Z"/><path class="cls-1" d="M491.7,280c-3.4-4.3-6.35-6.92-10.72-9,3.66-1.67,7.81-3.34,9.73-1.89C493.27,271.09,491.38,275.44,491.7,280Z"/><path class="cls-1" d="M403.87,271.07c4.52-2,9.06-4,14.06-4.6,1.09-.12,2.59-1.7,2.9.84.2,1.64-.59,2.32-2.21,2.56-4.25.63-8.47,1.4-12.71,2.12C405,272.18,403.84,273,403.87,271.07Z"/><path class="cls-5" d="M567.85,298c.17-7.71-1-15.46.81-23.1l.48.53c.38,2.11-.43,4.31.5,6.37-.24,6.39,1,12.84-.84,19.16C567.76,300.16,568.69,298.77,567.85,298Z"/><path class="cls-1" d="M414.69,69.94c-1.62-3.67-1.81-7.68-2.65-11.53-.2-.93-.55-2.09.79-2.44,1.15-.29,1.3.85,1.46,1.55a121.79,121.79,0,0,1,3,17l-1.65-2.62C414.93,71.44,415.35,70.4,414.69,69.94Z"/><path class="cls-6" d="M336.89,409.92c.07-4.55-1-9.21,1.65-13.54,0,8.24,0,16.48,0,24.72,0,1.25-.66,1.86-1.86.83.13-1.49.78-2.91.6-4.45C337.05,415,337.67,412.41,336.89,409.92Z"/><path class="cls-7" d="M277.63,413.75c-.21,6.41,1,12.88-.8,19.23-1.44-2.55.18-5.47-1-8.05.2-6-.94-12.12.8-18.09l.49.53C277.52,409.48,276.71,411.68,277.63,413.75Z"/><path class="cls-1" d="M410.83,86.86c-2,1-3.66,0-5.24-1.12,4.31-.84,6.6-3.31,6.3-7.85a1.16,1.16,0,0,1,1.32-.1,2.61,2.61,0,0,1,1,1.87,35.82,35.82,0,0,1-.14,5.18C413.37,86.12,413,88,410.83,86.86Z"/><path class="cls-1" d="M348.74,2.82c-6.44,0-12.88,0-19.32,0-1.59,0-3.34.51-4.69-.9a8.23,8.23,0,0,1,5.06-.9c4.37,1.92,9,.32,13.41.86,1.86.22,3.95-.77,5.52,1Z"/><path class="cls-1" d="M405.56,55.82c-1.89-1.73.38-3.3.19-5,.26-.42.55-.43.85,0,3,1.84,3.37,4.76,3.35,7.87.27,1-.15,1.32-1.11,1.07-.36-1.69-.52-3.49-1.73-4.81C405.73,53.46,405.84,55.1,405.56,55.82Z"/><path class="cls-1" d="M414.59,386.85v17.34h-.71V386.85C414.12,386.39,414.36,386.39,414.59,386.85Z"/><path class="cls-8" d="M366.31,59.84c3-1.54,6.31-1.4,9.51-1.84l1,.92C373.36,59.73,370,61.86,366.31,59.84Z"/><path class="cls-1" d="M406.6,50.82l-.85,0a12.92,12.92,0,0,1-8-.88C400.81,49.27,404,47.27,406.6,50.82Z"/><path class="cls-9" d="M413.88,357.7l1.78-.92c-.29,3.68-.59,7.37-.88,11.05-.29.45-.59.45-.89,0Z"/><path class="cls-10" d="M416.65,92c3.12-.15,1.57-2.78,2.24-4.23a16.29,16.29,0,0,1,0,12.16l-.15-5.19C418,93.85,416.38,93.63,416.65,92Z"/><path class="cls-11" d="M276.58,458l-.33,0-.33,0q0-7.07-.05-14.11c.25-.5.49-.47.74,0Z"/><path class="cls-12" d="M414.69,69.94l1,1.92c-1.11.65-.89,1.75-.94,2.77l-1,1.21a1.21,1.21,0,0,1-1.19.14c-.63-.9.11-2.15-.76-3C411.46,70.74,413.06,70.33,414.69,69.94Z"/><path class="cls-13" d="M276.8,386.78a6.85,6.85,0,0,1,.78-.07c0,3.7,0,7.39,0,11.09-.24.48-.49.49-.74,0C276.83,394.13,276.82,390.45,276.8,386.78Z"/><path class="cls-9" d="M568.86,264.81v-9.89c1.31,3.26.8,6.58.73,9.89C569.35,265.28,569.11,265.3,568.86,264.81Z"/><path class="cls-14" d="M365.73,138.85l4.95,3.13c.12.87,0,1.47-1.09,1a11.08,11.08,0,0,1-5.1-2.94Z"/><path class="cls-15" d="M275.85,424.93c1.8,2.5.35,5.4,1,8.05,0,.62-.07,1.24-.11,1.86-.28.45-.57.44-.87,0Z"/><path class="cls-16" d="M567.85,298c1.08.74.71,1.95.95,3,.31,2,.63,3.95.94,5.92l-1.9-.87Q567.84,302,567.85,298Z"/><path class="cls-17" d="M568.86,264.81h.73v10c-.25.5-.49.47-.73,0l-.2.05C568.73,271.5,568.79,268.16,568.86,264.81Z"/><path class="cls-1" d="M311.73,526.84l.94-.73c1.75.8,3.92.93,5.86,4Z"/><path class="cls-18" d="M276.85,397.81a6.06,6.06,0,0,0,.74,0c0,3,0,6,0,9-.25.48-.5.48-.75,0l-.2,0C276.72,403.83,276.78,400.82,276.85,397.81Z"/><path class="cls-19" d="M275.85,434.86l.87,0c0,3-.07,6-.11,9h-.37l-.37,0C275.86,440.87,275.86,437.87,275.85,434.86Z"/><path class="cls-20" d="M223.75,298.89c1.08-2.51,3.24-1.88,6.66-2.15-3,1.66-4.66,2.5-6.75,2.06Z"/><path class="cls-21" d="M336.89,409.92c1.61,2.58.54,5.4.68,8.11l-.42.27-.28-.41C336.88,415.23,336.88,412.57,336.89,409.92Z"/><path class="cls-22" d="M346,83c-1.54,1.1-3.35.86-5.08,1-1.08.44-1.33-.07-1.18-1l5-.91Z"/><path class="cls-1" d="M320.49,530.83c3.07-1,4.62-.19,4.57.6-.1,1.65-1.44.29-2.23.31A10.1,10.1,0,0,1,320.49,530.83Z"/><path class="cls-1" d="M429.78,534l2.11.9c-1.57,1.06-3.37,1-5.15,1a.61.61,0,0,1-.23-.68c.08-.23.17-.34.25-.34Z"/><path class="cls-23" d="M413.88,379.85c0-2.33,0-4.66,0-7,.26-.46.52-.49.79,0l-.05,7C414.39,380.28,414.14,380.3,413.88,379.85Z"/><path class="cls-1" d="M413.88,379.85c.25,0,.51,0,.77,0,0,2.33,0,4.67,0,7h-.72Z"/><path class="cls-24" d="M568.86,274.8a4.45,4.45,0,0,0,.73,0q0,3.48,0,6.95C567.94,279.59,569,277.12,568.86,274.8Z"/><path class="cls-1" d="M403.87,271.07l2,.92c-1.74,1.14-3.63,1.13-5.74.81C401,271.19,402.69,271.62,403.87,271.07Z"/><path class="cls-24" d="M276.85,406.8a6.26,6.26,0,0,0,.75,0l0,6.94C276,411.6,277.05,409.13,276.85,406.8Z"/><path class="cls-25" d="M272.73,231.8c.53-1.06-.64-2.41.54-3.27.11-.08,1,.89,1.5,1.37.59.66,0,1.35.05,2a2.06,2.06,0,0,1-2.16.81A3.69,3.69,0,0,0,272.73,231.8Z"/><path class="cls-1" d="M426.76,534.9c0,.34,0,.68,0,1-1.41,1.09-2.92,1.19-4.92.37Z"/><path class="cls-1" d="M336.87,417.89a1.07,1.07,0,0,1,.7.14c-.06,1.36.8,2.93-.92,3.9C334.89,420.48,337.21,419.26,336.87,417.89Z"/><path class="cls-26" d="M414.69,372.84l-.79,0c0-1.67,0-3.34,0-5l.89,0Z"/><path class="cls-27" d="M408.84,59.76,410,58.69c.64.93,1.38,2.23.18,2.81S408.76,60.76,408.84,59.76Z"/><path class="cls-1" d="M411.8,73c1.19.55.79,1.79,1.15,2.7a1.78,1.78,0,0,1-.18,2.12c-.29,0-.59.06-.88.08Z"/><path class="cls-28" d="M411.64,66.12c0,.67-.12,1.25-.79.95A1.89,1.89,0,0,1,410,66c-.19-.61.27-1,.81-.76C411.2,65.36,411.43,65.87,411.64,66.12Z"/><path class="cls-29" d="M256.93,270.93c18.22-6.49,35.86-12.85,53.57-19,7.47-2.61,8.91-3,8.07-10.8-1-9.12,3.41-11.86,10.88-14.51,21.12-7.49,42-15.81,62.91-23.79a21.81,21.81,0,0,0,8-4.88,21.46,21.46,0,0,1,9.52-5.2c7.36-2.06,14.7-4.19,22-6.26,4.47-1.26,8.09,1.28,7.45,5.82a29.29,29.29,0,0,0,2.71,16.48c1.11,2.48.21,3.32-1.61,4.75-3.4,2.68-7.4,3.7-11.32,5q-74.72,24.69-149.42,49.37c-3.5,1.16-7.12,1.29-9.69,5.38C268.05,276.39,261.33,274.75,256.93,270.93Z"/><path class="cls-29" d="M610.6,185c-7.5-1.36-12.89-6-17.42-11.68A54.72,54.72,0,0,1,581.6,145.1c-.38-3.39-1.3-3.95-4.56-2.65q-55.83,22.14-111.76,44c-1.67.66-3.37,1.23-5.27,1.91a26.86,26.86,0,0,1-.53-2.65c-.35-3.71-1.52-5.76-5.33-2.78-1.81,1.41-3.46.8-5-.47-4.48-3.82-9.26-5.08-15-1.15.79-2.91,0-4.83-.67-6.78-.55-1.74-1.31-3.43-1.73-5.19-2.48-10.39-1.71-10.58,8.51-12.55,11.12-2.14,20.55,0,29.21,7.31-3.11,2.36-7.64,2.4-9.72,5.57-1.21,1.85-.68,4.83-1,7.55,2.38.28,4-.95,5.72-1.66,37.71-15.76,75.37-31.63,113.1-47.33,3-1.25,4.9-2.72,5.82-6,1.26-4.44,3.53-8.44,7-11-6.12,25.48.5,47.9,16.84,68a16.57,16.57,0,0,0,6.42,4.65C613.41,186.33,611.77,185,610.6,185Z"/><path class="cls-30" d="M285.76,270Q359,245.46,432.17,220.88c4.64-1.57,9.65-.43,14.12-2.56,1-.49,1.44.52,1.84,1.2,1.06,1.82-.87,2-1.61,2.32-5.4,2.12-10.82,4.21-16.33,6q-62.49,20.55-125,41c-4.4,1.45-8.94,2.87-12.91,5.19-3.61,2.11-5.16.95-6.58-2.14A1.28,1.28,0,0,1,285.76,270Z"/><path class="cls-29" d="M237.05,261.43c18.66-7.69,37.56-12.15,56.47-16.58,2.09-.49,4.14-1.17,6.19-1.85a3.94,3.94,0,0,0,2.69-2.67c.41-1.25-2.81-2.51,0-3.54,3.1-1.15,6.29-2,9.45-3,.23-.07.62.16.83.36,1.78,1.72-.28,12.56-2.68,13.44q-28.29,10.34-56.62,20.53c-.77.28-1.56.88-2.33.23C247.15,265.1,241.85,264.67,237.05,261.43Z"/><path class="cls-29" d="M281.73,161.83a2.86,2.86,0,0,0,1.56,3.34c12.54,6.66,21.07,17.64,30.24,27.94,2.55,2.86,5.1,5.71,7.61,8.6.55.63,1.9,1.12.67,2.3-1.48,1.84-3.55,2.69-5.66,3.5-1.45.5-2.77,1.46-4.42,1.23-1,.17-2.26,0-2.83.56-2.35,2.33-3.06.76-4.16-1.24-7.64-13.9-16.71-26.64-30-35.8-2.48-1.71-2.95-3-.27-5.13a67.71,67.71,0,0,0,6.26-6.3C281.69,160.53,282,160.94,281.73,161.83Z"/><path class="cls-31" d="M322.88,204.94l7.83-3.25c2.16-2.68,5.18-3.35,8.37-3.65l39-16.08a3.41,3.41,0,0,1,.37.62c1.62,9.18,1.61,9.17-7.08,12.29-25.65,9.19-51.28,18.43-77,27.47-1.54.55-3.9,3.4-5.35.2s1.84-3.64,3.64-4.85a3.52,3.52,0,0,1,4-1.83,97.46,97.46,0,0,0,14.92-6.17,20.43,20.43,0,0,1,4.14-2.3C318.13,206.43,320.35,205.23,322.88,204.94Z"/><path class="cls-29" d="M415.3,155.41c-3.14,6-1.23,12.25-1.28,18.37a20.92,20.92,0,0,0,1,5.36c1.46,5.71,1.07,6.16-5.13,6.83-1.67.19-2.21-.2-2.85-1.72-4.23-10.07-6.92-11.46-18.92-9.5,3.15-2.48,2.9-5.37,2.52-8.09-.67-4.67,1.06-7.63,5.47-9.17a12.46,12.46,0,0,0,3.08-1.63C404.57,152.05,410,152.5,415.3,155.41Z"/><path class="cls-3" d="M330.66,200.47a2,2,0,0,1-2.85-1c-9.06-15.45-21.81-27.07-37.3-35.85a4.27,4.27,0,0,1-2-2.69c4,.85,8.08,1.47,12,2.6s7.65,3.1,12.47,3.08c-2.61,4.09-.73,6.45,2.06,8.8,7.91,6.61,14.25,14.92,22.54,21.15C336.28,199.63,333.39,199.91,330.66,200.47Z"/><path class="cls-3" d="M381.64,174.61a15.94,15.94,0,0,1-8.33,6.5c-3.48,1.36-2.61-1.89-3.86-2.84-6.36-4.79-12.61-10.67-20-12.68-5.73-1.56-12.75-.06-19.17.38-2.72.19-5.82-1.31-8.11,2.15-.95,1.43-3.17-.8-4.85-1.27-.72-.2-1.24-.67-.72-1.38a4.05,4.05,0,0,1,3.5-1.54c10.92,0,21.72-2.76,32.7-1.29a6.53,6.53,0,0,1,2.44.35c7.47,4.73,16.42,5.56,24.25,9.31C380.43,172.76,381.88,172.84,381.64,174.61Z"/><path class="cls-3" d="M416.65,92c.8.84,2.27,1.17,2.08,2.74-10.8.16-21.53-.84-32.27-1.77-3-.25-4.38-2-5.59-4.22-1.83-3.4-2.53-7.16-3.3-10.89.5-.42-.47-2.58,1.44-1.32a46.15,46.15,0,0,1,3.93,3.07C392.74,87.64,404.59,90.11,416.65,92Z"/><path class="cls-32" d="M226.71,257.76c-2.57.07-4.35.23-4.51-1.82-.12-1.71,1.68-1.72,2.81-2.17,10.68-4.23,21.8-7,32.9-9.77,9-2.3,18-4.67,26.28-9.07,2.68-1.42,4-.39,5,1.92,1.36,3.08-1.65,2.43-2.68,2.68-19.2,4.63-38.45,9.08-56.51,17.4A14.31,14.31,0,0,1,226.71,257.76Z"/><path class="cls-33" d="M297.77,39.92c10.56-8.92,22.2-10.6,34.88-5.16,8.41,3.62,15.25,9.42,21.6,15.84.65.66,2.36,1.34.75,2.7-1.23,1.05-2.35.83-3.48-.32a75.86,75.86,0,0,0-14.2-11.76c-12.35-7.71-24.82-9-37.45-.62A4.63,4.63,0,0,1,299,41C297.91,41.34,297.68,40.82,297.77,39.92Z"/><path class="cls-34" d="M277.85,281.38c-1.51,11.05-8.47,7.76-14.6,6.11-3-.8-5.11,0-7.22,3.07a43.26,43.26,0,0,1,0-4.42c.89-7.38,1.79-7.92,8.78-4.54,1.86.91,2.84.9,4.71-.25C272.15,279.74,275.26,281,277.85,281.38Z"/><path class="cls-35" d="M457.44,229.91c.46,4,1.76,7.58,5.28,10.13,2.11,1.53,1.39,3-.82,4a6.34,6.34,0,0,1-6.57-.61,16.56,16.56,0,0,1-2.23-2c-7.21-6.91-7.09-7.5,2-10.58C455.86,230.62,456.6,230.26,457.44,229.91Z"/><path class="cls-35" d="M289.64,198.89c-8-6.18-14-14.64-23.29-19.29-1-.48-3.11-1.41-1.21-3.3,1.5-1.49,2.83-2.4,5.05-.61,7.9,6.42,15,13.54,20.56,22.12C291.07,198.88,290.61,199.15,289.64,198.89Z"/><path class="cls-36" d="M471.16,219.16c-10.34-5.24-11.89-14.94-12.52-25.11C463.75,201.92,465.1,211.73,471.16,219.16Z"/><path class="cls-37" d="M274.82,231.93c-1.41-.65.19-1.36-.05-2,3.77-.19,6.9-.82,4.29-5.77-.46-.87-.77-1.77.23-2.64a2.53,2.53,0,0,1,3.17-.21c2.23,1.17,2.42,3.51,2.8,5.53s-1.81,1.93-3,2.44C279.81,230.25,277.29,231.05,274.82,231.93Z"/><path class="cls-38" d="M374.67,142.73a36.88,36.88,0,0,1,21.43-6,104.5,104.5,0,0,1-21.29,6.85c-.4-.12-.55-.28-.46-.49S374.56,142.73,374.67,142.73Z"/><path class="cls-39" d="M392.92,190.07c-.25,1.25.09,3.3-2.1,3-2.49-.35-4.23-1.92-4.2-4.67,0-1.59,0-3.77,2.41-3.38S393,187.24,392.92,190.07Z"/><path class="cls-37" d="M395.6,29.88a37.22,37.22,0,0,1,6.91,14.62c-3.69-3.91-5.16-9.07-7.85-13.52C394.11,29.88,394.73,29.77,395.6,29.88Z"/><path class="cls-40" d="M354.62,58.89l-.26,1c-.59,2.07,2.83.8,2.32,2.79-2.56.46-5.12,1-7.69,1.34-.83.13-2,.88-2.39-.61-.3-1.27.83-1.63,1.7-2C350.39,60.51,352.51,59.71,354.62,58.89Z"/><path class="cls-41" d="M285.76,270l-.06,1.94c-1.12-.17-2.53-.73-3.11.61-1.92,4.42-4.5,2.06-8,.69Z"/><path class="cls-42" d="M280.6,62.72V84.2H280V62.55Z"/><path class="cls-43" d="M432.28,231.09c-1.34,5.16-1.34,5.16-7.2,2.28A23.07,23.07,0,0,1,432.28,231.09Z"/><path class="cls-44" d="M297.77,39.92,299,41l-9.11,8.16-.89-.89C291.67,45.26,294.21,42.12,297.77,39.92Z"/><path class="cls-45" d="M356.68,62.65c.57-2-5.31,1.26-2.32-2.79,1.71,2.16,3.82.68,5.72.52,1.55-.13,3.07-.88,4.42.51C362.12,62.5,359.29,62.11,356.68,62.65Z"/><path class="cls-46" d="M448.73,226.92a7.38,7.38,0,0,1,8.83-.18c.58.37,1.28.45.78,1.24-.29.47-.68,1.37-1.48.7-2.52-2.07-5.37-1.07-8.13-1-.33-.17-.43-.34-.32-.51S448.62,226.92,448.73,226.92Z"/><path class="cls-47" d="M339.78,83,341,84l-8.85,2.08C334.14,83.15,337.07,83.39,339.78,83Z"/><path class="cls-44" d="M289.64,198.89l1.11-1.08c1.71,2.11,3.93,3.94,3.89,7l.09-.08C291,204.58,291.48,200.71,289.64,198.89Z"/><path class="cls-48" d="M281.38,282.08c3,2.19,2,4.66.72,7.18Z"/><path class="cls-49" d="M329.51,85.56c-2.59,1.6-5.45,1.84-9.46,2A15.71,15.71,0,0,1,329.51,85.56Z"/><path class="cls-1" d="M330.66,200.47l6.9-3.95,1.52,1.52c-2.48,1.91-5.56,2.46-8.37,3.65C330.7,201.28,330.68,200.87,330.66,200.47Z"/><path class="cls-1" d="M322.88,204.94a15.7,15.7,0,0,1-7.14,2.92c-.24-.21-.31-.42-.22-.62s.17-.29.26-.29c2-1.08,3.4-3.23,6-2.94Z"/><path class="cls-35" d="M297.87,213.89,296.74,215a7.85,7.85,0,0,1-4.06,1.7c-1.11.07-1.86-.2-1.91-1.54s.7-1.22,1.55-1.24c1.32,0,2.63-.12,3.95-.18A1.14,1.14,0,0,1,297.87,213.89Z"/><path class="cls-1" d="M280.8,104.8l-.57-8.39c2,2.64,1.35,5.56,1.44,8.39Q281.24,105.52,280.8,104.8Z"/><path class="cls-50" d="M281.73,161.83l-1-1c0-.15,0-.35.13-.46,1-1,1.79-2.41,3.48-1.79.45.17,1,1.2.88,1.56C284.61,161.65,283,161.54,281.73,161.83Z"/><path class="cls-51" d="M296.81,212.84c.7-3.06-1.62-5.33-2.08-8.09l-.09.08c2.45,1.28,2.89,3.85,3.87,6.07C298.13,211.71,298.71,213.36,296.81,212.84Z"/><path class="cls-36" d="M320,87.67c-2.46.86-4.26,1.89-6.14.68-.79-.52.6-2.45,1.1-1.87C316.32,88,318.09,86.42,320,87.67Z"/><path class="cls-52" d="M373.76,52.84c-2,.61-3.68,3.22-6.13,1C369.79,54.22,371.35,50.83,373.76,52.84Z"/><path class="cls-53" d="M610.6,185c1-.55,2.47.37,3.08-1.12,1.23-.17,2.17.37,3.74,1.92C614.64,185.72,612.61,186.47,610.6,185Z"/><path class="cls-1" d="M315.78,207c0,.3,0,.61,0,.91a4.86,4.86,0,0,1-4.06,1.83,1.54,1.54,0,0,1,.05-.95C312.71,207.32,314.22,207.08,315.78,207Z"/><path class="cls-54" d="M364.79,55.83c-1.66,1-3.19,2.7-5.36,1C361.1,55.84,362.78,54.93,364.79,55.83Z"/><path class="cls-55" d="M395.6,29.88l-.94,1.1a9.69,9.69,0,0,1-2.78-4.41C394.32,26.66,394.79,28.47,395.6,29.88Z"/><path class="cls-1" d="M292.68,216.65a7.17,7.17,0,0,1,4.06-1.7c0,.31,0,.61,0,.91a7.53,7.53,0,0,1-4,1.83C292.71,217.34,292.7,217,292.68,216.65Z"/><path class="cls-56" d="M447.84,227.92c-1.34,1.09-2.94,1-4.52,1-.61,0-1.42-.11-1-.95.21-.44,1-.58,1.56-.86C445.12,227.75,446.75,226.57,447.84,227.92Z"/><path class="cls-1" d="M354.7,2.9l4.58,1.53c-2,.46-3.37.91-4.54-.63-.35-.18-.47-.38-.36-.59S354.59,2.9,354.7,2.9Z"/><path class="cls-52" d="M386.42,19.87c-2.27-.94-3.22-1.63-3.69-3.42C384.48,16.73,385.25,17.63,386.42,19.87Z"/><path class="cls-57" d="M312.13,146.4c-1.86.85-3.05.29-4.23-1.06C309.67,144.51,310.68,145.72,312.13,146.4Z"/><path class="cls-1" d="M354.7,2.9c0,.3,0,.6,0,.9-2-.27-4.24.86-6-1l0,0Z"/><path class="cls-31" d="M296.81,212.84l1.7-1.94c.18,1.08,2.5,2.62-.64,3l-1.6-.2Z"/><path class="cls-58" d="M390.81,23.85c-2.37,0-2.78-1.45-4.24-3C389,20.91,389.73,22.21,390.81,23.85Z"/><path class="cls-59" d="M374.67,142.73a1.06,1.06,0,0,1,.14.83c-1.84.61-3.65,1-5.22-.63l1.09-1A6.51,6.51,0,0,0,374.67,142.73Z"/><path class="cls-32" d="M447.84,227.92c-1.27-.53-2.88.55-4-.85a5.58,5.58,0,0,1,4.85-.15v.77A1.29,1.29,0,0,1,447.84,227.92Z"/><path class="cls-60" d="M280.06,89.55c1,1.12.59,2.31.49,3.84C279.28,92,280,90.77,280.06,89.55Z"/><path class="cls-1" d="M280.8,104.8a6.31,6.31,0,0,0,.87,0c-.05,1.38.45,2.82-.43,4.19C280.35,107.62,280.85,106.18,280.8,104.8Z"/><path class="cls-29" d="M157.5,355.37c0-13,10.63-23.39,23.22-22.58,5.48.35,9.38,3,11.35,8.24,5.31,14-7.56,30.73-22.46,29.18C161.82,369.4,157.5,364.12,157.5,355.37Z"/><path class="cls-61" d="M243.66,351.26c-1.75-6.11.72-8,5.32-8.36a43.25,43.25,0,0,0,7.29-1.41c2.85-.77,5.45-.8,6.49,2.48,1,3.13.17,6.23-2.82,7.72-4.76,2.38-10.17,3.08-15.34,3.53C241.31,355.51,244,351.78,243.66,351.26Z"/><path class="cls-62" d="M243.9,324.9c-1.41-5.46.76-7.07,4.85-7.26a24.31,24.31,0,0,0,4.87-1c2.6-.66,5.08-.88,6.27,2.17a5.6,5.6,0,0,1-2.18,7c-3.81,2.62-8.53,3.06-12.86,3.26C241.93,329.26,244.31,325.6,243.9,324.9Z"/><path class="cls-63" d="M90.61,359.92c.07-9.39.07-9.39,9.3-11.31,7.23-1.5,9.62-.65,10.94,3.88,1.77,6.09-1.43,12.76-7,14.57a30.13,30.13,0,0,1-3.38.79C90.55,369.82,90.55,369.81,90.61,359.92Z"/><path class="cls-63" d="M596.09,273.76c.2-8.09.19-8.09,7.92-9.7,1-.21,2-.23,2.94-.51,3.78-1.14,7.33-1.39,9.36,2.88,1.84,3.86,0,9.51-3.95,11.73-4.42,2.47-9.54,2.57-14.36,3.66-1.62.37-1.93-.76-1.92-2.09C596.11,277.74,596.09,275.75,596.09,273.76Z"/><path class="cls-63" d="M447.66,304.84c.08-8.35.08-8.35,8.07-9.92.82-.16,1.66-.22,2.46-.43,4.11-1.07,8-1.65,9.8,3.61,1.47,4.38-.79,9.93-5.34,11.54-4.19,1.48-8.69,2.11-13,3.12-1.67.39-2-.56-2-1.93C447.69,308.83,447.66,306.84,447.66,304.84Z"/><path class="cls-62" d="M520.19,382.34,528.27,363c2.68,5.27,5.05,9.81,7.3,14.41.8,1.63-.57,2-1.72,2.24C529.66,380.52,525.45,381.32,520.19,382.34Z"/><path class="cls-64" d="M413.56,84.54c0-1.86,0-3.73,0-5.6-.38-1,.08-1.23,1-1,.22,2.62.6,5.24-.06,7.86C413.56,85.87,413.15,85.53,413.56,84.54Z"/><path class="cls-40" d="M413.56,84.54l1,1.24c-1.41,2.75-2.27,3-3.7,1.08C412.64,87.15,412.7,85.37,413.56,84.54Z"/><path class="cls-65" d="M414.59,77.92l-1,1c-.28-.37-.56-.75-.83-1.13l.18-2.12a2.22,2.22,0,0,1,.8.15C414.85,76.2,414.8,77,414.59,77.92Z"/></g></g></svg>