<svg width="25" height="25" viewBox="0 0 25 25" fill="none" xmlns="http://www.w3.org/2000/svg">
<path d="M24.2188 25H8.59375C8.38216 25 8.19906 24.9227 8.04443 24.7681C7.88981 24.6134 7.8125 24.4303 7.8125 24.2188C7.8125 24.0072 7.88981 23.8241 8.04443 23.6694C8.19906 23.5148 8.38216 23.4375 8.59375 23.4375H23.4375V8.59375C23.4375 8.38216 23.5148 8.19906 23.6694 8.04443C23.8241 7.88981 24.0072 7.8125 24.2188 7.8125C24.4303 7.8125 24.6134 7.88981 24.7681 8.04443C24.9227 8.19906 25 8.38216 25 8.59375V24.2188C25 24.4303 24.9227 24.6134 24.7681 24.7681C24.6134 24.9227 24.4303 25 24.2188 25ZM23.4375 5.46875C23.4375 5.25716 23.3602 5.07406 23.2056 4.91943C23.0509 4.76481 22.8678 4.6875 22.6562 4.6875C22.4447 4.6875 22.2616 4.76481 22.1069 4.91943C21.9523 5.07406 21.875 5.25716 21.875 5.46875V6.25H20.3125V3.90625C20.3125 3.69466 20.2352 3.51156 20.0806 3.35693C19.9259 3.20231 19.7428 3.125 19.5312 3.125C19.3197 3.125 19.1366 3.20231 18.9819 3.35693C18.8273 3.51156 18.75 3.69466 18.75 3.90625V6.25H17.1875V5.46875C17.1875 5.25716 17.1102 5.07406 16.9556 4.91943C16.8009 4.76481 16.6178 4.6875 16.4062 4.6875C16.1947 4.6875 16.0116 4.76481 15.8569 4.91943C15.7023 5.07406 15.625 5.25716 15.625 5.46875V6.25H14.0625V3.90625C14.0625 3.69466 13.9852 3.51156 13.8306 3.35693C13.6759 3.20231 13.4928 3.125 13.2812 3.125C13.0697 3.125 12.8866 3.20231 12.7319 3.35693C12.5773 3.51156 12.5 3.69466 12.5 3.90625V6.25H10.9375V5.46875C10.9375 5.25716 10.8602 5.07406 10.7056 4.91943C10.5509 4.76481 10.3678 4.6875 10.1562 4.6875C9.94466 4.6875 9.76156 4.76481 9.60693 4.91943C9.45231 5.07406 9.375 5.25716 9.375 5.46875V6.25H7.8125V3.90625C7.8125 3.69466 7.73519 3.51156 7.58057 3.35693C7.42594 3.20231 7.24284 3.125 7.03125 3.125C6.81966 3.125 6.63656 3.20231 6.48193 3.35693C6.32731 3.51156 6.25 3.69466 6.25 3.90625V6.25H3.90625C3.69466 6.25 3.51156 6.32731 3.35693 6.48193C3.20231 6.63656 3.125 6.81966 3.125 7.03125C3.125 7.24284 3.20231 7.42594 3.35693 7.58057C3.51156 7.73519 3.69466 7.8125 3.90625 7.8125H6.25V9.375H5.46875C5.25716 9.375 5.07406 9.45231 4.91943 9.60693C4.76481 9.76156 4.6875 9.94466 4.6875 10.1562C4.6875 10.3678 4.76481 10.5509 4.91943 10.7056C5.07406 10.8602 5.25716 10.9375 5.46875 10.9375H6.25V12.5H3.90625C3.69466 12.5 3.51156 12.5773 3.35693 12.7319C3.20231 12.8866 3.125 13.0697 3.125 13.2812C3.125 13.4928 3.20231 13.6759 3.35693 13.8306C3.51156 13.9852 3.69466 14.0625 3.90625 14.0625H6.25V15.625H5.46875C5.25716 15.625 5.07406 15.7023 4.91943 15.8569C4.76481 16.0116 4.6875 16.1947 4.6875 16.4062C4.6875 16.6178 4.76481 16.8009 4.91943 16.9556C5.07406 17.1102 5.25716 17.1875 5.46875 17.1875H6.25V18.75H3.90625C3.69466 18.75 3.51156 18.8273 3.35693 18.9819C3.20231 19.1366 3.125 19.3197 3.125 19.5312C3.125 19.7428 3.20231 19.9259 3.35693 20.0806C3.51156 20.2352 3.69466 20.3125 3.90625 20.3125H6.25V21.875H5.46875C5.25716 21.875 5.07406 21.9523 4.91943 22.1069C4.76481 22.2616 4.6875 22.4447 4.6875 22.6562C4.6875 22.8678 4.76481 23.0509 4.91943 23.2056C5.07406 23.3602 5.25716 23.4375 5.46875 23.4375H6.25V25H1.5625C1.13932 25 0.773112 24.8494 0.463867 24.5483C0.154622 24.2472 0 23.877 0 23.4375V1.5625C0 1.13932 0.154622 0.773112 0.463867 0.463867C0.773112 0.154622 1.13932 0 1.5625 0H23.4375C23.8607 0 24.2269 0.154622 24.5361 0.463867C24.8454 0.773112 25 1.13932 25 1.5625V6.25H23.4375V5.46875Z" fill="white"/>
</svg>
